{"glyphs":{"0":{"ha":878,"x_min":0,"x_max":0,"o":"m 439 -22 b 719 110 562 -22 655 22 b 814 494 782 199 814 327 b 719 878 814 662 782 790 b 439 1011 655 967 562 1011 b 160 878 317 1011 224 967 b 64 494 96 789 64 661 b 160 111 64 328 96 200 b 439 -22 224 22 317 -22 z m 439 107 b 219 494 293 107 219 236 b 439 882 219 753 293 882 b 660 494 586 882 660 753 b 439 107 660 236 586 107 z "},"1":{"ha":518,"x_min":0,"x_max":0,"o":"m 313 989 b 240 862 300 930 275 887 b 79 817 204 836 150 821 l 57 815 l 57 706 l 283 706 l 283 0 l 432 0 l 432 989 z "},"2":{"ha":788,"x_min":0,"x_max":0,"o":"m 226 129 b 269 244 230 175 244 214 b 390 338 293 275 334 306 l 489 393 b 672 539 572 438 633 486 b 731 722 711 592 731 653 b 640 931 731 806 700 876 b 401 1011 581 984 501 1011 b 149 925 292 1011 208 982 b 61 683 89 868 60 787 l 207 683 b 397 882 207 816 270 882 b 530 838 454 882 498 867 b 578 717 562 808 578 768 b 539 597 578 669 565 629 b 411 500 513 564 470 531 l 299 438 b 110 257 203 388 140 328 b 64 63 83 195 68 130 l 60 0 l 743 0 l 743 129 z "},"3":{"ha":822,"x_min":0,"x_max":0,"o":"m 610 528 b 746 742 700 575 746 646 b 656 939 746 825 716 891 b 417 1011 597 987 517 1011 b 169 931 311 1011 228 984 b 76 710 109 878 78 804 l 222 710 b 415 885 228 826 292 885 b 551 844 473 885 518 871 b 600 733 584 818 600 781 b 551 619 600 683 584 645 b 408 579 518 592 470 579 l 339 579 l 339 464 l 413 464 b 567 416 478 464 530 448 b 622 283 604 384 622 340 b 568 155 622 230 604 187 b 421 107 532 123 483 107 b 203 311 279 107 206 175 l 58 311 b 153 67 58 207 90 126 b 422 -22 217 7 306 -22 b 679 61 528 -22 613 6 b 776 281 744 117 776 190 b 610 528 776 392 721 474 z "},"4":{"ha":838,"x_min":0,"x_max":0,"o":"m 675 368 l 675 989 l 513 989 l 38 381 l 38 239 l 526 239 l 526 0 l 675 0 l 675 239 l 807 239 l 807 368 z m 528 368 l 181 368 l 528 814 z "},"5":{"ha":819,"x_min":0,"x_max":0,"o":"m 431 647 b 246 576 360 647 299 624 l 290 860 l 711 860 l 711 989 l 174 989 l 86 417 l 222 417 b 413 528 260 491 324 528 b 562 469 474 528 523 508 b 619 315 600 429 619 378 b 562 163 619 253 600 203 b 413 104 523 124 474 104 b 274 151 358 104 312 120 b 208 278 237 183 215 225 l 64 278 b 169 60 71 186 106 113 b 413 -22 234 5 315 -22 b 671 72 519 -22 605 9 b 768 315 736 134 768 215 b 679 553 768 412 738 491 b 431 647 619 616 536 647 z "},"6":{"ha":850,"x_min":0,"x_max":0,"o":"m 456 647 b 314 612 406 647 358 635 b 207 515 269 588 234 556 b 444 889 213 764 292 889 b 572 851 496 889 539 876 b 636 740 606 825 627 788 l 779 740 b 669 940 765 825 729 892 b 443 1011 610 987 535 1011 b 162 873 321 1011 227 965 b 64 486 97 781 64 652 b 215 47 64 272 114 126 b 440 -22 277 1 352 -22 b 696 72 545 -22 630 9 b 793 315 761 134 793 215 b 703 553 793 409 763 488 b 456 647 643 616 560 647 z m 293 163 b 235 314 254 201 235 252 b 293 467 235 377 254 428 b 440 525 330 506 379 525 b 588 467 500 525 550 506 b 644 314 625 426 644 375 b 588 163 644 253 625 202 b 440 104 550 124 500 104 b 293 163 379 104 330 124 z "},"7":{"ha":704,"x_min":0,"x_max":0,"o":"m 25 860 l 518 860 b 183 0 302 612 191 325 l 336 0 b 426 474 341 175 371 333 b 679 871 481 614 565 747 l 679 989 l 25 989 z "},"8":{"ha":829,"x_min":0,"x_max":0,"o":"m 608 528 b 746 739 700 572 746 643 b 654 939 746 824 715 891 b 415 1011 592 987 513 1011 b 178 939 317 1011 238 987 b 85 739 116 891 85 824 b 222 528 85 643 131 572 b 44 281 104 481 44 399 b 146 61 44 188 78 115 b 415 -22 213 6 303 -22 b 685 61 527 -22 617 6 b 786 281 752 115 786 188 b 608 528 786 399 727 481 z m 553 849 b 606 735 588 822 606 784 b 553 621 606 686 588 648 b 415 581 518 594 472 581 b 278 621 359 581 313 594 b 225 735 243 648 225 686 b 278 849 225 784 243 822 b 415 889 313 875 359 889 b 553 849 472 889 518 875 z m 254 151 b 194 286 214 183 194 228 b 253 420 194 344 214 388 b 415 468 292 452 346 468 b 576 420 484 468 538 452 b 635 286 615 388 635 344 b 576 151 635 229 615 184 b 415 103 537 119 483 103 b 254 151 348 103 294 119 z "},"9":{"ha":850,"x_min":0,"x_max":0,"o":"m 635 932 b 410 1003 575 979 500 1003 b 154 908 305 1003 220 971 b 57 664 89 844 57 763 b 147 428 57 569 87 491 b 394 333 207 365 290 333 b 535 369 444 333 491 345 b 643 465 579 392 615 425 b 413 92 638 216 562 92 b 280 130 359 92 315 104 b 214 239 245 155 223 192 l 71 239 b 183 41 86 155 123 89 b 414 -31 244 -7 320 -31 b 690 107 534 -31 626 15 b 786 494 754 199 786 328 b 635 932 786 707 736 853 z m 410 456 b 263 515 350 456 302 475 b 206 665 225 554 206 604 b 263 817 206 727 225 778 b 410 876 300 857 350 876 b 558 818 471 876 520 857 b 615 665 596 779 615 728 b 558 514 615 603 596 553 b 410 456 519 475 470 456 z "},"\u0000":{"ha":0,"x_min":0,"x_max":0,"o":""},"\r":{"ha":281,"x_min":0,"x_max":0,"o":""}," ":{"ha":281,"x_min":0,"x_max":0,"o":""},"!":{"ha":285,"x_min":0,"x_max":0,"o":"m 183 278 l 217 725 l 217 989 l 69 989 l 69 725 l 99 278 z m 226 0 l 226 165 l 58 165 l 58 0 z "},"\"":{"ha":597,"x_min":0,"x_max":0,"o":"m 214 606 l 235 989 l 86 989 l 107 606 z m 490 606 l 511 989 l 364 989 l 385 606 z "},"#":{"ha":907,"x_min":0,"x_max":0,"o":"m 868 708 l 732 708 l 789 989 l 656 989 l 599 708 l 394 708 l 451 989 l 318 989 l 261 708 l 126 708 l 103 593 l 238 593 l 197 396 l 63 396 l 39 281 l 174 281 l 117 0 l 250 0 l 307 281 l 511 281 l 454 0 l 588 0 l 644 281 l 781 281 l 804 396 l 668 396 l 708 593 l 844 593 z m 331 396 l 371 593 l 575 593 l 535 396 z "},"$":{"ha":871,"x_min":0,"x_max":0,"o":"m 839 274 b 765 457 839 350 814 412 b 521 561 715 502 634 537 l 492 567 l 492 881 b 618 824 549 872 591 853 b 664 699 645 794 660 752 l 811 699 b 728 910 809 786 782 856 b 492 1008 675 965 596 997 l 492 1150 l 393 1150 l 393 1011 b 154 933 291 1007 212 981 b 68 743 97 885 68 822 b 146 551 68 662 94 598 b 376 451 198 505 275 472 l 393 447 l 393 108 b 188 326 259 123 190 196 l 39 326 b 133 81 40 222 71 140 b 393 -19 194 22 281 -11 l 393 -161 l 492 -161 l 492 -21 b 747 65 601 -15 686 13 b 839 274 808 117 839 187 z m 264 843 b 393 883 294 867 337 881 l 393 589 b 257 650 326 606 281 626 b 219 746 232 674 219 706 b 264 843 219 787 234 819 z m 492 426 b 642 365 563 409 613 388 b 685 269 670 342 685 310 b 492 106 685 170 620 116 z "},"%":{"ha":1242,"x_min":0,"x_max":0,"o":"m 442 482 b 501 701 481 534 501 607 b 441 923 501 797 481 871 b 265 1001 401 975 342 1001 b 89 923 188 1001 130 975 b 28 701 48 871 28 797 b 89 482 28 609 48 536 b 265 403 130 429 188 403 b 442 482 342 403 401 429 z m 415 0 l 943 989 l 828 989 l 300 0 z m 149 701 b 265 904 149 837 188 904 b 382 701 343 904 382 837 b 265 500 382 567 343 500 b 149 701 188 500 149 567 z m 1154 67 b 1214 286 1194 119 1214 192 b 1153 508 1214 381 1194 455 b 978 586 1113 560 1055 586 b 801 508 901 586 842 560 b 740 286 761 455 740 381 b 801 67 740 194 761 120 b 978 -12 841 14 900 -12 b 1154 67 1056 -12 1114 14 z m 978 85 b 860 286 899 85 860 152 b 978 489 860 421 899 489 b 1094 286 1056 489 1094 421 b 978 85 1094 152 1056 85 z "},"&":{"ha":936,"x_min":0,"x_max":0,"o":"m 747 211 b 817 482 791 294 814 385 l 683 482 b 653 315 682 425 672 370 l 464 526 b 665 790 598 601 665 689 b 592 951 665 857 641 911 b 408 1011 544 991 482 1011 b 219 946 329 1011 266 989 b 150 785 173 902 150 849 b 176 676 150 748 159 712 b 263 553 193 641 222 600 b 92 422 185 510 128 466 b 39 258 57 377 39 322 b 125 58 39 180 68 113 b 356 -22 181 5 258 -22 b 665 100 481 -22 584 19 l 754 0 l 936 0 z m 494 863 b 528 785 517 841 528 815 b 388 611 528 721 481 663 b 293 785 325 681 293 739 b 365 885 289 833 313 866 b 494 863 417 903 460 896 z m 367 103 b 236 151 313 103 269 119 b 186 268 203 183 186 222 b 222 378 186 312 198 348 b 339 467 246 409 285 438 l 581 194 b 367 103 527 133 456 103 z "},"'":{"ha":321,"x_min":0,"x_max":0,"o":"m 214 606 l 235 989 l 86 989 l 107 606 z "},"(":{"ha":392,"x_min":0,"x_max":0,"o":"m 381 -272 b 251 47 320 -166 277 -59 b 211 407 225 156 211 276 b 251 771 211 540 225 662 b 381 1088 278 877 321 983 l 250 1088 b 65 407 127 900 65 674 b 250 -272 65 141 127 -85 z "},")":{"ha":392,"x_min":0,"x_max":0,"o":"m 140 -272 b 326 407 264 -81 326 145 b 140 1088 326 673 264 900 l 11 1088 b 142 771 72 980 116 875 b 181 407 168 666 181 545 b 142 47 181 272 168 152 b 11 -272 117 -56 73 -163 z "},"*":{"ha":658,"x_min":0,"x_max":0,"o":"m 329 613 l 456 440 l 536 504 l 408 679 l 611 746 l 578 842 l 381 778 l 381 989 l 278 989 l 278 778 l 81 842 l 47 746 l 251 679 l 124 504 l 203 440 z "},"+":{"ha":735,"x_min":0,"x_max":0,"o":"m 433 556 l 433 806 l 301 806 l 301 556 l 51 556 l 51 433 l 301 433 l 301 185 l 433 185 l 433 433 l 683 433 l 683 556 z "},",":{"ha":285,"x_min":0,"x_max":0,"o":"m 58 0 l 131 0 l 131 -22 b 74 -117 131 -81 112 -112 l 58 -118 l 58 -204 l 76 -203 b 226 -14 176 -197 226 -134 l 226 165 l 58 165 z "},"-":{"ha":510,"x_min":0,"x_max":0,"o":"m 458 331 l 458 451 l 51 451 l 51 331 z "},".":{"ha":285,"x_min":0,"x_max":0,"o":"m 226 0 l 226 165 l 58 165 l 58 0 z "},"/":{"ha":521,"x_min":0,"x_max":0,"o":"m 150 0 l 504 989 l 369 989 l 15 0 z "},":":{"ha":285,"x_min":0,"x_max":0,"o":"m 226 517 l 226 682 l 58 682 l 58 517 z m 226 0 l 226 165 l 58 165 l 58 0 z "},";":{"ha":285,"x_min":0,"x_max":0,"o":"m 58 515 l 226 515 l 226 681 l 58 681 z m 131 0 l 131 -22 b 74 -117 131 -81 112 -112 l 58 -118 l 58 -204 l 76 -203 b 226 -14 176 -197 226 -134 l 226 165 l 58 165 l 58 0 z "},"<":{"ha":735,"x_min":0,"x_max":0,"o":"m 683 829 l 51 565 l 51 425 l 683 161 l 683 306 l 514 374 b 189 494 369 429 261 469 b 514 617 248 516 356 556 l 683 685 z "},"=":{"ha":735,"x_min":0,"x_max":0,"o":"m 683 558 l 683 678 l 51 678 l 51 558 z m 683 311 l 683 431 l 51 431 l 51 311 z "},">":{"ha":735,"x_min":0,"x_max":0,"o":"m 51 685 l 221 617 b 544 494 401 547 509 506 b 221 374 480 472 372 432 l 51 306 l 51 161 l 683 425 l 683 565 l 51 829 z "},"?":{"ha":719,"x_min":0,"x_max":0,"o":"m 415 278 b 433 393 415 333 421 372 b 536 503 446 421 481 457 b 647 620 586 543 623 582 b 682 749 670 659 682 701 b 598 943 682 833 654 898 b 365 1011 542 988 464 1011 b 120 928 260 1011 178 983 b 32 683 62 872 33 791 l 174 683 b 226 840 177 756 195 809 b 367 886 257 871 304 886 b 532 742 477 886 532 838 b 514 674 532 718 526 695 b 506 660 511 669 508 665 l 497 648 b 490 637 494 644 492 640 b 480 626 487 634 484 630 b 470 617 476 622 472 619 b 459 606 468 615 464 611 b 447 595 454 601 450 597 b 433 583 444 593 440 589 b 417 569 426 577 420 572 b 306 444 357 521 320 480 b 279 278 288 406 279 350 z m 431 0 l 431 165 l 263 165 l 263 0 z "},"@":{"ha":1285,"x_min":0,"x_max":0,"o":"m 647 1011 b 213 843 469 1011 324 955 b 44 418 100 731 44 589 b 213 -4 44 246 100 105 b 651 -168 323 -113 469 -168 b 918 -121 751 -168 840 -152 l 918 -15 b 656 -62 840 -47 753 -62 b 301 69 510 -62 392 -19 b 164 418 210 156 164 273 b 297 768 164 562 208 678 b 646 904 386 859 502 904 b 993 785 790 904 906 864 b 1121 481 1078 705 1121 604 b 1087 294 1121 402 1109 340 b 990 226 1064 249 1032 226 b 908 340 936 226 908 264 l 908 717 l 778 717 l 778 644 b 608 735 740 705 683 735 b 425 651 532 735 471 707 b 356 424 379 595 356 519 b 424 196 356 327 378 251 b 608 113 469 140 531 113 b 803 233 699 113 764 153 b 865 145 813 195 834 166 b 981 114 897 124 935 114 b 1174 218 1064 114 1128 149 b 1240 486 1218 288 1240 377 b 1074 864 1240 639 1185 765 b 647 1011 963 962 821 1011 z m 633 221 b 524 274 586 221 550 239 b 485 424 498 310 485 360 b 522 572 485 487 497 536 b 632 626 547 608 584 626 b 743 572 680 626 717 608 b 781 424 768 536 781 487 b 742 274 781 360 768 310 b 633 221 717 239 681 221 z "},"A":{"ha":981,"x_min":0,"x_max":0,"o":"m 964 0 l 572 989 l 401 989 l 15 0 l 169 0 l 265 257 l 710 257 l 807 0 z m 333 440 b 486 846 371 540 422 675 b 640 440 540 698 591 563 l 661 386 l 313 386 z "},"B":{"ha":894,"x_min":0,"x_max":0,"o":"m 692 517 b 822 732 779 564 822 636 b 742 918 822 809 796 871 b 513 989 689 965 613 989 l 86 989 l 86 0 l 532 0 b 777 75 638 0 720 25 b 863 281 834 125 863 194 b 819 423 863 334 848 382 b 692 517 791 464 748 495 z m 503 861 b 631 824 558 861 601 849 b 676 719 661 799 676 764 b 503 565 676 617 619 565 l 235 565 l 235 861 z m 235 128 l 235 442 l 524 442 b 713 283 650 442 713 389 b 664 168 713 233 696 195 b 524 128 631 141 585 128 z "},"C":{"ha":989,"x_min":0,"x_max":0,"o":"m 511 -22 b 807 79 626 -22 725 12 b 950 365 890 147 938 242 l 801 365 b 703 175 790 282 757 219 b 511 110 646 131 582 110 b 283 213 416 110 340 144 b 199 494 227 282 199 376 b 283 776 199 613 227 707 b 511 879 340 845 416 879 b 692 824 582 879 643 861 b 794 661 742 788 776 733 l 944 661 b 793 924 922 777 872 864 b 511 1011 714 982 620 1011 b 174 871 372 1011 260 964 b 44 494 88 777 44 652 b 175 118 44 336 88 211 b 511 -22 261 25 373 -22 z "},"D":{"ha":974,"x_min":0,"x_max":0,"o":"m 86 989 l 86 0 l 439 0 b 800 132 592 0 712 44 b 929 494 886 220 929 341 b 800 857 929 648 886 769 b 439 989 712 945 592 989 z m 235 131 l 235 858 l 438 858 b 687 764 546 858 629 827 b 774 494 745 701 774 611 b 687 225 774 378 745 288 b 438 131 629 162 546 131 z "},"E":{"ha":826,"x_min":0,"x_max":0,"o":"m 792 989 l 86 989 l 86 0 l 788 0 l 788 133 l 235 133 l 235 446 l 739 446 l 739 576 l 235 576 l 235 856 l 792 856 z "},"F":{"ha":785,"x_min":0,"x_max":0,"o":"m 760 989 l 86 989 l 86 0 l 235 0 l 235 446 l 708 446 l 708 576 l 235 576 l 235 856 l 760 856 z "},"G":{"ha":1049,"x_min":0,"x_max":0,"o":"m 546 393 l 838 393 b 744 190 835 311 804 243 b 526 110 685 137 613 110 b 288 214 427 110 348 144 b 199 494 228 282 199 376 b 288 775 199 613 228 706 b 524 879 346 844 425 879 b 713 821 598 879 661 860 b 813 663 766 782 799 729 l 965 663 b 824 917 950 768 902 853 b 522 1011 744 980 644 1011 b 175 869 377 1011 261 964 b 44 494 88 776 44 651 b 174 121 44 340 88 215 b 514 -22 258 25 371 -22 b 836 132 655 -22 762 29 l 863 0 l 976 0 l 976 519 l 546 519 z "},"H":{"ha":979,"x_min":0,"x_max":0,"o":"m 744 576 l 235 576 l 235 989 l 86 989 l 86 0 l 235 0 l 235 440 l 744 440 l 744 0 l 893 0 l 893 989 l 744 989 z "},"I":{"ha":321,"x_min":0,"x_max":0,"o":"m 235 0 l 235 989 l 86 989 l 86 0 z "},"J":{"ha":739,"x_min":0,"x_max":0,"o":"m 351 -22 b 583 60 450 -22 527 5 b 667 285 639 116 667 190 l 667 989 l 519 989 l 519 285 b 475 153 519 227 505 184 b 350 108 445 123 404 108 b 226 154 297 108 256 124 b 182 285 197 185 182 228 l 182 349 l 39 349 l 39 285 b 122 60 39 189 67 114 b 351 -22 178 5 254 -22 z "},"K":{"ha":944,"x_min":0,"x_max":0,"o":"m 740 989 l 235 493 l 235 989 l 86 989 l 86 0 l 235 0 l 235 321 l 407 486 l 750 0 l 929 0 l 514 586 l 929 989 z "},"L":{"ha":744,"x_min":0,"x_max":0,"o":"m 235 989 l 86 989 l 86 0 l 719 0 l 719 133 l 235 133 z "},"M":{"ha":1188,"x_min":0,"x_max":0,"o":"m 699 476 b 596 183 661 373 626 275 b 494 463 570 260 536 353 l 292 989 l 86 989 l 86 0 l 229 0 l 229 310 b 224 807 229 531 227 697 b 306 582 248 738 275 663 l 532 0 l 657 0 l 881 582 b 964 811 917 675 944 752 b 958 310 960 700 958 533 l 958 0 l 1101 0 l 1101 989 l 894 989 z "},"N":{"ha":981,"x_min":0,"x_max":0,"o":"m 750 689 b 756 190 750 468 752 301 b 563 510 709 273 645 379 l 257 989 l 86 989 l 86 0 l 231 0 l 231 300 b 225 797 231 521 229 687 b 418 479 265 724 329 618 l 722 0 l 893 0 l 893 989 l 750 989 z "},"O":{"ha":1054,"x_min":0,"x_max":0,"o":"m 528 -22 b 878 121 672 -22 789 25 b 1010 494 966 216 1010 341 b 878 869 1010 648 966 773 b 528 1011 789 964 672 1011 b 178 869 381 1011 265 964 b 44 494 89 773 44 648 b 178 121 44 340 89 215 b 528 -22 265 25 381 -22 z m 528 111 b 289 215 428 111 348 146 b 199 494 229 284 199 377 b 289 775 199 611 229 705 b 528 878 349 844 429 878 b 767 775 627 878 706 844 b 856 494 826 706 856 613 b 767 215 856 376 826 283 b 528 111 707 146 628 111 z "},"P":{"ha":889,"x_min":0,"x_max":0,"o":"m 86 989 l 86 0 l 235 0 l 235 365 l 507 365 b 757 449 614 365 698 393 b 846 676 816 505 846 581 b 757 905 846 773 816 849 b 507 989 698 961 614 989 z m 235 496 l 235 858 l 504 858 b 646 811 566 858 613 843 b 694 676 678 780 694 735 b 646 542 694 618 678 573 b 504 496 613 511 566 496 z "},"Q":{"ha":1054,"x_min":0,"x_max":0,"o":"m 1010 494 b 878 869 1010 648 966 773 b 528 1011 789 964 672 1011 b 178 869 381 1011 265 964 b 44 494 89 773 44 648 b 178 121 44 340 89 215 b 528 -22 265 25 381 -22 b 785 44 624 -22 710 0 l 915 -94 l 999 -14 l 875 118 b 1010 494 965 212 1010 337 z m 528 111 b 289 215 428 111 348 146 b 199 494 229 284 199 377 b 289 775 199 611 229 705 b 528 878 349 844 429 878 b 767 775 627 878 706 844 b 856 494 826 706 856 613 b 774 225 856 383 828 294 l 649 358 l 567 278 l 686 150 b 528 111 640 124 587 111 z "},"R":{"ha":908,"x_min":0,"x_max":0,"o":"m 833 275 b 797 406 831 330 819 373 b 692 476 775 439 740 463 b 815 563 744 493 785 522 b 858 715 844 604 858 655 b 767 916 858 800 828 867 b 518 989 707 965 624 989 l 86 989 l 86 0 l 235 0 l 235 407 l 522 407 b 647 367 580 407 621 394 b 690 232 673 341 688 296 l 694 126 b 724 0 695 69 705 27 l 876 0 b 843 121 859 30 848 70 z m 235 531 l 235 861 l 510 861 b 655 821 573 861 621 848 b 706 701 689 794 706 754 b 656 575 706 647 689 605 b 521 531 623 545 578 531 z "},"S":{"ha":871,"x_min":0,"x_max":0,"o":"m 454 -22 b 737 57 575 -22 669 4 b 839 274 805 110 839 182 b 765 457 839 350 814 412 b 521 561 715 502 634 537 l 435 579 b 265 643 352 597 296 618 b 219 746 235 666 219 700 b 271 849 219 790 237 825 b 419 885 305 873 355 885 b 601 840 503 885 563 870 b 664 699 638 809 659 763 l 811 699 b 710 928 809 796 776 872 b 418 1011 645 983 548 1011 b 163 938 311 1011 225 987 b 68 743 100 890 68 825 b 146 551 68 662 94 598 b 376 451 198 505 275 472 l 461 433 b 636 370 545 415 604 394 b 685 269 669 347 685 313 b 626 147 685 216 665 175 b 457 104 586 118 530 104 b 188 326 280 104 190 178 l 39 326 b 149 67 40 213 77 126 b 454 -22 222 7 324 -22 z "},"T":{"ha":857,"x_min":0,"x_max":0,"o":"m 25 989 l 25 856 l 353 856 l 353 0 l 504 0 l 504 856 l 832 856 l 832 989 z "},"U":{"ha":944,"x_min":0,"x_max":0,"o":"m 472 -21 b 767 81 598 -21 696 13 b 872 369 837 149 872 245 l 872 989 l 724 989 l 724 368 b 659 175 724 283 702 219 b 472 110 616 131 554 110 b 285 175 391 110 328 131 b 221 368 242 219 221 283 l 221 989 l 72 989 l 72 369 b 178 81 72 245 107 149 b 472 -21 248 13 346 -21 z "},"V":{"ha":929,"x_min":0,"x_max":0,"o":"m 557 414 b 468 142 512 279 482 188 b 379 414 443 227 413 318 l 172 989 l 15 989 l 383 0 l 553 0 l 914 989 l 760 989 z "},"W":{"ha":1342,"x_min":0,"x_max":0,"o":"m 1051 540 b 960 175 1010 378 979 256 b 869 543 906 395 876 518 l 750 989 l 592 989 l 472 543 b 382 175 466 518 436 395 b 290 540 363 256 332 378 l 169 989 l 15 989 l 293 0 l 460 0 l 585 463 b 671 806 609 552 638 667 b 757 463 704 667 733 552 l 882 0 l 1049 0 l 1326 989 l 1172 989 z "},"X":{"ha":906,"x_min":0,"x_max":0,"o":"m 871 989 l 706 989 l 585 815 b 454 621 507 700 463 636 b 427 662 452 624 443 637 b 386 725 411 686 397 707 b 326 814 357 766 338 795 l 207 989 l 35 989 l 368 506 l 15 0 l 182 0 l 314 190 b 451 393 343 233 388 300 b 589 190 492 332 538 264 l 718 0 l 890 0 l 540 510 z "},"Y":{"ha":929,"x_min":0,"x_max":0,"o":"m 621 782 b 468 528 566 695 515 610 b 448 562 463 537 456 548 b 419 611 440 575 430 592 b 388 663 407 631 397 648 b 314 781 353 717 329 756 l 183 989 l 15 989 l 392 394 l 392 0 l 539 0 l 539 394 l 914 989 l 749 989 z "},"Z":{"ha":850,"x_min":0,"x_max":0,"o":"m 504 133 b 219 131 398 133 303 132 b 396 349 304 233 363 306 l 806 863 l 806 989 l 57 989 l 57 856 l 335 856 b 618 858 440 856 535 856 b 443 640 513 729 455 656 l 35 126 l 35 0 l 815 0 l 815 133 z "},"[":{"ha":457,"x_min":0,"x_max":0,"o":"m 432 -272 l 432 -153 l 222 -153 l 222 968 l 432 968 l 432 1088 l 86 1088 l 86 -272 z "},"\\":{"ha":521,"x_min":0,"x_max":0,"o":"m 504 0 l 150 989 l 15 989 l 369 0 z "},"]":{"ha":457,"x_min":0,"x_max":0,"o":"m 371 -272 l 371 1088 l 25 1088 l 25 968 l 235 968 l 235 -153 l 25 -153 l 25 -272 z "},"^":{"ha":601,"x_min":0,"x_max":0,"o":"m 229 989 l 6 575 l 143 575 l 269 815 b 301 879 276 826 287 848 b 333 815 316 847 327 825 l 458 575 l 596 575 l 372 989 z "},"_":{"ha":608,"x_min":0,"x_max":0,"o":"m 610 -236 l 610 -122 l -1 -122 l -1 -236 z "},"`":{"ha":556,"x_min":0,"x_max":0,"o":"m 425 818 l 304 1018 l 131 1018 l 306 818 z "},"a":{"ha":747,"x_min":0,"x_max":0,"o":"m 694 107 b 656 143 669 107 656 119 l 656 522 b 372 733 656 663 561 733 b 68 493 180 733 78 653 l 206 493 b 249 594 209 541 224 575 b 372 622 274 613 315 622 b 485 598 425 622 463 614 b 519 519 508 582 519 556 b 494 458 519 493 511 472 b 413 429 477 443 450 434 l 307 418 b 38 196 127 400 38 325 b 106 40 38 129 60 77 b 293 -17 152 2 214 -17 b 526 97 400 -17 478 21 b 566 20 531 62 544 36 b 665 -4 588 4 621 -4 b 733 0 690 -4 713 -3 l 733 107 z m 314 92 b 215 120 270 92 237 101 b 181 200 192 139 181 166 b 215 280 181 234 192 261 b 331 318 238 299 277 312 l 431 329 b 519 358 472 334 502 344 l 519 283 b 461 142 519 222 500 175 b 314 92 422 108 373 92 z "},"b":{"ha":822,"x_min":0,"x_max":0,"o":"m 450 733 b 217 617 348 733 270 694 l 217 989 l 78 989 l 78 0 l 211 0 l 211 108 b 450 -17 265 25 344 -17 b 689 86 549 -17 629 18 b 778 358 748 154 778 244 b 689 632 778 473 748 564 b 450 733 630 700 550 733 z m 271 171 b 214 358 233 216 214 279 b 271 547 214 438 233 501 b 424 614 309 592 360 614 b 578 549 489 614 541 592 b 633 364 615 505 633 444 b 578 172 633 281 615 218 b 424 103 540 126 488 103 b 271 171 359 103 308 125 z "},"c":{"ha":738,"x_min":0,"x_max":0,"o":"m 386 -17 b 603 57 472 -17 544 8 b 707 256 661 106 696 172 l 565 256 b 504 143 557 206 537 169 b 386 104 472 117 432 104 b 242 170 326 104 278 126 b 189 358 207 214 189 277 b 242 547 189 440 207 503 b 386 613 278 591 326 613 b 502 575 431 613 470 600 b 564 467 534 550 555 514 l 706 467 b 603 661 694 548 660 613 b 386 733 547 709 474 733 b 139 632 283 733 201 700 b 44 358 76 563 44 472 b 139 86 44 245 76 155 b 386 -17 202 18 284 -17 z "},"d":{"ha":822,"x_min":0,"x_max":0,"o":"m 604 619 b 372 733 550 695 473 733 b 133 632 272 733 193 700 b 44 358 74 564 44 473 b 133 85 44 244 74 152 b 372 -17 193 17 272 -17 b 610 106 477 -17 556 24 l 610 0 l 743 0 l 743 989 l 604 989 z m 246 168 b 189 353 208 212 189 273 b 246 544 189 434 208 498 b 399 614 284 591 335 614 b 553 547 464 614 516 592 b 608 358 590 502 608 439 b 553 171 608 277 590 214 b 399 103 516 125 464 103 b 246 168 335 103 284 125 z "},"e":{"ha":771,"x_min":0,"x_max":0,"o":"m 725 353 b 635 626 725 464 695 555 b 385 733 574 698 490 733 b 139 631 284 733 202 699 b 44 358 76 562 44 471 b 139 86 44 245 76 155 b 388 -17 202 18 285 -17 b 595 47 470 -17 539 4 b 708 219 651 89 689 146 l 568 219 b 390 100 540 140 481 100 b 247 153 330 100 282 118 b 185 313 212 189 191 242 l 725 313 z m 385 617 b 520 563 440 617 485 599 b 582 422 555 528 575 481 l 186 422 b 251 567 194 485 216 533 b 385 617 285 600 330 617 z "},"f":{"ha":463,"x_min":0,"x_max":0,"o":"m 429 876 l 429 989 b 350 993 390 992 364 993 b 135 782 206 993 135 923 l 135 717 l 19 717 l 19 603 l 135 603 l 135 0 l 274 0 l 274 603 l 424 603 l 424 717 l 274 717 l 274 782 b 367 876 274 845 305 876 z "},"g":{"ha":822,"x_min":0,"x_max":0,"o":"m 610 615 b 372 733 556 694 477 733 b 135 632 273 733 194 700 b 44 363 75 563 44 474 b 135 93 44 251 75 162 b 374 -8 194 25 274 -8 b 604 103 473 -8 550 29 l 604 24 b 403 -176 604 -110 537 -176 b 224 -50 294 -176 235 -134 l 85 -50 b 178 -225 92 -124 123 -182 b 401 -289 234 -268 308 -289 b 654 -205 511 -289 595 -261 b 743 26 713 -149 743 -72 l 743 717 l 610 717 z m 399 111 b 246 178 335 111 284 134 b 189 363 208 223 189 285 b 246 546 189 439 208 500 b 399 614 284 591 335 614 b 552 547 463 614 515 591 b 608 363 590 502 608 440 b 552 178 608 285 590 223 b 399 111 515 134 463 111 z "},"h":{"ha":767,"x_min":0,"x_max":0,"o":"m 436 733 b 217 618 344 733 271 695 l 217 989 l 78 989 l 78 0 l 217 0 l 217 404 b 272 558 217 471 235 522 b 397 611 309 594 351 611 b 549 461 498 611 549 561 l 549 0 l 688 0 l 688 481 b 621 667 688 561 665 623 b 436 733 576 711 515 733 z "},"i":{"ha":294,"x_min":0,"x_max":0,"o":"m 218 818 l 218 967 l 76 967 l 76 818 z m 217 0 l 217 717 l 78 717 l 78 0 z "},"j":{"ha":294,"x_min":0,"x_max":0,"o":"m 218 818 l 218 967 l 76 967 l 76 818 z m 32 -276 b 217 -112 155 -276 217 -222 l 217 717 l 78 717 l 78 -99 b 10 -160 78 -139 55 -160 l -31 -160 l -31 -275 b 32 -276 -21 -276 0 -276 z "},"k":{"ha":728,"x_min":0,"x_max":0,"o":"m 722 0 l 433 453 l 704 717 l 531 717 l 215 406 l 215 989 l 78 989 l 78 0 l 215 0 l 215 246 l 335 363 l 563 0 z "},"l":{"ha":294,"x_min":0,"x_max":0,"o":"m 217 0 l 217 989 l 78 989 l 78 0 z "},"m":{"ha":1186,"x_min":0,"x_max":0,"o":"m 861 733 b 639 599 764 733 690 688 b 418 733 600 688 526 733 b 211 610 329 733 260 692 l 211 717 l 78 717 l 78 0 l 217 0 l 217 393 b 264 554 217 463 232 516 b 385 611 295 592 336 611 b 524 463 477 611 524 562 l 524 0 l 663 0 l 663 393 b 710 555 663 463 678 517 b 831 611 741 592 781 611 b 968 463 922 611 968 562 l 968 0 l 1108 0 l 1108 481 b 1043 665 1108 557 1087 619 b 861 733 1000 710 939 733 z "},"n":{"ha":767,"x_min":0,"x_max":0,"o":"m 436 733 b 211 610 341 733 266 692 l 211 717 l 78 717 l 78 0 l 217 0 l 217 404 b 272 558 217 471 235 522 b 397 611 309 594 351 611 b 549 461 498 611 549 561 l 549 0 l 688 0 l 688 481 b 621 667 688 561 665 623 b 436 733 576 711 515 733 z "},"o":{"ha":799,"x_min":0,"x_max":0,"o":"m 657 86 b 754 358 722 154 754 244 b 657 632 754 473 722 564 b 400 733 592 700 506 733 b 143 632 294 733 208 700 b 44 358 77 563 44 472 b 143 86 44 245 77 155 b 400 -17 209 18 294 -17 b 657 86 506 -17 591 18 z m 400 103 b 246 171 335 103 284 125 b 189 358 208 216 189 279 b 246 546 189 438 208 500 b 400 614 284 591 335 614 b 553 546 465 614 516 591 b 610 358 591 500 610 438 b 553 171 610 279 591 216 b 400 103 516 125 465 103 z "},"p":{"ha":822,"x_min":0,"x_max":0,"o":"m 450 733 b 211 608 344 733 265 692 l 211 717 l 78 717 l 78 -272 l 217 -272 l 217 100 b 450 -17 270 22 348 -17 b 689 86 549 -17 629 18 b 778 358 748 154 778 244 b 689 632 778 473 748 564 b 450 733 630 700 550 733 z m 271 171 b 214 358 233 216 214 279 b 271 547 214 438 233 501 b 424 614 309 592 360 614 b 578 549 489 614 541 592 b 633 364 615 505 633 444 b 578 172 633 281 615 218 b 424 103 540 126 488 103 b 271 171 359 103 308 125 z "},"q":{"ha":822,"x_min":0,"x_max":0,"o":"m 610 611 b 372 733 556 693 477 733 b 133 632 272 733 193 700 b 44 358 74 564 44 473 b 133 85 44 244 74 152 b 372 -17 193 17 272 -17 b 604 97 473 -17 550 21 l 604 -272 l 743 -272 l 743 717 l 610 717 z m 246 168 b 189 353 208 212 189 273 b 246 544 189 434 208 498 b 399 614 284 591 335 614 b 553 547 464 614 516 592 b 608 358 590 502 608 439 b 553 171 608 277 590 214 b 399 103 516 125 464 103 b 246 168 335 103 284 125 z "},"r":{"ha":508,"x_min":0,"x_max":0,"o":"m 435 728 b 211 589 331 728 256 681 l 211 717 l 78 717 l 78 0 l 217 0 l 217 389 b 275 542 217 456 236 506 b 440 594 314 577 369 594 l 475 594 l 475 726 b 435 728 469 727 455 728 z "},"s":{"ha":668,"x_min":0,"x_max":0,"o":"m 343 -18 b 564 40 438 -18 511 1 b 643 201 617 78 643 132 b 585 340 643 261 624 307 b 394 415 546 374 482 399 l 319 428 b 218 465 273 437 239 449 b 186 529 197 480 186 501 b 222 600 186 560 198 583 b 325 625 246 617 281 625 b 449 595 381 625 422 615 b 493 493 475 575 490 541 l 628 493 b 325 733 623 653 522 733 b 122 677 239 733 171 715 b 49 525 73 640 49 589 b 276 311 49 410 125 339 l 350 297 b 469 258 407 287 447 274 b 503 192 492 243 503 220 b 344 92 503 125 450 92 b 217 122 286 92 244 102 b 168 228 190 143 174 178 l 29 228 b 343 -18 39 64 144 -18 z "},"t":{"ha":451,"x_min":0,"x_max":0,"o":"m 418 717 l 274 717 l 274 922 l 135 922 l 135 717 l 19 717 l 19 603 l 135 603 l 135 160 b 183 35 135 102 151 61 b 333 -4 216 9 266 -4 b 418 0 359 -4 388 -3 l 418 111 l 356 111 b 292 126 326 111 305 116 b 274 172 280 135 274 151 l 274 603 l 418 603 z "},"u":{"ha":767,"x_min":0,"x_max":0,"o":"m 549 313 b 497 160 549 248 531 197 b 368 106 462 124 419 106 b 217 256 267 106 217 156 l 217 717 l 78 717 l 78 236 b 144 50 78 156 100 94 b 329 -17 189 6 250 -17 b 554 107 425 -17 500 25 l 554 0 l 688 0 l 688 717 l 549 717 z "},"v":{"ha":714,"x_min":0,"x_max":0,"o":"m 465 454 b 415 305 449 403 432 353 b 376 190 399 256 386 218 b 358 135 367 163 361 144 b 253 454 354 152 319 259 l 156 717 l 6 717 l 279 0 l 433 0 l 708 717 l 561 717 z "},"w":{"ha":1110,"x_min":0,"x_max":0,"o":"m 863 418 b 789 164 825 289 800 205 b 715 418 778 205 753 289 l 625 717 l 486 717 l 394 418 b 322 163 363 314 339 229 b 247 418 297 252 272 338 l 156 717 l 6 717 l 243 0 l 390 0 l 488 315 b 554 546 501 361 524 438 b 622 315 575 472 597 395 l 721 0 l 867 0 l 1104 717 l 956 717 z "},"x":{"ha":710,"x_min":0,"x_max":0,"o":"m 690 717 l 532 717 l 485 650 b 357 468 425 567 383 506 b 299 551 348 481 328 509 b 229 650 270 593 247 626 l 181 717 l 19 717 l 275 368 l 6 0 l 164 0 l 197 46 b 283 168 205 57 233 98 b 354 267 325 226 349 259 l 510 47 l 543 0 l 704 0 l 435 368 z "},"y":{"ha":692,"x_min":0,"x_max":0,"o":"m 456 471 b 347 128 419 360 383 245 b 240 471 320 219 285 334 l 157 717 l 6 717 l 271 -19 b 260 -47 268 -26 265 -35 b 251 -74 256 -59 253 -68 b 126 -160 230 -131 188 -160 l 57 -160 l 57 -272 b 129 -276 80 -275 104 -276 b 299 -235 202 -276 259 -262 b 394 -90 338 -207 370 -159 l 686 717 l 539 717 z "},"z":{"ha":683,"x_min":0,"x_max":0,"o":"m 371 114 b 221 113 293 114 243 113 b 313 226 249 145 279 183 l 621 619 l 621 717 l 57 717 l 57 603 l 296 603 b 446 604 374 603 424 603 b 354 490 418 572 388 534 l 46 97 l 46 0 l 638 0 l 638 114 z "},"{":{"ha":490,"x_min":0,"x_max":0,"o":"m 465 -272 l 465 -154 l 383 -154 b 318 -133 352 -154 330 -147 b 300 -69 306 -118 300 -97 l 300 286 b 181 407 300 363 260 403 l 181 410 b 300 531 260 413 300 454 l 300 885 b 318 948 300 913 306 934 b 383 969 330 962 352 969 l 465 969 l 465 1088 l 374 1088 b 165 894 235 1088 165 1023 l 165 556 b 139 491 165 527 156 505 b 51 468 121 477 92 469 l 51 349 b 139 326 92 348 121 340 b 165 261 156 311 165 290 l 165 -79 b 374 -272 165 -208 235 -272 z "},"|":{"ha":293,"x_min":0,"x_max":0,"o":"m 207 -275 l 207 1107 l 86 1107 l 86 -275 z "},"}":{"ha":490,"x_min":0,"x_max":0,"o":"m 117 -272 b 325 -79 256 -272 325 -208 l 325 261 b 351 326 325 290 334 311 b 439 349 369 340 398 348 l 439 468 b 351 491 398 469 369 477 b 325 556 334 505 325 527 l 325 894 b 117 1088 325 1023 256 1088 l 25 1088 l 25 969 l 107 969 b 172 948 138 969 160 962 b 190 885 184 934 190 913 l 190 531 b 310 410 190 454 230 413 l 310 407 b 190 286 230 403 190 363 l 190 -69 b 172 -133 190 -97 184 -118 b 107 -154 160 -147 138 -154 l 25 -154 l 25 -272 z "},"~":{"ha":735,"x_min":0,"x_max":0,"o":"m 500 392 b 628 447 554 392 597 410 b 683 600 660 483 679 534 l 572 600 b 494 514 562 543 536 514 b 389 554 475 514 440 527 b 235 606 323 588 272 606 b 106 551 181 606 138 587 b 51 397 74 514 56 463 l 163 397 b 239 483 171 455 196 483 b 350 442 263 483 300 469 b 500 392 409 408 459 392 z "}," ":{"ha":281,"x_min":0,"x_max":0,"o":""},"¡":{"ha":285,"x_min":0,"x_max":0,"o":"m 226 649 l 226 814 l 58 814 l 58 649 z m 217 -175 l 217 89 l 183 536 l 99 536 l 69 89 l 69 -175 z "},"¢":{"ha":738,"x_min":0,"x_max":0,"o":"m 565 256 b 521 159 559 216 544 184 b 433 110 498 134 469 118 l 433 607 b 564 467 505 592 548 545 l 706 467 b 618 648 695 541 666 601 b 433 731 570 695 508 722 l 433 872 l 336 872 l 336 731 b 123 615 246 719 175 681 b 44 358 71 548 44 463 b 125 103 44 254 71 169 b 336 -14 178 36 248 -3 l 336 -161 l 433 -161 l 433 -14 b 619 71 508 -6 570 23 b 707 256 669 119 698 181 z m 189 358 b 228 527 189 429 202 485 b 336 607 254 569 290 596 l 336 110 b 228 192 290 122 254 149 b 189 358 202 234 189 290 z "},"£":{"ha":772,"x_min":0,"x_max":0,"o":"m 350 350 b 346 397 350 367 349 382 l 614 397 l 614 496 l 319 496 b 285 576 309 524 298 550 b 232 743 250 651 232 707 b 274 847 232 788 246 822 b 394 885 303 872 343 885 b 539 838 459 885 507 869 b 592 699 570 807 588 761 l 740 699 b 650 928 737 797 706 873 b 399 1011 594 984 510 1011 b 169 938 303 1011 227 987 b 82 743 111 888 82 824 b 146 529 82 685 103 613 l 163 496 l 36 496 l 36 397 l 197 397 b 203 346 201 383 203 366 b 167 224 203 299 191 258 b 56 126 144 191 106 158 l 56 0 l 740 0 l 740 133 l 238 133 b 350 350 313 198 350 270 z "},"¤":{"ha":811,"x_min":0,"x_max":0,"o":"m 767 797 l 693 871 l 583 761 b 410 810 531 794 474 810 b 232 757 345 810 286 792 l 118 871 l 44 797 l 156 686 b 92 494 113 631 92 568 b 156 303 92 421 113 357 l 44 192 l 118 118 l 232 232 b 410 179 286 197 345 179 b 583 228 474 179 531 195 l 693 118 l 767 192 l 661 297 b 728 494 706 355 728 420 b 661 692 728 569 706 635 z m 278 626 b 410 679 313 662 357 679 b 543 626 463 679 508 662 b 594 494 577 592 594 548 b 543 363 594 441 577 397 b 410 310 508 327 463 310 b 278 363 357 310 313 327 b 225 494 243 398 225 442 b 278 626 225 547 243 591 z "},"¥":{"ha":929,"x_min":0,"x_max":0,"o":"m 749 989 l 621 782 b 468 528 566 695 515 610 b 448 562 463 537 456 548 b 419 611 440 575 430 592 b 388 663 407 631 397 648 b 314 781 353 717 329 756 l 183 989 l 15 989 l 335 483 l 156 483 l 156 386 l 392 386 l 392 282 l 156 282 l 156 185 l 392 185 l 392 0 l 539 0 l 539 185 l 774 185 l 774 282 l 539 282 l 539 386 l 774 386 l 774 483 l 594 483 l 914 989 z "},"¦":{"ha":293,"x_min":0,"x_max":0,"o":"m 207 553 l 207 1107 l 86 1107 l 86 553 z m 207 -283 l 207 271 l 86 271 l 86 -283 z "},"§":{"ha":800,"x_min":0,"x_max":0,"o":"m 768 289 b 712 443 768 348 749 400 b 525 586 674 487 612 534 l 396 663 b 292 736 346 692 311 717 b 263 804 272 756 263 778 b 394 903 263 870 306 903 b 542 771 488 903 537 859 l 678 771 b 603 949 676 849 651 908 b 396 1011 556 991 487 1011 b 196 956 310 1011 243 993 b 125 800 149 919 125 867 b 207 640 125 741 152 688 b 38 435 94 597 38 528 b 94 281 38 375 56 324 b 281 138 131 237 194 189 l 411 61 b 439 44 420 56 430 50 b 465 27 448 38 457 32 b 481 17 472 22 478 19 b 543 -81 522 -15 543 -47 b 413 -179 543 -146 500 -179 b 264 -49 317 -179 268 -136 l 128 -49 b 203 -226 130 -125 155 -184 b 410 -287 251 -267 320 -287 b 610 -232 496 -287 563 -269 b 681 -78 657 -195 681 -144 b 600 82 681 -19 654 34 b 768 289 712 125 768 194 z m 501 151 l 457 179 l 324 258 b 209 347 270 291 232 320 b 175 435 186 373 175 402 b 208 520 175 467 186 496 b 304 572 229 545 262 562 l 349 544 l 482 465 b 597 377 536 433 574 403 b 631 288 619 351 631 321 b 597 203 631 256 619 228 b 501 151 575 179 543 162 z "},"¨":{"ha":556,"x_min":0,"x_max":0,"o":"m 221 818 l 221 967 l 79 967 l 79 818 z m 476 818 l 476 967 l 335 967 l 335 818 z "},"©":{"ha":1133,"x_min":0,"x_max":0,"o":"m 940 128 b 1089 494 1039 227 1089 349 b 940 863 1089 639 1039 762 b 567 1013 840 963 716 1013 b 194 863 418 1013 294 963 b 44 494 94 763 44 640 b 194 128 44 348 94 226 b 567 -22 293 28 417 -22 b 940 128 716 -22 840 28 z m 567 81 b 272 200 448 81 350 120 b 156 494 194 280 156 378 b 272 790 156 613 194 712 b 567 908 350 869 448 908 b 863 790 686 908 785 869 b 978 494 939 711 978 612 b 863 200 978 378 939 280 b 567 81 785 120 686 81 z m 571 190 b 748 251 642 190 701 211 b 829 414 795 292 822 346 l 714 414 b 667 324 708 375 693 345 b 571 292 641 302 609 292 b 456 345 522 292 484 309 b 415 494 429 381 415 431 b 456 645 415 559 429 609 b 571 699 484 681 522 699 b 664 667 608 699 639 688 b 711 579 689 647 705 617 l 829 579 b 748 740 821 647 794 700 b 571 799 702 779 643 799 b 372 716 488 799 421 771 b 297 494 322 661 297 587 b 372 274 297 403 322 329 b 571 190 422 218 488 190 z "},"ª":{"ha":663,"x_min":0,"x_max":0,"o":"m 619 463 b 585 497 596 463 585 474 l 585 817 b 333 1001 585 940 501 1001 b 63 790 160 1001 70 931 l 193 790 b 229 877 196 832 208 861 b 333 901 250 893 285 901 b 427 881 377 901 408 894 b 456 815 446 867 456 845 b 434 761 456 791 448 773 b 364 739 420 749 396 742 l 272 729 b 36 533 115 713 36 648 b 95 399 36 476 56 431 b 258 350 134 366 189 350 b 464 450 353 350 421 383 b 590 360 471 390 513 360 b 651 364 610 360 630 361 l 651 463 z m 283 449 b 201 474 248 449 221 457 b 171 540 181 490 171 513 b 296 640 171 599 213 632 l 381 650 b 456 674 415 653 440 661 l 456 613 b 407 492 456 561 439 520 b 283 449 375 463 333 449 z "},"«":{"ha":693,"x_min":0,"x_max":0,"o":"m 322 90 l 322 239 l 174 360 l 322 481 l 322 629 l 86 436 l 86 283 z m 371 436 l 371 283 l 607 90 l 607 239 l 458 360 l 607 481 l 607 629 z "},"¬":{"ha":735,"x_min":0,"x_max":0,"o":"m 51 475 l 550 475 l 550 226 l 683 226 l 683 597 l 51 597 z "},"­":{"ha":510,"x_min":0,"x_max":0,"o":"m 458 331 l 458 451 l 51 451 l 51 331 z "},"®":{"ha":788,"x_min":0,"x_max":0,"o":"m 149 914 b 47 675 81 849 47 769 b 149 438 47 581 81 502 b 394 340 214 373 296 340 b 640 438 493 340 575 373 b 740 675 707 503 740 582 b 640 914 740 769 707 849 b 394 1011 575 979 493 1011 b 149 914 296 1011 214 979 z m 394 410 b 200 486 316 410 251 435 b 121 675 147 538 121 601 b 200 867 121 751 147 815 b 394 943 251 918 316 943 b 589 867 472 943 537 918 b 667 675 641 815 667 751 b 589 486 667 601 641 538 b 394 410 537 435 472 410 z m 531 604 b 489 674 529 639 515 663 b 540 756 523 688 540 716 b 506 831 540 788 529 813 b 414 857 484 848 453 857 l 260 857 l 260 503 l 329 503 l 329 640 l 415 640 b 450 630 432 640 444 637 b 463 590 456 623 461 610 l 465 554 b 479 503 466 531 471 514 l 551 503 b 535 554 541 517 536 534 z m 329 794 l 411 794 b 468 747 449 794 468 779 b 415 700 468 716 450 700 l 329 700 z "},"¯":{"ha":556,"x_min":0,"x_max":0,"o":"m 488 818 l 488 924 l 68 924 l 68 818 z "},"°":{"ha":474,"x_min":0,"x_max":0,"o":"m 236 639 b 372 693 290 639 335 657 b 426 821 408 727 426 770 b 372 949 426 872 408 914 b 236 1000 335 983 290 1000 b 101 949 181 1000 137 983 b 47 821 65 914 47 872 b 103 693 47 770 66 727 b 236 639 139 657 183 639 z m 236 733 b 174 758 212 733 191 742 b 149 821 157 775 149 796 b 174 883 149 846 157 866 b 236 907 190 899 211 907 b 299 883 261 907 282 899 b 324 821 315 866 324 846 b 299 758 324 796 315 775 b 236 733 282 742 261 733 z "},"±":{"ha":735,"x_min":0,"x_max":0,"o":"m 433 806 l 300 806 l 300 582 l 51 582 l 51 460 l 300 460 l 300 238 l 433 238 l 433 460 l 683 460 l 683 582 l 433 582 z m 683 0 l 683 122 l 51 122 l 51 0 z "},"²":{"ha":471,"x_min":0,"x_max":0,"o":"m 143 831 b 240 931 151 874 184 907 l 285 950 b 408 1033 341 974 382 1002 b 446 1147 433 1065 446 1103 b 390 1272 446 1198 427 1240 b 238 1319 353 1303 302 1319 b 81 1266 170 1319 118 1302 b 24 1122 45 1230 25 1182 l 136 1122 b 161 1196 136 1154 144 1178 b 235 1222 178 1213 202 1222 b 332 1142 300 1222 332 1195 b 238 1039 332 1100 300 1066 l 197 1022 b 63 924 135 996 90 963 b 17 778 35 884 19 835 l 15 733 l 450 733 l 450 831 z "},"³":{"ha":492,"x_min":0,"x_max":0,"o":"m 375 1039 b 454 1164 428 1068 454 1109 b 399 1277 454 1211 436 1249 b 247 1319 362 1305 311 1319 b 94 1274 181 1319 130 1304 b 33 1143 57 1243 37 1200 l 147 1143 b 247 1226 151 1199 184 1226 b 317 1207 277 1226 300 1220 b 342 1153 333 1194 342 1176 b 243 1075 342 1101 309 1075 l 200 1075 l 200 989 l 240 989 b 351 904 314 989 351 961 b 323 839 351 876 342 855 b 246 815 304 823 278 815 b 128 925 168 815 129 852 l 15 925 b 75 774 15 860 35 810 b 246 721 115 739 172 721 b 408 770 313 721 367 737 b 468 900 448 803 468 846 b 375 1039 468 969 437 1016 z "},"´":{"ha":556,"x_min":0,"x_max":0,"o":"m 251 818 l 426 1018 l 253 1018 l 132 818 z "},"µ":{"ha":767,"x_min":0,"x_max":0,"o":"m 549 313 b 497 160 549 248 531 197 b 368 106 462 124 419 106 b 218 256 268 106 218 156 l 218 717 l 78 717 l 78 -272 l 217 -272 l 217 18 b 332 -17 249 -5 288 -17 b 554 106 426 -17 500 24 l 554 0 l 689 0 l 689 717 l 549 717 z "},"¶":{"ha":760,"x_min":0,"x_max":0,"o":"m 467 0 l 467 871 l 554 871 l 554 0 l 674 0 l 674 989 l 371 989 b 43 743 152 989 43 907 b 126 567 43 668 71 609 b 347 504 181 525 255 504 l 347 0 z "},"·":{"ha":285,"x_min":0,"x_max":0,"o":"m 226 411 l 226 578 l 58 578 l 58 411 z "},"¸":{"ha":556,"x_min":0,"x_max":0,"o":"m 276 -60 l 333 7 l 242 7 l 186 -64 l 186 -117 b 224 -115 194 -116 207 -115 b 303 -171 276 -115 303 -134 b 217 -232 303 -212 274 -232 b 136 -226 189 -232 162 -230 l 136 -294 b 225 -303 164 -300 194 -303 b 421 -169 356 -303 421 -258 b 385 -90 421 -137 409 -111 b 290 -60 362 -70 330 -60 z "},"¹":{"ha":310,"x_min":0,"x_max":0,"o":"m 178 1307 b 122 1234 165 1272 146 1247 b 21 1214 98 1221 64 1214 l 21 1132 l 157 1132 l 157 733 l 275 733 l 275 1307 z "},"º":{"ha":717,"x_min":0,"x_max":0,"o":"m 583 439 b 669 675 641 499 669 578 b 583 913 669 773 641 852 b 358 1001 527 972 452 1001 b 133 913 265 1001 190 972 b 47 675 76 852 47 773 b 133 439 47 578 76 499 b 358 350 190 380 265 350 b 583 439 452 350 527 380 z m 231 517 b 183 675 199 554 183 606 b 231 835 183 744 199 797 b 358 892 262 873 305 892 b 488 835 414 892 457 873 b 535 675 519 797 535 744 b 488 517 535 606 519 554 b 358 460 455 479 412 460 b 231 517 306 460 263 479 z "},"»":{"ha":693,"x_min":0,"x_max":0,"o":"m 235 360 l 86 239 l 86 90 l 322 283 l 322 436 l 86 629 l 86 481 z m 371 481 l 519 360 l 371 239 l 371 90 l 607 283 l 607 436 l 371 629 z "},"¼":{"ha":1014,"x_min":0,"x_max":0,"o":"m 275 415 l 275 989 l 178 989 b 122 916 165 954 146 929 b 21 896 98 903 64 896 l 21 814 l 157 814 l 157 415 z m 156 0 l 268 0 l 796 989 l 683 989 z m 913 231 l 913 574 l 793 574 l 514 246 l 514 133 l 796 133 l 796 0 l 913 0 l 913 133 l 993 133 l 993 231 z m 799 231 l 614 231 l 799 446 z "},"½":{"ha":1063,"x_min":0,"x_max":0,"o":"m 275 989 l 178 989 b 122 916 165 954 146 929 b 21 896 98 903 64 896 l 21 814 l 157 814 l 157 415 l 275 415 z m 160 0 l 272 0 l 800 989 l 688 989 z m 735 97 b 832 197 743 141 775 174 l 876 217 b 999 300 933 241 974 269 b 1038 414 1025 331 1038 369 b 981 538 1038 465 1019 506 b 828 586 944 570 893 586 b 672 533 760 586 708 568 b 614 389 635 497 616 449 l 726 389 b 826 489 727 456 761 489 b 922 408 890 489 922 462 b 828 306 922 365 891 331 l 788 289 b 608 44 672 240 612 158 l 606 0 l 1042 0 l 1042 97 z "},"¾":{"ha":1154,"x_min":0,"x_max":0,"o":"m 468 582 b 375 721 468 651 437 698 b 454 846 428 750 454 791 b 399 959 454 893 436 931 b 247 1001 362 987 311 1001 b 94 956 181 1001 130 986 b 33 825 57 925 37 881 l 147 825 b 247 908 151 881 184 908 b 317 889 277 908 300 902 b 342 835 333 876 342 858 b 243 757 342 783 309 757 l 200 757 l 200 671 l 240 671 b 351 586 314 671 351 643 b 323 521 351 558 342 537 b 246 497 304 505 278 497 b 128 607 168 497 129 534 l 15 607 b 75 456 15 542 35 492 b 246 403 115 421 172 403 b 408 452 313 403 367 419 b 468 582 448 485 468 528 z m 297 0 l 410 0 l 938 989 l 825 989 z m 1053 231 l 1053 574 l 933 574 l 654 246 l 654 133 l 935 133 l 935 0 l 1053 0 l 1053 133 l 1133 133 l 1133 231 z m 939 231 l 754 231 l 939 446 z "},"¿":{"ha":719,"x_min":0,"x_max":0,"o":"m 457 649 l 457 814 l 289 814 l 289 649 z m 354 -197 b 599 -114 461 -197 542 -169 b 686 131 656 -58 685 23 l 546 131 b 494 -26 542 57 525 5 b 353 -72 463 -57 416 -72 b 186 72 242 -72 186 -24 b 206 140 186 94 193 117 b 244 192 217 160 230 177 b 303 244 248 195 268 213 b 413 369 360 293 397 334 b 440 536 431 409 440 465 l 304 536 b 286 421 302 479 296 440 b 183 311 271 392 237 356 b 38 65 86 235 38 153 b 122 -129 38 -19 66 -84 b 354 -197 178 -175 255 -197 z "},"À":{"ha":981,"x_min":0,"x_max":0,"o":"m 421 1249 l 247 1249 l 422 1049 l 542 1049 z m 964 0 l 572 989 l 401 989 l 15 0 l 169 0 l 265 257 l 710 257 l 807 0 z m 333 440 b 486 846 371 540 422 675 b 640 440 540 698 591 563 l 661 386 l 313 386 z "},"Á":{"ha":981,"x_min":0,"x_max":0,"o":"m 546 1249 l 425 1049 l 544 1049 l 719 1249 z m 964 0 l 572 989 l 401 989 l 15 0 l 169 0 l 265 257 l 710 257 l 807 0 z m 333 440 b 486 846 371 540 422 675 b 640 440 540 698 591 563 l 661 386 l 313 386 z "},"Â":{"ha":981,"x_min":0,"x_max":0,"o":"m 606 1049 l 738 1049 l 578 1249 l 392 1249 l 232 1049 l 365 1049 l 485 1174 z m 964 0 l 572 989 l 401 989 l 15 0 l 169 0 l 265 257 l 710 257 l 807 0 z m 333 440 b 486 846 371 540 422 675 b 640 440 540 698 591 563 l 661 386 l 313 386 z "},"Ã":{"ha":981,"x_min":0,"x_max":0,"o":"m 388 1113 b 469 1086 404 1113 431 1104 b 594 1049 525 1061 567 1049 b 725 1225 681 1049 725 1107 l 621 1225 b 582 1161 621 1182 608 1161 b 496 1189 564 1161 536 1170 b 375 1225 445 1213 405 1225 b 244 1049 288 1225 244 1166 l 349 1049 b 388 1113 349 1091 362 1113 z m 964 0 l 572 989 l 401 989 l 15 0 l 169 0 l 265 257 l 710 257 l 807 0 z m 333 440 b 486 846 371 540 422 675 b 640 440 540 698 591 563 l 661 386 l 313 386 z "},"Ä":{"ha":981,"x_min":0,"x_max":0,"o":"m 286 1197 l 286 1049 l 428 1049 l 428 1197 z m 542 1197 l 542 1049 l 683 1049 l 683 1197 z m 964 0 l 572 989 l 401 989 l 15 0 l 169 0 l 265 257 l 710 257 l 807 0 z m 333 440 b 486 846 371 540 422 675 b 640 440 540 698 591 563 l 661 386 l 313 386 z "},"Å":{"ha":981,"x_min":0,"x_max":0,"o":"m 964 0 l 596 931 b 671 1075 646 964 671 1012 b 617 1203 671 1127 653 1170 b 485 1254 582 1237 538 1254 b 352 1203 432 1254 388 1237 b 299 1075 316 1170 299 1127 b 378 928 299 1012 325 963 l 15 0 l 169 0 l 265 257 l 710 257 l 807 0 z m 547 1138 b 572 1075 564 1121 572 1100 b 547 1014 572 1050 564 1030 b 485 989 531 997 510 989 b 422 1014 460 989 439 997 b 397 1075 406 1030 397 1050 b 424 1138 397 1100 406 1121 b 485 1163 440 1154 461 1163 b 547 1138 509 1163 530 1154 z m 333 440 b 486 846 371 540 422 675 b 640 440 540 698 591 563 l 661 386 l 313 386 z "},"Æ":{"ha":1443,"x_min":0,"x_max":0,"o":"m 1408 989 l 536 989 l 15 0 l 175 0 l 315 268 l 749 268 l 749 0 l 1404 0 l 1404 133 l 896 133 l 896 446 l 1356 446 l 1356 576 l 896 576 l 896 856 l 1408 856 z m 624 860 l 749 860 l 749 397 l 382 397 z "},"Ç":{"ha":989,"x_min":0,"x_max":0,"o":"m 801 365 b 703 175 790 282 757 219 b 511 110 646 131 582 110 b 283 213 416 110 340 144 b 199 494 227 282 199 376 b 283 776 199 613 227 707 b 511 879 340 845 416 879 b 692 824 582 879 643 861 b 794 661 742 788 776 733 l 944 661 b 793 924 922 777 872 864 b 511 1011 714 982 620 1011 b 174 871 372 1011 260 964 b 44 494 88 777 44 652 b 163 133 44 344 84 224 b 469 -21 240 41 343 -11 l 418 -86 l 418 -139 b 457 -137 426 -138 439 -137 b 536 -193 510 -137 536 -156 b 449 -254 536 -234 507 -254 b 368 -249 421 -254 394 -252 l 368 -317 b 457 -325 396 -322 425 -325 b 605 -290 523 -325 572 -313 b 654 -192 638 -266 654 -233 b 618 -113 654 -160 642 -134 b 522 -82 594 -92 562 -82 l 508 -82 l 563 -19 b 825 96 664 -10 752 28 b 950 365 895 161 937 250 z "},"È":{"ha":826,"x_min":0,"x_max":0,"o":"m 375 1249 l 201 1249 l 376 1049 l 496 1049 z m 792 989 l 86 989 l 86 0 l 788 0 l 788 133 l 235 133 l 235 446 l 739 446 l 739 576 l 235 576 l 235 856 l 792 856 z "},"É":{"ha":826,"x_min":0,"x_max":0,"o":"m 500 1249 l 379 1049 l 499 1049 l 674 1249 z m 792 989 l 86 989 l 86 0 l 788 0 l 788 133 l 235 133 l 235 446 l 739 446 l 739 576 l 235 576 l 235 856 l 792 856 z "},"Ê":{"ha":826,"x_min":0,"x_max":0,"o":"m 560 1049 l 692 1049 l 532 1249 l 346 1249 l 186 1049 l 319 1049 l 439 1174 z m 792 989 l 86 989 l 86 0 l 788 0 l 788 133 l 235 133 l 235 446 l 739 446 l 739 576 l 235 576 l 235 856 l 792 856 z "},"Ë":{"ha":826,"x_min":0,"x_max":0,"o":"m 240 1197 l 240 1049 l 382 1049 l 382 1197 z m 496 1197 l 496 1049 l 638 1049 l 638 1197 z m 792 989 l 86 989 l 86 0 l 788 0 l 788 133 l 235 133 l 235 446 l 739 446 l 739 576 l 235 576 l 235 856 l 792 856 z "},"Ì":{"ha":321,"x_min":0,"x_max":0,"o":"m 213 1049 l 136 1249 l -21 1249 l 106 1049 z m 235 0 l 235 989 l 86 989 l 86 0 z "},"Í":{"ha":321,"x_min":0,"x_max":0,"o":"m 340 1249 l 183 1249 l 107 1049 l 214 1049 z m 235 0 l 235 989 l 86 989 l 86 0 z "},"Î":{"ha":321,"x_min":0,"x_max":0,"o":"m 71 1249 l -61 1049 l 64 1049 l 160 1175 l 256 1049 l 381 1049 l 247 1249 z m 235 0 l 235 989 l 86 989 l 86 0 z "},"Ï":{"ha":321,"x_min":0,"x_max":0,"o":"m 118 1049 l 118 1197 l -19 1197 l -19 1049 z m 339 1049 l 339 1197 l 203 1197 l 203 1049 z m 235 0 l 235 989 l 86 989 l 86 0 z "},"Ð":{"ha":1001,"x_min":0,"x_max":0,"o":"m 114 989 l 114 557 l 0 557 l 0 458 l 114 458 l 114 0 l 467 0 b 828 132 619 0 740 44 b 957 494 914 220 957 341 b 828 857 957 648 914 769 b 467 989 740 945 619 989 z m 261 131 l 261 458 l 519 458 l 519 557 l 261 557 l 261 858 l 465 858 b 715 764 574 858 657 827 b 801 494 772 701 801 611 b 715 225 801 378 772 288 b 465 131 657 162 574 131 z "},"Ñ":{"ha":981,"x_min":0,"x_max":0,"o":"m 392 1113 b 474 1086 408 1113 436 1104 b 599 1049 529 1061 571 1049 b 729 1225 686 1049 729 1107 l 625 1225 b 586 1161 625 1182 612 1161 b 500 1189 569 1161 540 1170 b 379 1225 449 1213 409 1225 b 249 1049 292 1225 249 1166 l 353 1049 b 392 1113 353 1091 366 1113 z m 750 689 b 756 190 750 468 752 301 b 563 510 709 273 645 379 l 257 989 l 86 989 l 86 0 l 231 0 l 231 300 b 225 797 231 521 229 687 b 418 479 265 724 329 618 l 722 0 l 893 0 l 893 989 l 750 989 z "},"Ò":{"ha":1054,"x_min":0,"x_max":0,"o":"m 583 1071 l 463 1271 l 289 1271 l 464 1071 z m 528 -22 b 878 121 672 -22 789 25 b 1010 494 966 216 1010 341 b 878 869 1010 648 966 773 b 528 1011 789 964 672 1011 b 178 869 381 1011 265 964 b 44 494 89 773 44 648 b 178 121 44 340 89 215 b 528 -22 265 25 381 -22 z m 528 111 b 289 215 428 111 348 146 b 199 494 229 284 199 377 b 289 775 199 611 229 705 b 528 878 349 844 429 878 b 767 775 627 878 706 844 b 856 494 826 706 856 613 b 767 215 856 376 826 283 b 528 111 707 146 628 111 z "},"Ó":{"ha":1054,"x_min":0,"x_max":0,"o":"m 586 1071 l 761 1271 l 588 1271 l 467 1071 z m 528 -22 b 878 121 672 -22 789 25 b 1010 494 966 216 1010 341 b 878 869 1010 648 966 773 b 528 1011 789 964 672 1011 b 178 869 381 1011 265 964 b 44 494 89 773 44 648 b 178 121 44 340 89 215 b 528 -22 265 25 381 -22 z m 528 111 b 289 215 428 111 348 146 b 199 494 229 284 199 377 b 289 775 199 611 229 705 b 528 878 349 844 429 878 b 767 775 627 878 706 844 b 856 494 826 706 856 613 b 767 215 856 376 826 283 b 528 111 707 146 628 111 z "},"Ô":{"ha":1054,"x_min":0,"x_max":0,"o":"m 647 1071 l 779 1071 l 619 1271 l 433 1271 l 274 1071 l 407 1071 l 526 1196 z m 528 1011 b 178 869 381 1011 265 964 b 44 494 89 773 44 648 b 178 121 44 340 89 215 b 528 -22 265 25 381 -22 b 878 121 672 -22 789 25 b 1010 494 966 216 1010 341 b 878 869 1010 648 966 773 b 528 1011 789 964 672 1011 z m 528 111 b 289 215 428 111 348 146 b 199 494 229 284 199 377 b 289 775 199 611 229 705 b 528 878 349 844 429 878 b 767 775 627 878 706 844 b 856 494 826 706 856 613 b 767 215 856 376 826 283 b 528 111 707 146 628 111 z "},"Õ":{"ha":1054,"x_min":0,"x_max":0,"o":"m 390 1071 b 429 1135 390 1113 403 1135 b 511 1108 446 1135 473 1126 b 636 1071 567 1083 608 1071 b 767 1247 723 1071 767 1130 l 663 1247 b 624 1183 663 1205 650 1183 b 538 1211 606 1183 577 1193 b 417 1247 487 1235 446 1247 b 286 1071 330 1247 286 1188 z m 528 -22 b 878 121 672 -22 789 25 b 1010 494 966 216 1010 341 b 878 869 1010 648 966 773 b 528 1011 789 964 672 1011 b 178 869 381 1011 265 964 b 44 494 89 773 44 648 b 178 121 44 340 89 215 b 528 -22 265 25 381 -22 z m 528 111 b 289 215 428 111 348 146 b 199 494 229 284 199 377 b 289 775 199 611 229 705 b 528 878 349 844 429 878 b 767 775 627 878 706 844 b 856 494 826 706 856 613 b 767 215 856 376 826 283 b 528 111 707 146 628 111 z "},"Ö":{"ha":1054,"x_min":0,"x_max":0,"o":"m 469 1071 l 469 1219 l 328 1219 l 328 1071 z m 725 1071 l 725 1219 l 583 1219 l 583 1071 z m 528 -22 b 878 121 672 -22 789 25 b 1010 494 966 216 1010 341 b 878 869 1010 648 966 773 b 528 1011 789 964 672 1011 b 178 869 381 1011 265 964 b 44 494 89 773 44 648 b 178 121 44 340 89 215 b 528 -22 265 25 381 -22 z m 528 111 b 289 215 428 111 348 146 b 199 494 229 284 199 377 b 289 775 199 611 229 705 b 528 878 349 844 429 878 b 767 775 627 878 706 844 b 856 494 826 706 856 613 b 767 215 856 376 826 283 b 528 111 707 146 628 111 z "},"×":{"ha":735,"x_min":0,"x_max":0,"o":"m 569 782 l 368 581 l 165 782 l 79 696 l 281 494 l 79 293 l 165 207 l 368 408 l 569 207 l 656 293 l 454 494 l 656 696 z "},"Ø":{"ha":1054,"x_min":0,"x_max":0,"o":"m 950 1051 l 828 914 b 528 1011 746 979 646 1011 b 178 869 381 1011 265 964 b 44 494 89 773 44 648 b 151 150 44 358 80 244 l 24 7 l 103 -64 l 226 75 b 528 -22 308 10 408 -22 b 878 121 672 -22 789 25 b 1010 494 966 216 1010 341 b 903 839 1010 631 974 745 l 1029 981 z m 199 494 b 289 775 199 611 229 705 b 528 878 349 844 429 878 b 733 807 609 878 678 854 l 253 265 b 199 494 217 329 199 406 z m 856 494 b 767 215 856 376 826 283 b 528 111 707 146 628 111 b 321 182 445 111 376 135 l 801 724 b 856 494 838 660 856 583 z "},"Ù":{"ha":944,"x_min":0,"x_max":0,"o":"m 528 1049 l 407 1249 l 233 1249 l 408 1049 z m 472 -21 b 767 81 598 -21 696 13 b 872 369 837 149 872 245 l 872 989 l 724 989 l 724 368 b 659 175 724 283 702 219 b 472 110 616 131 554 110 b 285 175 391 110 328 131 b 221 368 242 219 221 283 l 221 989 l 72 989 l 72 369 b 178 81 72 245 107 149 b 472 -21 248 13 346 -21 z "},"Ú":{"ha":944,"x_min":0,"x_max":0,"o":"m 532 1049 l 707 1249 l 533 1249 l 413 1049 z m 472 -21 b 767 81 598 -21 696 13 b 872 369 837 149 872 245 l 872 989 l 724 989 l 724 368 b 659 175 724 283 702 219 b 472 110 616 131 554 110 b 285 175 391 110 328 131 b 221 368 242 219 221 283 l 221 989 l 72 989 l 72 369 b 178 81 72 245 107 149 b 472 -21 248 13 346 -21 z "},"Û":{"ha":944,"x_min":0,"x_max":0,"o":"m 593 1049 l 725 1049 l 565 1249 l 379 1249 l 219 1049 l 353 1049 l 472 1174 z m 724 368 b 659 175 724 283 702 219 b 472 110 616 131 554 110 b 285 175 391 110 328 131 b 221 368 242 219 221 283 l 221 989 l 72 989 l 72 369 b 178 81 72 245 107 149 b 472 -21 248 13 346 -21 b 767 81 598 -21 696 13 b 872 369 837 149 872 245 l 872 989 l 724 989 z "},"Ü":{"ha":944,"x_min":0,"x_max":0,"o":"m 414 1049 l 414 1197 l 272 1197 l 272 1049 z m 669 1049 l 669 1197 l 528 1197 l 528 1049 z m 472 -21 b 767 81 598 -21 696 13 b 872 369 837 149 872 245 l 872 989 l 724 989 l 724 368 b 659 175 724 283 702 219 b 472 110 616 131 554 110 b 285 175 391 110 328 131 b 221 368 242 219 221 283 l 221 989 l 72 989 l 72 369 b 178 81 72 245 107 149 b 472 -21 248 13 346 -21 z "},"Ý":{"ha":929,"x_min":0,"x_max":0,"o":"m 526 1249 l 406 1049 l 525 1049 l 700 1249 z m 621 782 b 468 528 566 695 515 610 b 448 562 463 537 456 548 b 419 611 440 575 430 592 b 388 663 407 631 397 648 b 314 781 353 717 329 756 l 183 989 l 15 989 l 392 394 l 392 0 l 539 0 l 539 394 l 914 989 l 749 989 z "},"Þ":{"ha":889,"x_min":0,"x_max":0,"o":"m 235 807 l 235 989 l 86 989 l 86 0 l 235 0 l 235 182 l 507 182 b 757 266 614 182 698 210 b 846 494 816 322 846 398 b 757 723 846 591 816 667 b 507 807 698 779 614 807 z m 235 313 l 235 676 l 504 676 b 646 629 566 676 613 661 b 694 494 678 598 694 553 b 646 360 694 436 678 391 b 504 313 613 328 566 313 z "},"ß":{"ha":778,"x_min":0,"x_max":0,"o":"m 550 540 b 675 757 633 589 675 662 b 593 936 675 826 648 886 b 378 1011 538 986 467 1011 b 158 931 284 1011 211 984 b 78 711 104 877 78 804 l 78 0 l 217 0 l 217 718 b 260 844 217 771 231 813 b 379 890 288 875 328 890 b 497 848 428 890 467 876 b 540 738 526 820 540 783 b 494 624 540 690 525 653 b 376 582 464 596 425 582 l 331 582 l 331 469 l 379 469 b 535 422 447 469 499 453 b 589 293 571 390 589 347 b 532 161 589 237 570 193 b 378 114 494 130 443 114 b 313 117 373 114 351 115 l 313 0 b 383 -4 340 -3 364 -4 b 638 76 490 -4 575 22 b 733 293 702 129 733 201 b 685 442 733 349 717 398 b 550 540 652 486 607 519 z "},"à":{"ha":747,"x_min":0,"x_max":0,"o":"m 314 1018 l 140 1018 l 315 818 l 435 818 z m 694 107 b 656 143 669 107 656 119 l 656 522 b 372 733 656 663 561 733 b 68 493 180 733 78 653 l 206 493 b 249 594 209 541 224 575 b 372 622 274 613 315 622 b 485 598 425 622 463 614 b 519 519 508 582 519 556 b 494 458 519 493 511 472 b 413 429 477 443 450 434 l 307 418 b 38 196 127 400 38 325 b 106 40 38 129 60 77 b 293 -17 152 2 214 -17 b 526 97 400 -17 478 21 b 566 20 531 62 544 36 b 665 -4 588 4 621 -4 b 733 0 690 -4 713 -3 l 733 107 z m 314 92 b 215 120 270 92 237 101 b 181 200 192 139 181 166 b 215 280 181 234 192 261 b 331 318 238 299 277 312 l 431 329 b 519 358 472 334 502 344 l 519 283 b 461 142 519 222 500 175 b 314 92 422 108 373 92 z "},"á":{"ha":747,"x_min":0,"x_max":0,"o":"m 438 1018 l 317 818 l 436 818 l 611 1018 z m 694 107 b 656 143 669 107 656 119 l 656 522 b 372 733 656 663 561 733 b 68 493 180 733 78 653 l 206 493 b 249 594 209 541 224 575 b 372 622 274 613 315 622 b 485 598 425 622 463 614 b 519 519 508 582 519 556 b 494 458 519 493 511 472 b 413 429 477 443 450 434 l 307 418 b 38 196 127 400 38 325 b 106 40 38 129 60 77 b 293 -17 152 2 214 -17 b 526 97 400 -17 478 21 b 566 20 531 62 544 36 b 665 -4 588 4 621 -4 b 733 0 690 -4 713 -3 l 733 107 z m 314 92 b 215 120 270 92 237 101 b 181 200 192 139 181 166 b 215 280 181 234 192 261 b 331 318 238 299 277 312 l 431 329 b 519 358 472 334 502 344 l 519 283 b 461 142 519 222 500 175 b 314 92 422 108 373 92 z "},"â":{"ha":747,"x_min":0,"x_max":0,"o":"m 493 818 l 625 818 l 465 1018 l 279 1018 l 119 818 l 253 818 l 372 942 z m 694 107 b 656 143 669 107 656 119 l 656 522 b 372 733 656 663 561 733 b 68 493 180 733 78 653 l 206 493 b 249 594 209 541 224 575 b 372 622 274 613 315 622 b 485 598 425 622 463 614 b 519 519 508 582 519 556 b 494 458 519 493 511 472 b 413 429 477 443 450 434 l 307 418 b 38 196 127 400 38 325 b 106 40 38 129 60 77 b 293 -17 152 2 214 -17 b 526 97 400 -17 478 21 b 566 20 531 62 544 36 b 665 -4 588 4 621 -4 b 733 0 690 -4 713 -3 l 733 107 z m 314 92 b 215 120 270 92 237 101 b 181 200 192 139 181 166 b 215 280 181 234 192 261 b 331 318 238 299 277 312 l 431 329 b 519 358 472 334 502 344 l 519 283 b 461 142 519 222 500 175 b 314 92 422 108 373 92 z "},"ã":{"ha":747,"x_min":0,"x_max":0,"o":"m 274 882 b 356 856 290 882 318 873 b 481 818 411 831 453 818 b 611 994 568 818 611 877 l 507 994 b 468 931 507 952 494 931 b 382 958 450 931 422 940 b 261 994 331 982 291 994 b 131 818 174 994 131 936 l 235 818 b 274 882 235 861 248 882 z m 694 107 b 656 143 669 107 656 119 l 656 522 b 372 733 656 663 561 733 b 68 493 180 733 78 653 l 206 493 b 249 594 209 541 224 575 b 372 622 274 613 315 622 b 485 598 425 622 463 614 b 519 519 508 582 519 556 b 494 458 519 493 511 472 b 413 429 477 443 450 434 l 307 418 b 38 196 127 400 38 325 b 106 40 38 129 60 77 b 293 -17 152 2 214 -17 b 526 97 400 -17 478 21 b 566 20 531 62 544 36 b 665 -4 588 4 621 -4 b 733 0 690 -4 713 -3 l 733 107 z m 314 92 b 215 120 270 92 237 101 b 181 200 192 139 181 166 b 215 280 181 234 192 261 b 331 318 238 299 277 312 l 431 329 b 519 358 472 334 502 344 l 519 283 b 461 142 519 222 500 175 b 314 92 422 108 373 92 z "},"ä":{"ha":747,"x_min":0,"x_max":0,"o":"m 172 967 l 172 818 l 314 818 l 314 967 z m 428 967 l 428 818 l 569 818 l 569 967 z m 694 107 b 656 143 669 107 656 119 l 656 522 b 372 733 656 663 561 733 b 68 493 180 733 78 653 l 206 493 b 249 594 209 541 224 575 b 372 622 274 613 315 622 b 485 598 425 622 463 614 b 519 519 508 582 519 556 b 494 458 519 493 511 472 b 413 429 477 443 450 434 l 307 418 b 38 196 127 400 38 325 b 106 40 38 129 60 77 b 293 -17 152 2 214 -17 b 526 97 400 -17 478 21 b 566 20 531 62 544 36 b 665 -4 588 4 621 -4 b 733 0 690 -4 713 -3 l 733 107 z m 314 92 b 215 120 270 92 237 101 b 181 200 192 139 181 166 b 215 280 181 234 192 261 b 331 318 238 299 277 312 l 431 329 b 519 358 472 334 502 344 l 519 283 b 461 142 519 222 500 175 b 314 92 422 108 373 92 z "},"å":{"ha":747,"x_min":0,"x_max":0,"o":"m 506 863 b 558 990 541 896 558 938 b 505 1117 558 1041 541 1084 b 372 1168 469 1151 425 1168 b 240 1117 319 1168 275 1151 b 186 990 204 1084 186 1041 b 240 863 186 938 204 896 b 372 811 275 828 319 811 b 506 863 426 811 470 828 z m 435 1053 b 460 990 451 1036 460 1015 b 435 928 460 965 451 944 b 372 903 417 911 396 903 b 311 928 348 903 328 911 b 285 990 294 944 285 965 b 310 1053 285 1015 293 1036 b 372 1076 326 1069 347 1076 b 435 1053 397 1076 418 1069 z m 694 107 b 656 143 669 107 656 119 l 656 522 b 372 733 656 663 561 733 b 68 493 180 733 78 653 l 206 493 b 249 594 209 541 224 575 b 372 622 274 613 315 622 b 485 598 425 622 463 614 b 519 519 508 582 519 556 b 494 458 519 493 511 472 b 413 429 477 443 450 434 l 307 418 b 38 196 127 400 38 325 b 106 40 38 129 60 77 b 293 -17 152 2 214 -17 b 526 97 400 -17 478 21 b 566 20 531 62 544 36 b 665 -4 588 4 621 -4 b 733 0 690 -4 713 -3 l 733 107 z m 314 92 b 215 120 270 92 237 101 b 181 200 192 139 181 166 b 215 280 181 234 192 261 b 331 318 238 299 277 312 l 431 329 b 519 358 472 334 502 344 l 519 283 b 461 142 519 222 500 175 b 314 92 422 108 373 92 z "},"æ":{"ha":1213,"x_min":0,"x_max":0,"o":"m 1167 353 b 1081 626 1167 464 1138 555 b 843 733 1023 698 944 733 b 615 638 750 733 674 701 b 372 733 575 701 494 733 b 68 493 180 733 78 653 l 206 493 b 249 594 209 541 224 575 b 372 622 274 613 315 622 b 485 598 425 622 463 614 b 519 519 508 582 519 556 b 494 458 519 493 511 472 b 413 429 477 443 450 434 l 307 418 b 38 196 127 400 38 325 b 107 40 38 129 61 77 b 299 -17 153 2 217 -17 b 583 121 422 -17 517 29 b 846 -17 643 29 730 -17 b 1044 47 925 -17 991 4 b 1150 219 1097 89 1132 146 l 1018 219 b 849 100 991 140 935 100 b 713 153 791 100 746 118 b 653 313 679 189 659 242 l 1167 313 z m 843 617 b 972 564 896 617 939 599 b 1031 422 1004 529 1024 481 l 654 422 b 716 567 663 485 683 533 b 843 617 749 600 791 617 z m 314 92 b 215 120 270 92 237 101 b 181 200 192 139 181 166 b 215 280 181 234 192 261 b 331 318 238 299 277 312 l 431 329 b 519 358 472 334 502 344 l 519 283 b 461 142 519 222 500 175 b 314 92 422 108 373 92 z "},"ç":{"ha":738,"x_min":0,"x_max":0,"o":"m 565 256 b 504 143 557 206 537 169 b 386 104 472 117 432 104 b 242 170 326 104 278 126 b 189 358 207 214 189 277 b 242 547 189 440 207 503 b 386 613 278 591 326 613 b 502 575 431 613 470 600 b 564 467 534 550 555 514 l 706 467 b 603 661 694 548 660 613 b 386 733 547 709 474 733 b 139 632 283 733 201 700 b 44 358 76 563 44 472 b 131 97 44 252 73 165 b 356 -15 188 29 263 -9 l 304 -81 l 304 -133 b 343 -132 313 -132 325 -132 b 422 -187 396 -132 422 -150 b 335 -249 422 -228 393 -249 b 254 -243 307 -249 280 -247 l 254 -311 b 343 -319 282 -317 312 -319 b 491 -284 409 -319 458 -308 b 540 -186 524 -260 540 -228 b 504 -108 540 -155 528 -128 b 408 -76 480 -87 448 -76 l 394 -76 l 451 -11 b 625 76 522 0 580 29 b 707 256 670 124 698 183 z "},"è":{"ha":771,"x_min":0,"x_max":0,"o":"m 326 1018 l 153 1018 l 328 818 l 447 818 z m 725 353 b 635 626 725 464 695 555 b 385 733 574 698 490 733 b 139 631 284 733 202 699 b 44 358 76 562 44 471 b 139 86 44 245 76 155 b 388 -17 202 18 285 -17 b 595 47 470 -17 539 4 b 708 219 651 89 689 146 l 568 219 b 390 100 540 140 481 100 b 247 153 330 100 282 118 b 185 313 212 189 191 242 l 725 313 z m 385 617 b 520 563 440 617 485 599 b 582 422 555 528 575 481 l 186 422 b 251 567 194 485 216 533 b 385 617 285 600 330 617 z "},"é":{"ha":771,"x_min":0,"x_max":0,"o":"m 451 1018 l 331 818 l 450 818 l 625 1018 z m 725 353 b 635 626 725 464 695 555 b 385 733 574 698 490 733 b 139 631 284 733 202 699 b 44 358 76 562 44 471 b 139 86 44 245 76 155 b 388 -17 202 18 285 -17 b 595 47 470 -17 539 4 b 708 219 651 89 689 146 l 568 219 b 390 100 540 140 481 100 b 247 153 330 100 282 118 b 185 313 212 189 191 242 l 725 313 z m 385 617 b 520 563 440 617 485 599 b 582 422 555 528 575 481 l 186 422 b 251 567 194 485 216 533 b 385 617 285 600 330 617 z "},"ê":{"ha":771,"x_min":0,"x_max":0,"o":"m 506 818 l 638 818 l 478 1018 l 292 1018 l 132 818 l 265 818 l 385 942 z m 725 353 b 635 626 725 464 695 555 b 385 733 574 698 490 733 b 139 631 284 733 202 699 b 44 358 76 562 44 471 b 139 86 44 245 76 155 b 388 -17 202 18 285 -17 b 595 47 470 -17 539 4 b 708 219 651 89 689 146 l 568 219 b 390 100 540 140 481 100 b 247 153 330 100 282 118 b 185 313 212 189 191 242 l 725 313 z m 385 617 b 520 563 440 617 485 599 b 582 422 555 528 575 481 l 186 422 b 251 567 194 485 216 533 b 385 617 285 600 330 617 z "},"ë":{"ha":771,"x_min":0,"x_max":0,"o":"m 186 967 l 186 818 l 328 818 l 328 967 z m 442 967 l 442 818 l 583 818 l 583 967 z m 725 353 b 635 626 725 464 695 555 b 385 733 574 698 490 733 b 139 631 284 733 202 699 b 44 358 76 562 44 471 b 139 86 44 245 76 155 b 388 -17 202 18 285 -17 b 595 47 470 -17 539 4 b 708 219 651 89 689 146 l 568 219 b 390 100 540 140 481 100 b 247 153 330 100 282 118 b 185 313 212 189 191 242 l 725 313 z m 385 617 b 520 563 440 617 485 599 b 582 422 555 528 575 481 l 186 422 b 251 567 194 485 216 533 b 385 617 285 600 330 617 z "},"ì":{"ha":294,"x_min":0,"x_max":0,"o":"m 200 818 l 124 1018 l -33 1018 l 93 818 z m 217 0 l 217 717 l 78 717 l 78 0 z "},"í":{"ha":294,"x_min":0,"x_max":0,"o":"m 203 818 l 329 1018 l 172 1018 l 96 818 z m 217 0 l 217 717 l 78 717 l 78 0 z "},"î":{"ha":294,"x_min":0,"x_max":0,"o":"m 58 1018 l -74 818 l 51 818 l 147 943 l 243 818 l 368 818 l 235 1018 z m 217 0 l 217 717 l 78 717 l 78 0 z "},"ï":{"ha":294,"x_min":0,"x_max":0,"o":"m 106 818 l 106 967 l -32 967 l -32 818 z m 326 818 l 326 967 l 190 967 l 190 818 z m 217 0 l 217 717 l 78 717 l 78 0 z "},"ð":{"ha":796,"x_min":0,"x_max":0,"o":"m 676 894 l 676 996 l 464 929 l 407 989 l 249 989 l 342 892 l 207 850 l 207 750 l 415 814 b 531 665 454 772 493 723 b 396 703 490 690 445 703 b 142 604 292 703 207 670 b 44 344 77 539 44 453 b 144 83 44 235 78 148 b 400 -17 209 17 294 -17 b 656 85 506 -17 591 17 b 751 367 719 152 751 246 b 535 851 751 518 679 679 z m 400 103 b 246 167 335 103 284 124 b 189 343 208 210 189 269 b 246 520 189 418 208 477 b 400 585 284 563 335 585 b 553 520 465 585 516 563 b 610 343 591 477 610 418 b 553 167 610 269 591 210 b 400 103 515 124 464 103 z "},"ñ":{"ha":767,"x_min":0,"x_max":0,"o":"m 286 882 b 368 856 303 882 330 873 b 493 818 424 831 465 818 b 624 994 580 818 624 877 l 519 994 b 481 931 519 952 506 931 b 394 958 463 931 434 940 b 274 994 344 982 303 994 b 143 818 187 994 143 936 l 247 818 b 286 882 247 861 260 882 z m 436 733 b 211 610 341 733 266 692 l 211 717 l 78 717 l 78 0 l 217 0 l 217 404 b 272 558 217 471 235 522 b 397 611 309 594 351 611 b 549 461 498 611 549 561 l 549 0 l 688 0 l 688 481 b 621 667 688 561 665 623 b 436 733 576 711 515 733 z "},"ò":{"ha":799,"x_min":0,"x_max":0,"o":"m 461 818 l 340 1018 l 167 1018 l 342 818 z m 657 86 b 754 358 722 154 754 244 b 657 632 754 473 722 564 b 400 733 592 700 506 733 b 143 632 294 733 208 700 b 44 358 77 563 44 472 b 143 86 44 245 77 155 b 400 -17 209 18 294 -17 b 657 86 506 -17 591 18 z m 400 103 b 246 171 335 103 284 125 b 189 358 208 216 189 279 b 246 546 189 438 208 500 b 400 614 284 591 335 614 b 553 546 465 614 516 591 b 610 358 591 500 610 438 b 553 171 610 279 591 216 b 400 103 516 125 465 103 z "},"ó":{"ha":799,"x_min":0,"x_max":0,"o":"m 464 818 l 639 1018 l 465 1018 l 344 818 z m 657 86 b 754 358 722 154 754 244 b 657 632 754 473 722 564 b 400 733 592 700 506 733 b 143 632 294 733 208 700 b 44 358 77 563 44 472 b 143 86 44 245 77 155 b 400 -17 209 18 294 -17 b 657 86 506 -17 591 18 z m 400 103 b 246 171 335 103 284 125 b 189 358 208 216 189 279 b 246 546 189 438 208 500 b 400 614 284 591 335 614 b 553 546 465 614 516 591 b 610 358 591 500 610 438 b 553 171 610 279 591 216 b 400 103 516 125 465 103 z "},"ô":{"ha":799,"x_min":0,"x_max":0,"o":"m 519 818 l 651 818 l 492 1018 l 306 1018 l 146 818 l 279 818 l 399 942 z m 143 632 b 44 358 77 563 44 472 b 143 86 44 245 77 155 b 400 -17 209 18 294 -17 b 657 86 506 -17 591 18 b 754 358 722 154 754 244 b 657 632 754 473 722 564 b 400 733 592 700 506 733 b 143 632 294 733 208 700 z m 400 103 b 246 171 335 103 284 125 b 189 358 208 216 189 279 b 246 546 189 438 208 500 b 400 614 284 591 335 614 b 553 546 465 614 516 591 b 610 358 591 500 610 438 b 553 171 610 279 591 216 b 400 103 516 125 465 103 z "},"õ":{"ha":799,"x_min":0,"x_max":0,"o":"m 263 818 b 301 882 263 861 275 882 b 383 856 318 882 345 873 b 508 818 439 831 481 818 b 639 994 595 818 639 877 l 535 994 b 496 931 535 952 522 931 b 410 958 478 931 450 940 b 289 994 359 982 319 994 b 158 818 202 994 158 936 z m 657 86 b 754 358 722 154 754 244 b 657 632 754 473 722 564 b 400 733 592 700 506 733 b 143 632 294 733 208 700 b 44 358 77 563 44 472 b 143 86 44 245 77 155 b 400 -17 209 18 294 -17 b 657 86 506 -17 591 18 z m 400 103 b 246 171 335 103 284 125 b 189 358 208 216 189 279 b 246 546 189 438 208 500 b 400 614 284 591 335 614 b 553 546 465 614 516 591 b 610 358 591 500 610 438 b 553 171 610 279 591 216 b 400 103 516 125 465 103 z "},"ö":{"ha":799,"x_min":0,"x_max":0,"o":"m 342 818 l 342 967 l 200 967 l 200 818 z m 597 818 l 597 967 l 456 967 l 456 818 z m 657 86 b 754 358 722 154 754 244 b 657 632 754 473 722 564 b 400 733 592 700 506 733 b 143 632 294 733 208 700 b 44 358 77 563 44 472 b 143 86 44 245 77 155 b 400 -17 209 18 294 -17 b 657 86 506 -17 591 18 z m 400 103 b 246 171 335 103 284 125 b 189 358 208 216 189 279 b 246 546 189 438 208 500 b 400 614 284 591 335 614 b 553 546 465 614 516 591 b 610 358 591 500 610 438 b 553 171 610 279 591 216 b 400 103 516 125 465 103 z "},"÷":{"ha":735,"x_min":0,"x_max":0,"o":"m 435 671 l 435 814 l 300 814 l 300 671 z m 683 433 l 683 556 l 51 556 l 51 433 z m 435 176 l 435 318 l 300 318 l 300 176 z "},"ø":{"ha":797,"x_min":0,"x_max":0,"o":"m 697 774 l 608 672 b 400 733 548 713 479 733 b 143 632 294 733 208 700 b 44 358 77 563 44 472 b 121 111 44 258 70 176 l 29 6 l 101 -58 l 190 44 b 400 -17 252 4 322 -17 b 657 86 506 -17 591 18 b 754 358 722 154 754 244 b 678 606 754 458 729 541 l 768 710 z m 186 358 b 243 549 186 440 205 503 b 400 617 281 594 333 617 b 526 578 450 617 492 604 l 213 217 b 186 358 195 256 186 303 z m 613 358 b 556 167 613 276 594 212 b 400 100 519 122 467 100 b 274 139 350 100 308 113 l 586 500 b 613 358 604 461 613 414 z "},"ù":{"ha":767,"x_min":0,"x_max":0,"o":"m 318 1018 l 144 1018 l 319 818 l 439 818 z m 549 313 b 497 160 549 248 531 197 b 368 106 462 124 419 106 b 217 256 267 106 217 156 l 217 717 l 78 717 l 78 236 b 144 50 78 156 100 94 b 329 -17 189 6 250 -17 b 554 107 425 -17 500 25 l 554 0 l 688 0 l 688 717 l 549 717 z "},"ú":{"ha":767,"x_min":0,"x_max":0,"o":"m 442 1018 l 321 818 l 440 818 l 615 1018 z m 549 313 b 497 160 549 248 531 197 b 368 106 462 124 419 106 b 217 256 267 106 217 156 l 217 717 l 78 717 l 78 236 b 144 50 78 156 100 94 b 329 -17 189 6 250 -17 b 554 107 425 -17 500 25 l 554 0 l 688 0 l 688 717 l 549 717 z "},"û":{"ha":767,"x_min":0,"x_max":0,"o":"m 497 818 l 629 818 l 469 1018 l 283 1018 l 124 818 l 257 818 l 376 942 z m 549 313 b 497 160 549 248 531 197 b 368 106 462 124 419 106 b 217 256 267 106 217 156 l 217 717 l 78 717 l 78 236 b 144 50 78 156 100 94 b 329 -17 189 6 250 -17 b 554 107 425 -17 500 25 l 554 0 l 688 0 l 688 717 l 549 717 z "},"ü":{"ha":767,"x_min":0,"x_max":0,"o":"m 176 967 l 176 818 l 318 818 l 318 967 z m 432 967 l 432 818 l 574 818 l 574 967 z m 549 313 b 497 160 549 248 531 197 b 368 106 462 124 419 106 b 217 256 267 106 217 156 l 217 717 l 78 717 l 78 236 b 144 50 78 156 100 94 b 329 -17 189 6 250 -17 b 554 107 425 -17 500 25 l 554 0 l 688 0 l 688 717 l 549 717 z "},"ý":{"ha":692,"x_min":0,"x_max":0,"o":"m 414 1018 l 293 818 l 413 818 l 588 1018 z m 456 471 b 347 128 419 360 383 245 b 240 471 320 219 285 334 l 157 717 l 6 717 l 271 -19 b 260 -47 268 -26 265 -35 b 251 -74 256 -59 253 -68 b 126 -160 230 -131 188 -160 l 57 -160 l 57 -272 b 129 -276 80 -275 104 -276 b 299 -235 202 -276 259 -262 b 394 -90 338 -207 370 -159 l 686 717 l 539 717 z "},"þ":{"ha":822,"x_min":0,"x_max":0,"o":"m 450 733 b 218 619 349 733 272 695 l 218 989 l 78 989 l 78 -272 l 218 -272 l 218 97 b 450 -17 272 21 349 -17 b 689 85 550 -17 630 17 b 778 358 748 152 778 244 b 689 632 778 473 748 564 b 450 733 630 700 550 733 z m 271 171 b 214 358 233 216 214 279 b 271 547 214 438 233 501 b 424 614 309 592 360 614 b 578 549 489 614 541 592 b 633 364 615 505 633 444 b 578 172 633 281 615 218 b 424 103 540 126 488 103 b 271 171 359 103 308 125 z "},"ÿ":{"ha":692,"x_min":0,"x_max":0,"o":"m 149 967 l 149 818 l 290 818 l 290 967 z m 404 967 l 404 818 l 546 818 l 546 967 z m 456 471 b 347 128 419 360 383 245 b 240 471 320 219 285 334 l 157 717 l 6 717 l 271 -19 b 260 -47 268 -26 265 -35 b 251 -74 256 -59 253 -68 b 126 -160 230 -131 188 -160 l 57 -160 l 57 -272 b 129 -276 80 -275 104 -276 b 299 -235 202 -276 259 -262 b 394 -90 338 -207 370 -159 l 686 717 l 539 717 z "},"Ā":{"ha":981,"x_min":0,"x_max":0,"o":"m 275 1154 l 275 1049 l 694 1049 l 694 1154 z m 964 0 l 572 989 l 401 989 l 15 0 l 169 0 l 265 257 l 710 257 l 807 0 z m 333 440 b 486 846 371 540 422 675 b 640 440 540 698 591 563 l 661 386 l 313 386 z "},"ā":{"ha":747,"x_min":0,"x_max":0,"o":"m 163 924 l 163 818 l 582 818 l 582 924 z m 694 107 b 656 143 669 107 656 119 l 656 522 b 372 733 656 663 561 733 b 68 493 180 733 78 653 l 206 493 b 249 594 209 541 224 575 b 372 622 274 613 315 622 b 485 598 425 622 463 614 b 519 519 508 582 519 556 b 494 458 519 493 511 472 b 413 429 477 443 450 434 l 307 418 b 38 196 127 400 38 325 b 106 40 38 129 60 77 b 293 -17 152 2 214 -17 b 526 97 400 -17 478 21 b 566 20 531 62 544 36 b 665 -4 588 4 621 -4 b 733 0 690 -4 713 -3 l 733 107 z m 314 92 b 215 120 270 92 237 101 b 181 200 192 139 181 166 b 215 280 181 234 192 261 b 331 318 238 299 277 312 l 431 329 b 519 358 472 334 502 344 l 519 283 b 461 142 519 222 500 175 b 314 92 422 108 373 92 z "},"Ă":{"ha":981,"x_min":0,"x_max":0,"o":"m 638 1097 b 707 1249 676 1134 700 1185 l 596 1249 b 560 1170 592 1215 580 1189 b 485 1142 541 1151 515 1142 b 374 1249 418 1142 381 1177 l 263 1249 b 331 1097 266 1187 289 1136 b 485 1042 370 1060 422 1042 b 638 1097 547 1042 598 1060 z m 964 0 l 572 989 l 401 989 l 15 0 l 169 0 l 265 257 l 710 257 l 807 0 z m 333 440 b 486 846 371 540 422 675 b 640 440 540 698 591 563 l 661 386 l 313 386 z "},"ă":{"ha":747,"x_min":0,"x_max":0,"o":"m 525 867 b 594 1018 564 904 587 954 l 483 1018 b 448 940 480 985 468 959 b 372 911 428 921 403 911 b 261 1018 306 911 269 947 l 150 1018 b 218 867 154 956 176 906 b 372 811 258 830 309 811 b 525 867 434 811 485 830 z m 694 107 b 656 143 669 107 656 119 l 656 522 b 372 733 656 663 561 733 b 68 493 180 733 78 653 l 206 493 b 249 594 209 541 224 575 b 372 622 274 613 315 622 b 485 598 425 622 463 614 b 519 519 508 582 519 556 b 494 458 519 493 511 472 b 413 429 477 443 450 434 l 307 418 b 38 196 127 400 38 325 b 106 40 38 129 60 77 b 293 -17 152 2 214 -17 b 526 97 400 -17 478 21 b 566 20 531 62 544 36 b 665 -4 588 4 621 -4 b 733 0 690 -4 713 -3 l 733 107 z m 314 92 b 215 120 270 92 237 101 b 181 200 192 139 181 166 b 215 280 181 234 192 261 b 331 318 238 299 277 312 l 431 329 b 519 358 472 334 502 344 l 519 283 b 461 142 519 222 500 175 b 314 92 422 108 373 92 z "},"Ą":{"ha":981,"x_min":0,"x_max":0,"o":"m 822 -135 b 964 0 822 -91 869 -46 l 572 989 l 401 989 l 15 0 l 169 0 l 265 257 l 710 257 l 807 0 l 846 0 b 741 -67 801 -16 766 -38 b 703 -158 716 -97 703 -127 b 749 -254 703 -199 718 -231 b 868 -289 780 -277 820 -289 b 964 -275 910 -289 942 -284 l 964 -178 b 892 -190 944 -186 919 -190 b 822 -135 845 -190 822 -172 z m 333 440 b 486 846 371 540 422 675 b 640 440 540 698 591 563 l 661 386 l 313 386 z "},"ą":{"ha":747,"x_min":0,"x_max":0,"o":"m 733 107 l 694 107 b 656 143 669 107 656 119 l 656 522 b 372 733 656 663 561 733 b 68 493 180 733 78 653 l 206 493 b 249 594 209 541 224 575 b 372 622 274 613 315 622 b 485 598 425 622 463 614 b 519 519 508 582 519 556 b 494 458 519 493 511 472 b 413 429 477 443 450 434 l 307 418 b 38 196 127 400 38 325 b 106 40 38 129 60 77 b 293 -17 152 2 214 -17 b 526 97 400 -17 478 21 b 611 1 533 44 561 13 b 471 -160 518 -40 471 -94 b 518 -254 471 -200 487 -231 b 638 -289 550 -277 589 -289 b 733 -275 676 -289 708 -284 l 733 -178 b 661 -190 709 -186 685 -190 b 592 -135 615 -190 592 -172 b 733 0 592 -89 639 -44 z m 314 92 b 215 120 270 92 237 101 b 181 200 192 139 181 166 b 215 280 181 234 192 261 b 331 318 238 299 277 312 l 431 329 b 519 358 472 334 502 344 l 519 283 b 461 142 519 222 500 175 b 314 92 422 108 373 92 z "},"Ć":{"ha":989,"x_min":0,"x_max":0,"o":"m 571 1071 l 746 1271 l 572 1271 l 451 1071 z m 511 -22 b 807 79 626 -22 725 12 b 950 365 890 147 938 242 l 801 365 b 703 175 790 282 757 219 b 511 110 646 131 582 110 b 283 213 416 110 340 144 b 199 494 227 282 199 376 b 283 776 199 613 227 707 b 511 879 340 845 416 879 b 692 824 582 879 643 861 b 794 661 742 788 776 733 l 944 661 b 793 924 922 777 872 864 b 511 1011 714 982 620 1011 b 174 871 372 1011 260 964 b 44 494 88 777 44 652 b 175 118 44 336 88 211 b 511 -22 261 25 373 -22 z "},"ć":{"ha":738,"x_min":0,"x_max":0,"o":"m 450 818 l 625 1018 l 451 1018 l 331 818 z m 386 -17 b 603 57 472 -17 544 8 b 707 256 661 106 696 172 l 565 256 b 504 143 557 206 537 169 b 386 104 472 117 432 104 b 242 170 326 104 278 126 b 189 358 207 214 189 277 b 242 547 189 440 207 503 b 386 613 278 591 326 613 b 502 575 431 613 470 600 b 564 467 534 550 555 514 l 706 467 b 603 661 694 548 660 613 b 386 733 547 709 474 733 b 139 632 283 733 201 700 b 44 358 76 563 44 472 b 139 86 44 245 76 155 b 386 -17 202 18 284 -17 z "},"Ĉ":{"ha":989,"x_min":0,"x_max":0,"o":"m 632 1071 l 764 1071 l 604 1271 l 418 1271 l 258 1071 l 392 1071 l 511 1196 z m 801 365 b 703 175 790 282 757 219 b 511 110 646 131 582 110 b 283 213 416 110 340 144 b 199 494 227 282 199 376 b 283 776 199 613 227 707 b 511 879 340 845 416 879 b 692 824 582 879 643 861 b 794 661 742 788 776 733 l 944 661 b 793 924 922 777 872 864 b 511 1011 714 982 620 1011 b 174 871 372 1011 260 964 b 44 494 88 777 44 652 b 175 118 44 336 88 211 b 511 -22 261 25 373 -22 b 807 79 626 -22 725 12 b 950 365 890 147 938 242 z "},"ĉ":{"ha":738,"x_min":0,"x_max":0,"o":"m 507 818 l 639 818 l 479 1018 l 293 1018 l 133 818 l 267 818 l 386 942 z m 565 256 b 504 143 557 206 537 169 b 386 104 472 117 432 104 b 242 170 326 104 278 126 b 189 358 207 214 189 277 b 242 547 189 440 207 503 b 386 613 278 591 326 613 b 502 575 431 613 470 600 b 564 467 534 550 555 514 l 706 467 b 603 661 694 548 660 613 b 386 733 547 709 474 733 b 139 632 283 733 201 700 b 44 358 76 563 44 472 b 139 86 44 245 76 155 b 386 -17 202 18 284 -17 b 603 57 472 -17 544 8 b 707 256 661 106 696 172 z "},"Ċ":{"ha":989,"x_min":0,"x_max":0,"o":"m 582 1071 l 582 1219 l 438 1219 l 438 1071 z m 511 -22 b 807 79 626 -22 725 12 b 950 365 890 147 938 242 l 801 365 b 703 175 790 282 757 219 b 511 110 646 131 582 110 b 283 213 416 110 340 144 b 199 494 227 282 199 376 b 283 776 199 613 227 707 b 511 879 340 845 416 879 b 692 824 582 879 643 861 b 794 661 742 788 776 733 l 944 661 b 793 924 922 777 872 864 b 511 1011 714 982 620 1011 b 174 871 372 1011 260 964 b 44 494 88 777 44 652 b 175 118 44 336 88 211 b 511 -22 261 25 373 -22 z "},"ċ":{"ha":738,"x_min":0,"x_max":0,"o":"m 457 818 l 457 967 l 313 967 l 313 818 z m 386 -17 b 603 57 472 -17 544 8 b 707 256 661 106 696 172 l 565 256 b 504 143 557 206 537 169 b 386 104 472 117 432 104 b 242 170 326 104 278 126 b 189 358 207 214 189 277 b 242 547 189 440 207 503 b 386 613 278 591 326 613 b 502 575 431 613 470 600 b 564 467 534 550 555 514 l 706 467 b 603 661 694 548 660 613 b 386 733 547 709 474 733 b 139 632 283 733 201 700 b 44 358 76 563 44 472 b 139 86 44 245 76 155 b 386 -17 202 18 284 -17 z "},"Č":{"ha":989,"x_min":0,"x_max":0,"o":"m 764 1271 l 631 1271 l 511 1146 l 390 1271 l 258 1271 l 418 1071 l 604 1071 z m 801 365 b 703 175 790 282 757 219 b 511 110 646 131 582 110 b 283 213 416 110 340 144 b 199 494 227 282 199 376 b 283 776 199 613 227 707 b 511 879 340 845 416 879 b 692 824 582 879 643 861 b 794 661 742 788 776 733 l 944 661 b 793 924 922 777 872 864 b 511 1011 714 982 620 1011 b 174 871 372 1011 260 964 b 44 494 88 777 44 652 b 175 118 44 336 88 211 b 511 -22 261 25 373 -22 b 807 79 626 -22 725 12 b 950 365 890 147 938 242 z "},"č":{"ha":738,"x_min":0,"x_max":0,"o":"m 639 1017 l 506 1017 l 386 893 l 265 1017 l 133 1017 l 293 817 l 479 817 z m 565 256 b 504 143 557 206 537 169 b 386 104 472 117 432 104 b 242 170 326 104 278 126 b 189 358 207 214 189 277 b 242 547 189 440 207 503 b 386 613 278 591 326 613 b 502 575 431 613 470 600 b 564 467 534 550 555 514 l 706 467 b 603 661 694 548 660 613 b 386 733 547 709 474 733 b 139 632 283 733 201 700 b 44 358 76 563 44 472 b 139 86 44 245 76 155 b 386 -17 202 18 284 -17 b 603 57 472 -17 544 8 b 707 256 661 106 696 172 z "},"Ď":{"ha":974,"x_min":0,"x_max":0,"o":"m 725 1249 l 592 1249 l 472 1124 l 351 1249 l 219 1249 l 379 1049 l 565 1049 z m 86 989 l 86 0 l 439 0 b 800 132 592 0 712 44 b 929 494 886 220 929 341 b 800 857 929 648 886 769 b 439 989 712 945 592 989 z m 235 131 l 235 858 l 438 858 b 687 764 546 858 629 827 b 774 494 745 701 774 611 b 687 225 774 378 745 288 b 438 131 629 162 546 131 z "},"ď":{"ha":982,"x_min":0,"x_max":0,"o":"m 604 619 b 372 733 550 695 473 733 b 133 632 272 733 193 700 b 44 358 74 564 44 473 b 133 85 44 244 74 152 b 372 -17 193 17 272 -17 b 610 106 477 -17 556 24 l 610 0 l 743 0 l 743 989 l 604 989 z m 796 758 l 896 758 l 996 989 l 844 989 z m 246 168 b 189 353 208 212 189 273 b 246 544 189 434 208 498 b 399 614 284 591 335 614 b 553 547 464 614 516 592 b 608 358 590 502 608 439 b 553 171 608 277 590 214 b 399 103 516 125 464 103 b 246 168 335 103 284 125 z "},"Đ":{"ha":1001,"x_min":0,"x_max":0,"o":"m 114 989 l 114 557 l 0 557 l 0 458 l 114 458 l 114 0 l 467 0 b 828 132 619 0 740 44 b 957 494 914 220 957 341 b 828 857 957 648 914 769 b 467 989 740 945 619 989 z m 261 131 l 261 458 l 519 458 l 519 557 l 261 557 l 261 858 l 465 858 b 715 764 574 858 657 827 b 801 494 772 701 801 611 b 715 225 801 378 772 288 b 465 131 657 162 574 131 z "},"đ":{"ha":858,"x_min":0,"x_max":0,"o":"m 743 904 l 743 989 l 604 989 l 604 904 l 446 904 l 446 806 l 604 806 l 604 619 b 372 733 550 695 473 733 b 133 632 272 733 193 700 b 44 358 74 564 44 473 b 133 85 44 244 74 152 b 372 -17 193 17 272 -17 b 610 106 477 -17 556 24 l 610 0 l 743 0 l 743 806 l 858 806 l 858 904 z m 246 168 b 189 353 208 212 189 273 b 246 544 189 434 208 498 b 399 614 284 591 335 614 b 553 547 464 614 516 592 b 608 358 590 502 608 439 b 553 171 608 277 590 214 b 399 103 516 125 464 103 b 246 168 335 103 284 125 z "},"Ē":{"ha":826,"x_min":0,"x_max":0,"o":"m 231 1154 l 231 1049 l 650 1049 l 650 1154 z m 792 989 l 86 989 l 86 0 l 788 0 l 788 133 l 235 133 l 235 446 l 739 446 l 739 576 l 235 576 l 235 856 l 792 856 z "},"ē":{"ha":771,"x_min":0,"x_max":0,"o":"m 175 924 l 175 818 l 594 818 l 594 924 z m 725 353 b 635 626 725 464 695 555 b 385 733 574 698 490 733 b 139 631 284 733 202 699 b 44 358 76 562 44 471 b 139 86 44 245 76 155 b 388 -17 202 18 285 -17 b 595 47 470 -17 539 4 b 708 219 651 89 689 146 l 568 219 b 390 100 540 140 481 100 b 247 153 330 100 282 118 b 185 313 212 189 191 242 l 725 313 z m 385 617 b 520 563 440 617 485 599 b 582 422 555 528 575 481 l 186 422 b 251 567 194 485 216 533 b 385 617 285 600 330 617 z "},"Ĕ":{"ha":826,"x_min":0,"x_max":0,"o":"m 593 1097 b 663 1249 632 1134 655 1185 l 551 1249 b 516 1170 548 1215 536 1189 b 440 1142 496 1151 471 1142 b 329 1249 374 1142 337 1177 l 218 1249 b 286 1097 222 1187 244 1136 b 440 1042 326 1060 377 1042 b 593 1097 502 1042 553 1060 z m 792 989 l 86 989 l 86 0 l 788 0 l 788 133 l 235 133 l 235 446 l 739 446 l 739 576 l 235 576 l 235 856 l 792 856 z "},"ĕ":{"ha":771,"x_min":0,"x_max":0,"o":"m 538 867 b 607 1018 576 904 600 954 l 496 1018 b 460 940 492 985 480 959 b 385 911 441 921 415 911 b 274 1018 318 911 281 947 l 163 1018 b 231 867 166 956 189 906 b 385 811 270 830 322 811 b 538 867 447 811 498 830 z m 725 353 b 635 626 725 464 695 555 b 385 733 574 698 490 733 b 139 631 284 733 202 699 b 44 358 76 562 44 471 b 139 86 44 245 76 155 b 388 -17 202 18 285 -17 b 595 47 470 -17 539 4 b 708 219 651 89 689 146 l 568 219 b 390 100 540 140 481 100 b 247 153 330 100 282 118 b 185 313 212 189 191 242 l 725 313 z m 385 617 b 520 563 440 617 485 599 b 582 422 555 528 575 481 l 186 422 b 251 567 194 485 216 533 b 385 617 285 600 330 617 z "},"Ė":{"ha":826,"x_min":0,"x_max":0,"o":"m 367 1197 l 367 1049 l 511 1049 l 511 1197 z m 792 989 l 86 989 l 86 0 l 788 0 l 788 133 l 235 133 l 235 446 l 739 446 l 739 576 l 235 576 l 235 856 l 792 856 z "},"ė":{"ha":771,"x_min":0,"x_max":0,"o":"m 313 967 l 313 818 l 457 818 l 457 967 z m 725 353 b 635 626 725 464 695 555 b 385 733 574 698 490 733 b 139 631 284 733 202 699 b 44 358 76 562 44 471 b 139 86 44 245 76 155 b 388 -17 202 18 285 -17 b 595 47 470 -17 539 4 b 708 219 651 89 689 146 l 568 219 b 390 100 540 140 481 100 b 247 153 330 100 282 118 b 185 313 212 189 191 242 l 725 313 z m 385 617 b 520 563 440 617 485 599 b 582 422 555 528 575 481 l 186 422 b 251 567 194 485 216 533 b 385 617 285 600 330 617 z "},"Ę":{"ha":826,"x_min":0,"x_max":0,"o":"m 792 989 l 86 989 l 86 0 l 669 0 b 565 -67 625 -16 590 -38 b 526 -158 539 -97 526 -127 b 573 -254 526 -199 542 -231 b 692 -289 604 -277 644 -289 b 788 -275 733 -289 765 -284 l 788 -178 b 715 -190 766 -186 742 -190 b 646 -135 669 -190 646 -172 b 788 0 646 -91 693 -46 l 788 133 l 235 133 l 235 446 l 739 446 l 739 576 l 235 576 l 235 856 l 792 856 z "},"ę":{"ha":771,"x_min":0,"x_max":0,"o":"m 725 353 b 635 626 725 464 695 555 b 385 733 574 698 490 733 b 139 631 284 733 202 699 b 44 358 76 562 44 471 b 128 99 44 252 72 165 b 349 -15 183 33 257 -5 b 269 -78 315 -32 289 -53 b 240 -158 250 -104 240 -131 b 287 -254 240 -199 256 -231 b 406 -289 318 -277 357 -289 b 501 -275 447 -289 479 -284 l 501 -178 b 429 -190 480 -186 456 -190 b 360 -135 383 -190 360 -172 b 499 -1 360 -91 406 -47 b 633 80 552 14 597 41 b 708 219 669 118 694 165 l 568 219 b 390 100 540 140 481 100 b 247 153 330 100 282 118 b 185 313 212 189 191 242 l 725 313 z m 385 617 b 520 563 440 617 485 599 b 582 422 555 528 575 481 l 186 422 b 251 567 194 485 216 533 b 385 617 285 600 330 617 z "},"Ě":{"ha":826,"x_min":0,"x_max":0,"o":"m 692 1249 l 558 1249 l 439 1124 l 318 1249 l 186 1249 l 346 1049 l 532 1049 z m 792 989 l 86 989 l 86 0 l 788 0 l 788 133 l 235 133 l 235 446 l 739 446 l 739 576 l 235 576 l 235 856 l 792 856 z "},"ě":{"ha":771,"x_min":0,"x_max":0,"o":"m 638 1017 l 504 1017 l 385 893 l 264 1017 l 132 1017 l 292 817 l 478 817 z m 725 353 b 635 626 725 464 695 555 b 385 733 574 698 490 733 b 139 631 284 733 202 699 b 44 358 76 562 44 471 b 139 86 44 245 76 155 b 388 -17 202 18 285 -17 b 595 47 470 -17 539 4 b 708 219 651 89 689 146 l 568 219 b 390 100 540 140 481 100 b 247 153 330 100 282 118 b 185 313 212 189 191 242 l 725 313 z m 385 617 b 520 563 440 617 485 599 b 582 422 555 528 575 481 l 186 422 b 251 567 194 485 216 533 b 385 617 285 600 330 617 z "},"Ĝ":{"ha":1049,"x_min":0,"x_max":0,"o":"m 643 1071 l 775 1071 l 615 1271 l 429 1271 l 269 1071 l 403 1071 l 522 1196 z m 546 393 l 838 393 b 744 190 835 311 804 243 b 526 110 685 137 613 110 b 288 214 427 110 348 144 b 199 494 228 282 199 376 b 288 775 199 613 228 706 b 524 879 346 844 425 879 b 713 821 598 879 661 860 b 813 663 766 782 799 729 l 965 663 b 824 917 950 768 902 853 b 522 1011 744 980 644 1011 b 175 869 377 1011 261 964 b 44 494 88 776 44 651 b 174 121 44 340 88 215 b 514 -22 258 25 371 -22 b 836 132 655 -22 762 29 l 863 0 l 976 0 l 976 519 l 546 519 z "},"ĝ":{"ha":822,"x_min":0,"x_max":0,"o":"m 524 818 l 656 818 l 496 1018 l 310 1018 l 150 818 l 283 818 l 403 942 z m 610 615 b 372 733 556 694 477 733 b 135 632 273 733 194 700 b 44 363 75 563 44 474 b 135 93 44 251 75 162 b 374 -8 194 25 274 -8 b 604 103 473 -8 550 29 l 604 24 b 403 -176 604 -110 537 -176 b 224 -50 294 -176 235 -134 l 85 -50 b 178 -225 92 -124 123 -182 b 401 -289 234 -268 308 -289 b 654 -205 511 -289 595 -261 b 743 26 713 -149 743 -72 l 743 717 l 610 717 z m 399 111 b 246 178 335 111 284 134 b 189 363 208 223 189 285 b 246 546 189 439 208 500 b 399 614 284 591 335 614 b 552 547 463 614 515 591 b 608 363 590 502 608 440 b 552 178 608 285 590 223 b 399 111 515 134 463 111 z "},"Ğ":{"ha":1049,"x_min":0,"x_max":0,"o":"m 675 1119 b 744 1271 714 1156 737 1207 l 633 1271 b 598 1192 630 1238 618 1211 b 522 1164 578 1173 553 1164 b 411 1271 456 1164 419 1200 l 300 1271 b 368 1119 304 1209 326 1158 b 522 1064 408 1082 459 1064 b 675 1119 584 1064 635 1082 z m 546 393 l 838 393 b 744 190 835 311 804 243 b 526 110 685 137 613 110 b 288 214 427 110 348 144 b 199 494 228 282 199 376 b 288 775 199 613 228 706 b 524 879 346 844 425 879 b 713 821 598 879 661 860 b 813 663 766 782 799 729 l 965 663 b 824 917 950 768 902 853 b 522 1011 744 980 644 1011 b 175 869 377 1011 261 964 b 44 494 88 776 44 651 b 174 121 44 340 88 215 b 514 -22 258 25 371 -22 b 836 132 655 -22 762 29 l 863 0 l 976 0 l 976 519 l 546 519 z "},"ğ":{"ha":822,"x_min":0,"x_max":0,"o":"m 556 867 b 625 1018 594 904 618 954 l 514 1018 b 478 940 510 985 498 959 b 403 911 459 921 433 911 b 292 1018 336 911 299 947 l 181 1018 b 249 867 184 956 207 906 b 403 811 288 830 340 811 b 556 867 465 811 516 830 z m 610 615 b 372 733 556 694 477 733 b 135 632 273 733 194 700 b 44 363 75 563 44 474 b 135 93 44 251 75 162 b 374 -8 194 25 274 -8 b 604 103 473 -8 550 29 l 604 24 b 403 -176 604 -110 537 -176 b 224 -50 294 -176 235 -134 l 85 -50 b 178 -225 92 -124 123 -182 b 401 -289 234 -268 308 -289 b 654 -205 511 -289 595 -261 b 743 26 713 -149 743 -72 l 743 717 l 610 717 z m 399 111 b 246 178 335 111 284 134 b 189 363 208 223 189 285 b 246 546 189 439 208 500 b 399 614 284 591 335 614 b 552 547 463 614 515 591 b 608 363 590 502 608 440 b 552 178 608 285 590 223 b 399 111 515 134 463 111 z "},"Ġ":{"ha":1049,"x_min":0,"x_max":0,"o":"m 449 1219 l 449 1071 l 593 1071 l 593 1219 z m 546 393 l 838 393 b 744 190 835 311 804 243 b 526 110 685 137 613 110 b 288 214 427 110 348 144 b 199 494 228 282 199 376 b 288 775 199 613 228 706 b 524 879 346 844 425 879 b 713 821 598 879 661 860 b 813 663 766 782 799 729 l 965 663 b 824 917 950 768 902 853 b 522 1011 744 980 644 1011 b 175 869 377 1011 261 964 b 44 494 88 776 44 651 b 174 121 44 340 88 215 b 514 -22 258 25 371 -22 b 836 132 655 -22 762 29 l 863 0 l 976 0 l 976 519 l 546 519 z "},"ġ":{"ha":822,"x_min":0,"x_max":0,"o":"m 329 967 l 329 818 l 474 818 l 474 967 z m 610 615 b 372 733 556 694 477 733 b 135 632 273 733 194 700 b 44 363 75 563 44 474 b 135 93 44 251 75 162 b 374 -8 194 25 274 -8 b 604 103 473 -8 550 29 l 604 24 b 403 -176 604 -110 537 -176 b 224 -50 294 -176 235 -134 l 85 -50 b 178 -225 92 -124 123 -182 b 401 -289 234 -268 308 -289 b 654 -205 511 -289 595 -261 b 743 26 713 -149 743 -72 l 743 717 l 610 717 z m 399 111 b 246 178 335 111 284 134 b 189 363 208 223 189 285 b 246 546 189 439 208 500 b 399 614 284 591 335 614 b 552 547 463 614 515 591 b 608 363 590 502 608 440 b 552 178 608 285 590 223 b 399 111 515 134 463 111 z "},"Ģ":{"ha":1049,"x_min":0,"x_max":0,"o":"m 546 393 l 838 393 b 744 190 835 311 804 243 b 526 110 685 137 613 110 b 288 214 427 110 348 144 b 199 494 228 282 199 376 b 288 775 199 613 228 706 b 524 879 346 844 425 879 b 713 821 598 879 661 860 b 813 663 766 782 799 729 l 965 663 b 824 917 950 768 902 853 b 522 1011 744 980 644 1011 b 175 869 377 1011 261 964 b 44 494 88 776 44 651 b 174 121 44 340 88 215 b 514 -22 258 25 371 -22 b 836 132 655 -22 762 29 l 863 0 l 976 0 l 976 519 l 546 519 z m 531 -206 l 531 -232 b 476 -281 531 -262 513 -278 l 457 -282 l 457 -346 l 479 -344 b 576 -314 524 -343 556 -332 b 607 -228 597 -295 607 -267 l 607 -79 l 457 -79 l 457 -206 z "},"ģ":{"ha":822,"x_min":0,"x_max":0,"o":"m 404 944 l 404 969 b 458 1019 404 1000 422 1017 l 478 1021 l 478 1085 l 456 1083 b 358 1053 411 1081 379 1071 b 328 967 338 1034 328 1006 l 328 818 l 478 818 l 478 944 z m 610 615 b 372 733 556 694 477 733 b 135 632 273 733 194 700 b 44 363 75 563 44 474 b 135 93 44 251 75 162 b 374 -8 194 25 274 -8 b 604 103 473 -8 550 29 l 604 24 b 403 -176 604 -110 537 -176 b 224 -50 294 -176 235 -134 l 85 -50 b 178 -225 92 -124 123 -182 b 401 -289 234 -268 308 -289 b 654 -205 511 -289 595 -261 b 743 26 713 -149 743 -72 l 743 717 l 610 717 z m 399 111 b 246 178 335 111 284 134 b 189 363 208 223 189 285 b 246 546 189 439 208 500 b 399 614 284 591 335 614 b 552 547 463 614 515 591 b 608 363 590 502 608 440 b 552 178 608 285 590 223 b 399 111 515 134 463 111 z "},"Ĥ":{"ha":979,"x_min":0,"x_max":0,"o":"m 611 1049 l 743 1049 l 583 1249 l 397 1249 l 238 1049 l 371 1049 l 490 1174 z m 744 576 l 235 576 l 235 989 l 86 989 l 86 0 l 235 0 l 235 440 l 744 440 l 744 0 l 893 0 l 893 989 l 744 989 z "},"ĥ":{"ha":767,"x_min":0,"x_max":0,"o":"m 368 1049 l 235 1249 l 58 1249 l -74 1049 l 51 1049 l 147 1175 l 243 1049 z m 436 733 b 217 618 344 733 271 695 l 217 989 l 78 989 l 78 0 l 217 0 l 217 404 b 272 558 217 471 235 522 b 397 611 309 594 351 611 b 549 461 498 611 549 561 l 549 0 l 688 0 l 688 481 b 621 667 688 561 665 623 b 436 733 576 711 515 733 z "},"Ħ":{"ha":1035,"x_min":0,"x_max":0,"o":"m 921 835 l 921 989 l 774 989 l 774 835 l 263 835 l 263 989 l 115 989 l 115 835 l 0 835 l 0 736 l 115 736 l 115 0 l 263 0 l 263 440 l 774 440 l 774 0 l 921 0 l 921 736 l 1035 736 l 1035 835 z m 263 576 l 263 736 l 774 736 l 774 576 z "},"ħ":{"ha":803,"x_min":0,"x_max":0,"o":"m 474 733 b 254 618 382 733 309 695 l 254 806 l 413 806 l 413 904 l 254 904 l 254 989 l 115 989 l 115 904 l 0 904 l 0 806 l 115 806 l 115 0 l 254 0 l 254 404 b 306 556 254 469 272 520 b 435 611 341 593 384 611 b 586 461 536 611 586 561 l 586 0 l 725 0 l 725 481 b 658 667 725 560 703 622 b 474 733 614 711 552 733 z "},"Ĩ":{"ha":321,"x_min":0,"x_max":0,"o":"m 49 1049 b 81 1111 49 1090 59 1111 b 147 1085 93 1111 115 1102 b 250 1049 194 1061 228 1049 b 357 1222 321 1049 357 1106 l 271 1222 b 239 1160 271 1181 260 1160 b 169 1186 224 1160 201 1169 b 69 1222 130 1210 96 1222 b -37 1049 -2 1222 -37 1164 z m 235 0 l 235 989 l 86 989 l 86 0 z "},"ĩ":{"ha":294,"x_min":0,"x_max":0,"o":"m 36 818 b 68 881 36 860 47 881 b 135 854 80 881 102 872 b 238 818 181 830 215 818 b 344 992 309 818 344 876 l 258 992 b 226 929 258 950 248 929 b 157 956 212 929 188 938 b 57 992 117 980 84 992 b -50 818 -14 992 -50 934 z m 217 0 l 217 717 l 78 717 l 78 0 z "},"Ī":{"ha":321,"x_min":0,"x_max":0,"o":"m 329 1049 l 329 1154 l -10 1154 l -10 1049 z m 235 0 l 235 989 l 86 989 l 86 0 z "},"ī":{"ha":294,"x_min":0,"x_max":0,"o":"m 317 818 l 317 924 l -22 924 l -22 818 z m 217 0 l 217 717 l 78 717 l 78 0 z "},"Ĭ":{"ha":321,"x_min":0,"x_max":0,"o":"m 303 1097 b 365 1238 340 1133 361 1180 l 256 1238 b 228 1167 254 1208 244 1184 b 160 1142 211 1150 188 1142 b 92 1167 131 1142 108 1150 b 64 1238 75 1184 66 1208 l -46 1238 b 17 1097 -41 1180 -20 1133 b 160 1042 54 1060 101 1042 b 303 1097 218 1042 266 1060 z m 235 0 l 235 989 l 86 989 l 86 0 z "},"ĭ":{"ha":294,"x_min":0,"x_max":0,"o":"m 290 867 b 353 1007 327 903 348 950 l 243 1007 b 215 937 241 977 232 954 b 147 911 199 920 176 911 b 79 937 119 911 96 920 b 51 1007 63 954 53 977 l -58 1007 b 4 867 -54 950 -33 903 b 147 811 41 830 89 811 b 290 867 206 811 253 830 z m 217 0 l 217 717 l 78 717 l 78 0 z "},"Į":{"ha":321,"x_min":0,"x_max":0,"o":"m 201 -193 b 142 -132 162 -193 142 -173 b 235 0 142 -84 173 -40 l 235 989 l 86 989 l 86 0 l 138 0 b 67 -69 109 -16 85 -39 b 40 -161 49 -100 40 -131 b 78 -256 40 -202 53 -233 b 181 -289 104 -278 138 -289 b 251 -275 210 -289 234 -284 l 251 -182 b 201 -193 235 -189 218 -193 z "},"į":{"ha":294,"x_min":0,"x_max":0,"o":"m 76 967 l 76 818 l 218 818 l 218 967 z m 183 -193 b 125 -132 144 -193 125 -173 b 217 0 125 -85 156 -41 l 217 717 l 78 717 l 78 0 l 121 0 b 51 -69 92 -16 69 -39 b 24 -161 33 -100 24 -131 b 62 -256 24 -202 36 -233 b 164 -289 87 -278 121 -289 b 233 -275 194 -289 218 -284 l 233 -182 b 183 -193 217 -189 200 -193 z "},"İ":{"ha":321,"x_min":0,"x_max":0,"o":"m 231 1049 l 231 1197 l 89 1197 l 89 1049 z m 235 0 l 235 989 l 86 989 l 86 0 z "},"ı":{"ha":294,"x_min":0,"x_max":0,"o":"m 217 0 l 217 717 l 78 717 l 78 0 z "},"Ĳ":{"ha":1060,"x_min":0,"x_max":0,"o":"m 235 0 l 235 989 l 86 989 l 86 0 z m 672 -22 b 903 60 770 -22 847 5 b 988 285 959 116 988 190 l 988 989 l 840 989 l 840 285 b 796 153 840 227 825 184 b 671 108 766 123 725 108 b 547 154 618 108 577 124 b 503 285 518 185 503 228 l 503 349 l 360 349 l 360 285 b 443 60 360 189 388 114 b 672 -22 499 5 575 -22 z "},"ĳ":{"ha":590,"x_min":0,"x_max":0,"o":"m 218 818 l 218 967 l 76 967 l 76 818 z m 513 818 l 513 967 l 371 967 l 371 818 z m 217 0 l 217 717 l 78 717 l 78 0 z m 326 -276 b 511 -112 450 -276 511 -222 l 511 717 l 372 717 l 372 -99 b 304 -160 372 -139 350 -160 l 264 -160 l 264 -275 b 326 -276 273 -276 294 -276 z "},"Ĵ":{"ha":739,"x_min":0,"x_max":0,"o":"m 504 1249 l 372 1049 l 497 1049 l 593 1175 l 689 1049 l 814 1049 l 681 1249 z m 519 285 b 475 153 519 227 505 184 b 350 108 445 123 404 108 b 226 154 297 108 256 124 b 182 285 197 185 182 228 l 182 349 l 39 349 l 39 285 b 122 60 39 189 67 114 b 351 -22 178 5 254 -22 b 583 60 450 -22 527 5 b 667 285 639 116 667 190 l 667 989 l 519 989 z "},"ĵ":{"ha":294,"x_min":0,"x_max":0,"o":"m 58 1018 l -74 818 l 51 818 l 147 943 l 243 818 l 368 818 l 235 1018 z m 78 -99 b 10 -160 78 -139 55 -160 l -31 -160 l -31 -275 b 32 -276 -21 -276 0 -276 b 217 -112 155 -276 217 -222 l 217 717 l 78 717 z "},"Ķ":{"ha":944,"x_min":0,"x_max":0,"o":"m 740 989 l 235 493 l 235 989 l 86 989 l 86 0 l 235 0 l 235 321 l 407 486 l 750 0 l 929 0 l 514 586 l 929 989 z m 483 -186 l 483 -212 b 429 -261 483 -242 465 -258 l 410 -262 l 410 -326 l 432 -325 b 529 -294 476 -323 509 -313 b 560 -208 550 -276 560 -247 l 560 -60 l 410 -60 l 410 -186 z "},"ķ":{"ha":728,"x_min":0,"x_max":0,"o":"m 704 717 l 531 717 l 215 406 l 215 989 l 78 989 l 78 0 l 215 0 l 215 246 l 335 363 l 563 0 l 722 0 l 433 453 z m 386 -228 l 386 -253 b 332 -303 386 -283 368 -300 l 313 -304 l 313 -368 l 335 -367 b 432 -336 379 -365 412 -355 b 463 -250 452 -318 463 -289 l 463 -101 l 313 -101 l 313 -228 z "},"ĸ":{"ha":728,"x_min":0,"x_max":0,"o":"m 722 0 l 433 453 l 704 717 l 531 717 l 215 406 l 215 717 l 78 717 l 78 0 l 215 0 l 215 246 l 335 363 l 563 0 z "},"Ĺ":{"ha":744,"x_min":0,"x_max":0,"o":"m 221 1249 l 100 1049 l 219 1049 l 394 1249 z m 235 989 l 86 989 l 86 0 l 719 0 l 719 133 l 235 133 z "},"ĺ":{"ha":294,"x_min":0,"x_max":0,"o":"m 328 1249 l 171 1249 l 94 1049 l 201 1049 z m 217 0 l 217 989 l 78 989 l 78 0 z "},"Ļ":{"ha":744,"x_min":0,"x_max":0,"o":"m 235 989 l 86 989 l 86 0 l 719 0 l 719 133 l 235 133 z m 403 -186 l 403 -212 b 349 -261 403 -242 385 -258 l 329 -262 l 329 -326 l 351 -325 b 449 -294 396 -323 428 -313 b 479 -208 469 -276 479 -247 l 479 -60 l 329 -60 l 329 -186 z "},"ļ":{"ha":294,"x_min":0,"x_max":0,"o":"m 78 989 l 78 0 l 217 0 l 217 989 z m 74 -228 l 147 -228 l 147 -253 b 93 -303 147 -283 129 -300 l 74 -304 l 74 -368 l 96 -367 b 193 -336 140 -365 173 -355 b 224 -250 213 -318 224 -289 l 224 -101 l 74 -101 z "},"Ľ":{"ha":744,"x_min":0,"x_max":0,"o":"m 235 989 l 86 989 l 86 0 l 719 0 l 719 133 l 235 133 z m 382 989 l 335 758 l 435 758 l 533 989 z "},"ľ":{"ha":456,"x_min":0,"x_max":0,"o":"m 217 0 l 217 989 l 78 989 l 78 0 z m 369 758 l 469 989 l 318 989 l 269 758 z "},"Ŀ":{"ha":744,"x_min":0,"x_max":0,"o":"m 235 989 l 86 989 l 86 0 l 719 0 l 719 133 l 235 133 z m 450 599 l 450 432 l 618 432 l 618 599 z "},"ŀ":{"ha":585,"x_min":0,"x_max":0,"o":"m 217 0 l 217 989 l 78 989 l 78 0 z m 526 408 l 526 575 l 358 575 l 358 408 z "},"Ł":{"ha":772,"x_min":0,"x_max":0,"o":"m 261 519 l 518 632 l 518 743 l 261 631 l 261 989 l 114 989 l 114 565 l 0 515 l 0 406 l 114 456 l 114 0 l 747 0 l 747 133 l 261 133 z "},"ł":{"ha":368,"x_min":0,"x_max":0,"o":"m 254 590 l 254 989 l 115 989 l 115 517 l 0 456 l 0 342 l 115 403 l 115 0 l 254 0 l 254 476 l 368 536 l 368 650 z "},"Ń":{"ha":981,"x_min":0,"x_max":0,"o":"m 551 1249 l 431 1049 l 550 1049 l 725 1249 z m 750 689 b 756 190 750 468 752 301 b 563 510 709 273 645 379 l 257 989 l 86 989 l 86 0 l 231 0 l 231 300 b 225 797 231 521 229 687 b 418 479 265 724 329 618 l 722 0 l 893 0 l 893 989 l 750 989 z "},"ń":{"ha":767,"x_min":0,"x_max":0,"o":"m 450 1018 l 329 818 l 449 818 l 624 1018 z m 436 733 b 211 610 341 733 266 692 l 211 717 l 78 717 l 78 0 l 217 0 l 217 404 b 272 558 217 471 235 522 b 397 611 309 594 351 611 b 549 461 498 611 549 561 l 549 0 l 688 0 l 688 481 b 621 667 688 561 665 623 b 436 733 576 711 515 733 z "},"Ņ":{"ha":981,"x_min":0,"x_max":0,"o":"m 750 689 b 756 190 750 468 752 301 b 563 510 709 273 645 379 l 257 989 l 86 989 l 86 0 l 231 0 l 231 300 b 225 797 231 521 229 687 b 418 479 265 724 329 618 l 722 0 l 893 0 l 893 989 l 750 989 z m 490 -186 l 490 -212 b 436 -261 490 -242 472 -258 l 417 -262 l 417 -326 l 439 -325 b 536 -294 483 -323 516 -313 b 567 -208 556 -276 567 -247 l 567 -60 l 417 -60 l 417 -186 z "},"ņ":{"ha":767,"x_min":0,"x_max":0,"o":"m 436 733 b 211 610 341 733 266 692 l 211 717 l 78 717 l 78 0 l 217 0 l 217 404 b 272 558 217 471 235 522 b 397 611 309 594 351 611 b 549 461 498 611 549 561 l 549 0 l 688 0 l 688 481 b 621 667 688 561 665 623 b 436 733 576 711 515 733 z m 381 -228 l 381 -253 b 326 -303 381 -283 363 -300 l 307 -304 l 307 -368 l 329 -367 b 426 -336 374 -365 406 -355 b 457 -250 447 -318 457 -289 l 457 -101 l 307 -101 l 307 -228 z "},"Ň":{"ha":981,"x_min":0,"x_max":0,"o":"m 743 1249 l 610 1249 l 490 1124 l 369 1249 l 238 1249 l 397 1049 l 583 1049 z m 750 689 b 756 190 750 468 752 301 b 563 510 709 273 645 379 l 257 989 l 86 989 l 86 0 l 231 0 l 231 300 b 225 797 231 521 229 687 b 418 479 265 724 329 618 l 722 0 l 893 0 l 893 989 l 750 989 z "},"ň":{"ha":767,"x_min":0,"x_max":0,"o":"m 638 1017 l 504 1017 l 385 893 l 264 1017 l 132 1017 l 292 817 l 478 817 z m 436 733 b 211 610 341 733 266 692 l 211 717 l 78 717 l 78 0 l 217 0 l 217 404 b 272 558 217 471 235 522 b 397 611 309 594 351 611 b 549 461 498 611 549 561 l 549 0 l 688 0 l 688 481 b 621 667 688 561 665 623 b 436 733 576 711 515 733 z "},"ŉ":{"ha":986,"x_min":0,"x_max":0,"o":"m 128 831 l 128 808 b 74 717 128 751 110 720 l 58 715 l 58 632 l 76 633 b 219 817 172 640 219 701 l 219 989 l 58 989 l 58 831 z m 656 733 b 431 610 560 733 485 692 l 431 717 l 297 717 l 297 0 l 436 0 l 436 404 b 489 556 436 469 454 520 b 618 611 524 593 567 611 b 768 461 718 611 768 561 l 768 0 l 907 0 l 907 481 b 840 667 907 561 885 623 b 656 733 796 711 734 733 z "},"Ŋ":{"ha":981,"x_min":0,"x_max":0,"o":"m 750 689 b 754 231 750 497 751 344 b 575 514 705 312 645 406 l 257 989 l 86 989 l 86 0 l 231 0 l 231 300 b 225 813 231 528 229 699 b 431 486 263 745 331 636 l 754 1 l 754 -4 b 594 -161 754 -109 701 -161 b 532 -157 574 -161 553 -160 l 532 -272 b 611 -276 557 -275 583 -276 b 893 -6 799 -276 893 -186 l 893 989 l 750 989 z "},"ŋ":{"ha":767,"x_min":0,"x_max":0,"o":"m 436 733 b 211 610 341 733 266 692 l 211 717 l 78 717 l 78 0 l 217 0 l 217 404 b 272 558 217 471 235 522 b 397 611 309 594 351 611 b 549 461 498 611 549 561 l 549 -100 b 481 -161 549 -141 526 -161 l 440 -161 l 440 -275 b 503 -276 450 -276 470 -276 b 688 -112 626 -276 688 -222 l 688 481 b 621 667 688 561 665 623 b 436 733 576 711 515 733 z "},"Ō":{"ha":1054,"x_min":0,"x_max":0,"o":"m 738 1071 l 738 1176 l 318 1176 l 318 1071 z m 528 -22 b 878 121 672 -22 789 25 b 1010 494 966 216 1010 341 b 878 869 1010 648 966 773 b 528 1011 789 964 672 1011 b 178 869 381 1011 265 964 b 44 494 89 773 44 648 b 178 121 44 340 89 215 b 528 -22 265 25 381 -22 z m 528 111 b 289 215 428 111 348 146 b 199 494 229 284 199 377 b 289 775 199 611 229 705 b 528 878 349 844 429 878 b 767 775 627 878 706 844 b 856 494 826 706 856 613 b 767 215 856 376 826 283 b 528 111 707 146 628 111 z "},"ō":{"ha":799,"x_min":0,"x_max":0,"o":"m 610 818 l 610 924 l 190 924 l 190 818 z m 657 86 b 754 358 722 154 754 244 b 657 632 754 473 722 564 b 400 733 592 700 506 733 b 143 632 294 733 208 700 b 44 358 77 563 44 472 b 143 86 44 245 77 155 b 400 -17 209 18 294 -17 b 657 86 506 -17 591 18 z m 400 103 b 246 171 335 103 284 125 b 189 358 208 216 189 279 b 246 546 189 438 208 500 b 400 614 284 591 335 614 b 553 546 465 614 516 591 b 610 358 591 500 610 438 b 553 171 610 279 591 216 b 400 103 516 125 465 103 z "},"Ŏ":{"ha":1054,"x_min":0,"x_max":0,"o":"m 681 1119 b 750 1271 719 1156 743 1207 l 639 1271 b 603 1192 635 1238 623 1211 b 528 1164 584 1173 558 1164 b 417 1271 461 1164 424 1200 l 306 1271 b 374 1119 309 1209 332 1158 b 528 1064 413 1082 465 1064 b 681 1119 590 1064 641 1082 z m 528 -22 b 878 121 672 -22 789 25 b 1010 494 966 216 1010 341 b 878 869 1010 648 966 773 b 528 1011 789 964 672 1011 b 178 869 381 1011 265 964 b 44 494 89 773 44 648 b 178 121 44 340 89 215 b 528 -22 265 25 381 -22 z m 528 111 b 289 215 428 111 348 146 b 199 494 229 284 199 377 b 289 775 199 611 229 705 b 528 878 349 844 429 878 b 767 775 627 878 706 844 b 856 494 826 706 856 613 b 767 215 856 376 826 283 b 528 111 707 146 628 111 z "},"ŏ":{"ha":799,"x_min":0,"x_max":0,"o":"m 553 867 b 622 1018 592 904 615 954 l 511 1018 b 476 940 507 985 496 959 b 400 911 456 921 431 911 b 289 1018 333 911 296 947 l 178 1018 b 246 867 181 956 204 906 b 400 811 286 830 337 811 b 553 867 462 811 513 830 z m 657 86 b 754 358 722 154 754 244 b 657 632 754 473 722 564 b 400 733 592 700 506 733 b 143 632 294 733 208 700 b 44 358 77 563 44 472 b 143 86 44 245 77 155 b 400 -17 209 18 294 -17 b 657 86 506 -17 591 18 z m 400 103 b 246 171 335 103 284 125 b 189 358 208 216 189 279 b 246 546 189 438 208 500 b 400 614 284 591 335 614 b 553 546 465 614 516 591 b 610 358 591 500 610 438 b 553 171 610 279 591 216 b 400 103 516 125 465 103 z "},"Ő":{"ha":1054,"x_min":0,"x_max":0,"o":"m 456 1071 l 632 1271 l 463 1271 l 343 1071 z m 706 1071 l 882 1271 l 713 1271 l 593 1071 z m 528 -22 b 878 121 672 -22 789 25 b 1010 494 966 216 1010 341 b 878 869 1010 648 966 773 b 528 1011 789 964 672 1011 b 178 869 381 1011 265 964 b 44 494 89 773 44 648 b 178 121 44 340 89 215 b 528 -22 265 25 381 -22 z m 528 111 b 289 215 428 111 348 146 b 199 494 229 284 199 377 b 289 775 199 611 229 705 b 528 878 349 844 429 878 b 767 775 627 878 706 844 b 856 494 826 706 856 613 b 767 215 856 376 826 283 b 528 111 707 146 628 111 z "},"ő":{"ha":799,"x_min":0,"x_max":0,"o":"m 342 818 l 518 1018 l 349 1018 l 229 818 z m 592 818 l 768 1018 l 599 1018 l 479 818 z m 657 86 b 754 358 722 154 754 244 b 657 632 754 473 722 564 b 400 733 592 700 506 733 b 143 632 294 733 208 700 b 44 358 77 563 44 472 b 143 86 44 245 77 155 b 400 -17 209 18 294 -17 b 657 86 506 -17 591 18 z m 400 103 b 246 171 335 103 284 125 b 189 358 208 216 189 279 b 246 546 189 438 208 500 b 400 614 284 591 335 614 b 553 546 465 614 516 591 b 610 358 591 500 610 438 b 553 171 610 279 591 216 b 400 103 516 125 465 103 z "},"Œ":{"ha":1596,"x_min":0,"x_max":0,"o":"m 1561 989 l 856 989 l 856 858 b 519 1011 776 960 664 1011 b 175 869 377 1011 262 964 b 44 494 88 774 44 649 b 175 121 44 339 88 214 b 519 -22 262 25 377 -22 b 856 131 664 -22 776 29 l 856 0 l 1556 0 l 1556 133 l 1003 133 l 1003 446 l 1507 446 l 1507 576 l 1003 576 l 1003 856 l 1561 856 z m 528 111 b 289 215 428 111 348 146 b 199 494 229 284 199 377 b 289 775 199 611 229 705 b 528 878 349 844 429 878 b 767 775 627 878 706 844 b 856 494 826 706 856 613 b 767 215 856 376 826 283 b 528 111 707 146 628 111 z "},"œ":{"ha":1338,"x_min":0,"x_max":0,"o":"m 1292 353 b 1201 626 1292 464 1262 555 b 953 733 1140 698 1057 733 b 681 590 833 733 743 686 b 400 733 619 686 525 733 b 143 632 294 733 208 700 b 44 358 77 563 44 472 b 143 86 44 245 77 155 b 400 -17 209 18 294 -17 b 681 126 525 -17 619 31 b 954 -17 742 31 833 -17 b 1161 47 1037 -17 1106 4 b 1274 219 1217 89 1254 146 l 1135 219 b 957 100 1107 140 1048 100 b 814 153 897 100 849 118 b 751 313 779 189 758 242 l 1292 313 z m 951 617 b 1087 563 1007 617 1052 599 b 1149 422 1122 528 1142 481 l 754 422 b 818 567 763 485 784 533 b 951 617 852 600 897 617 z m 400 103 b 246 171 335 103 284 125 b 189 358 208 216 189 279 b 246 546 189 438 208 500 b 400 614 284 591 335 614 b 553 546 465 614 516 591 b 610 358 591 500 610 438 b 553 171 610 279 591 216 b 400 103 516 125 465 103 z "},"Ŕ":{"ha":908,"x_min":0,"x_max":0,"o":"m 510 1249 l 389 1049 l 508 1049 l 683 1249 z m 833 275 b 797 406 831 330 819 373 b 692 476 775 439 740 463 b 815 563 744 493 785 522 b 858 715 844 604 858 655 b 767 916 858 800 828 867 b 518 989 707 965 624 989 l 86 989 l 86 0 l 235 0 l 235 407 l 522 407 b 647 367 580 407 621 394 b 690 232 673 341 688 296 l 694 126 b 724 0 695 69 705 27 l 876 0 b 843 121 859 30 848 70 z m 235 531 l 235 861 l 510 861 b 655 821 573 861 621 848 b 706 701 689 794 706 754 b 656 575 706 647 689 605 b 521 531 623 545 578 531 z "},"ŕ":{"ha":508,"x_min":0,"x_max":0,"o":"m 317 1018 l 240 818 l 347 818 l 474 1018 z m 435 728 b 211 589 331 728 256 681 l 211 717 l 78 717 l 78 0 l 217 0 l 217 389 b 275 542 217 456 236 506 b 440 594 314 577 369 594 l 475 594 l 475 726 b 435 728 469 727 455 728 z "},"Ŗ":{"ha":908,"x_min":0,"x_max":0,"o":"m 833 275 b 797 406 831 330 819 373 b 692 476 775 439 740 463 b 815 563 744 493 785 522 b 858 715 844 604 858 655 b 767 916 858 800 828 867 b 518 989 707 965 624 989 l 86 989 l 86 0 l 235 0 l 235 407 l 522 407 b 647 367 580 407 621 394 b 690 232 673 341 688 296 l 694 126 b 724 0 695 69 705 27 l 876 0 b 843 121 859 30 848 70 z m 235 531 l 235 861 l 510 861 b 655 821 573 861 621 848 b 706 701 689 794 706 754 b 656 575 706 647 689 605 b 521 531 623 545 578 531 z m 482 -186 l 482 -212 b 428 -261 482 -242 464 -258 l 408 -262 l 408 -326 l 431 -325 b 528 -294 475 -323 507 -313 b 558 -208 548 -276 558 -247 l 558 -60 l 408 -60 l 408 -186 z "},"ŗ":{"ha":508,"x_min":0,"x_max":0,"o":"m 435 728 b 211 589 331 728 256 681 l 211 717 l 78 717 l 78 0 l 217 0 l 217 389 b 275 542 217 456 236 506 b 440 594 314 577 369 594 l 475 594 l 475 726 b 435 728 469 727 455 728 z m 147 -228 l 147 -253 b 93 -303 147 -283 129 -300 l 74 -304 l 74 -368 l 96 -367 b 193 -336 140 -365 173 -355 b 224 -250 213 -318 224 -289 l 224 -101 l 74 -101 l 74 -228 z "},"Ř":{"ha":908,"x_min":0,"x_max":0,"o":"m 700 1249 l 567 1249 l 447 1124 l 326 1249 l 194 1249 l 354 1049 l 540 1049 z m 833 275 b 797 406 831 330 819 373 b 692 476 775 439 740 463 b 815 563 744 493 785 522 b 858 715 844 604 858 655 b 767 916 858 800 828 867 b 518 989 707 965 624 989 l 86 989 l 86 0 l 235 0 l 235 407 l 522 407 b 647 367 580 407 621 394 b 690 232 673 341 688 296 l 694 126 b 724 0 695 69 705 27 l 876 0 b 843 121 859 30 848 70 z m 235 531 l 235 861 l 510 861 b 655 821 573 861 621 848 b 706 701 689 794 706 754 b 656 575 706 647 689 605 b 521 531 623 545 578 531 z "},"ř":{"ha":508,"x_min":0,"x_max":0,"o":"m 514 1017 l 389 1017 l 293 892 l 197 1017 l 72 1017 l 204 817 l 381 817 z m 211 717 l 78 717 l 78 0 l 217 0 l 217 389 b 275 542 217 456 236 506 b 440 594 314 577 369 594 l 475 594 l 475 726 b 435 728 469 727 455 728 b 211 589 331 728 256 681 z "},"Ś":{"ha":871,"x_min":0,"x_max":0,"o":"m 481 1071 l 656 1271 l 482 1271 l 361 1071 z m 454 -22 b 737 57 575 -22 669 4 b 839 274 805 110 839 182 b 765 457 839 350 814 412 b 521 561 715 502 634 537 l 435 579 b 265 643 352 597 296 618 b 219 746 235 666 219 700 b 271 849 219 790 237 825 b 419 885 305 873 355 885 b 601 840 503 885 563 870 b 664 699 638 809 659 763 l 811 699 b 710 928 809 796 776 872 b 418 1011 645 983 548 1011 b 163 938 311 1011 225 987 b 68 743 100 890 68 825 b 146 551 68 662 94 598 b 376 451 198 505 275 472 l 461 433 b 636 370 545 415 604 394 b 685 269 669 347 685 313 b 626 147 685 216 665 175 b 457 104 586 118 530 104 b 188 326 280 104 190 178 l 39 326 b 149 67 40 213 77 126 b 454 -22 222 7 324 -22 z "},"ś":{"ha":668,"x_min":0,"x_max":0,"o":"m 397 818 l 572 1018 l 399 1018 l 278 818 z m 343 -18 b 564 40 438 -18 511 1 b 643 201 617 78 643 132 b 585 340 643 261 624 307 b 394 415 546 374 482 399 l 319 428 b 218 465 273 437 239 449 b 186 529 197 480 186 501 b 222 600 186 560 198 583 b 325 625 246 617 281 625 b 449 595 381 625 422 615 b 493 493 475 575 490 541 l 628 493 b 325 733 623 653 522 733 b 122 677 239 733 171 715 b 49 525 73 640 49 589 b 276 311 49 410 125 339 l 350 297 b 469 258 407 287 447 274 b 503 192 492 243 503 220 b 344 92 503 125 450 92 b 217 122 286 92 244 102 b 168 228 190 143 174 178 l 29 228 b 343 -18 39 64 144 -18 z "},"Ŝ":{"ha":871,"x_min":0,"x_max":0,"o":"m 542 1071 l 674 1071 l 514 1271 l 328 1271 l 168 1071 l 301 1071 l 421 1196 z m 435 579 b 265 643 352 597 296 618 b 219 746 235 666 219 700 b 271 849 219 790 237 825 b 419 885 305 873 355 885 b 601 840 503 885 563 870 b 664 699 638 809 659 763 l 811 699 b 710 928 809 796 776 872 b 418 1011 645 983 548 1011 b 163 938 311 1011 225 987 b 68 743 100 890 68 825 b 146 551 68 662 94 598 b 376 451 198 505 275 472 l 461 433 b 636 370 545 415 604 394 b 685 269 669 347 685 313 b 626 147 685 216 665 175 b 457 104 586 118 530 104 b 188 326 280 104 190 178 l 39 326 b 149 67 40 213 77 126 b 454 -22 222 7 324 -22 b 737 57 575 -22 669 4 b 839 274 805 110 839 182 b 765 457 839 350 814 412 b 521 561 715 502 634 537 z "},"ŝ":{"ha":668,"x_min":0,"x_max":0,"o":"m 454 818 l 586 818 l 426 1018 l 240 1018 l 81 818 l 214 818 l 333 942 z m 319 428 b 218 465 273 437 239 449 b 186 529 197 480 186 501 b 222 600 186 560 198 583 b 325 625 246 617 281 625 b 449 595 381 625 422 615 b 493 493 475 575 490 541 l 628 493 b 325 733 623 653 522 733 b 122 677 239 733 171 715 b 49 525 73 640 49 589 b 276 311 49 410 125 339 l 350 297 b 469 258 407 287 447 274 b 503 192 492 243 503 220 b 344 92 503 125 450 92 b 217 122 286 92 244 102 b 168 228 190 143 174 178 l 29 228 b 343 -18 39 64 144 -18 b 564 40 438 -18 511 1 b 643 201 617 78 643 132 b 585 340 643 261 624 307 b 394 415 546 374 482 399 z "},"Ş":{"ha":871,"x_min":0,"x_max":0,"o":"m 839 274 b 765 457 839 350 814 412 b 521 561 715 502 634 537 l 435 579 b 265 643 352 597 296 618 b 219 746 235 666 219 700 b 271 849 219 790 237 825 b 419 885 305 873 355 885 b 601 840 503 885 563 870 b 664 699 638 809 659 763 l 811 699 b 710 928 809 796 776 872 b 418 1011 645 983 548 1011 b 163 938 311 1011 225 987 b 68 743 100 890 68 825 b 146 551 68 662 94 598 b 376 451 198 505 275 472 l 461 433 b 636 370 545 415 604 394 b 685 269 669 347 685 313 b 626 147 685 216 665 175 b 457 104 586 118 530 104 b 188 326 280 104 190 178 l 39 326 b 139 75 40 218 73 134 b 417 -21 205 16 297 -16 l 365 -86 l 365 -139 b 404 -137 374 -138 387 -137 b 483 -193 457 -137 483 -156 b 396 -254 483 -234 454 -254 b 315 -249 368 -254 341 -252 l 315 -317 b 404 -325 343 -322 373 -325 b 552 -290 470 -325 519 -313 b 601 -192 585 -266 601 -233 b 565 -113 601 -160 589 -134 b 469 -82 541 -92 509 -82 l 456 -82 l 510 -19 b 752 69 613 -12 694 17 b 839 274 810 120 839 188 z "},"ş":{"ha":668,"x_min":0,"x_max":0,"o":"m 643 201 b 585 340 643 261 624 307 b 394 415 546 374 482 399 l 319 428 b 218 465 273 437 239 449 b 186 529 197 480 186 501 b 222 600 186 560 198 583 b 325 625 246 617 281 625 b 449 595 381 625 422 615 b 493 493 475 575 490 541 l 628 493 b 325 733 623 653 522 733 b 122 677 239 733 171 715 b 49 525 73 640 49 589 b 276 311 49 410 125 339 l 350 297 b 469 258 407 287 447 274 b 503 192 492 243 503 220 b 344 92 503 125 450 92 b 217 122 286 92 244 102 b 168 228 190 143 174 178 l 29 228 b 303 -17 38 75 129 -6 l 251 -82 l 251 -135 b 290 -133 260 -134 273 -133 b 369 -189 343 -133 369 -152 b 282 -250 369 -230 340 -250 b 201 -244 254 -250 227 -248 l 201 -312 b 290 -321 229 -318 259 -321 b 438 -285 356 -321 405 -309 b 488 -187 471 -262 488 -229 b 451 -109 488 -156 475 -130 b 356 -78 427 -88 395 -78 l 342 -78 l 396 -15 b 578 51 475 -8 535 14 b 643 201 622 88 643 138 z "},"Š":{"ha":871,"x_min":0,"x_max":0,"o":"m 674 1271 l 540 1271 l 421 1146 l 300 1271 l 168 1271 l 328 1071 l 514 1071 z m 435 579 b 265 643 352 597 296 618 b 219 746 235 666 219 700 b 271 849 219 790 237 825 b 419 885 305 873 355 885 b 601 840 503 885 563 870 b 664 699 638 809 659 763 l 811 699 b 710 928 809 796 776 872 b 418 1011 645 983 548 1011 b 163 938 311 1011 225 987 b 68 743 100 890 68 825 b 146 551 68 662 94 598 b 376 451 198 505 275 472 l 461 433 b 636 370 545 415 604 394 b 685 269 669 347 685 313 b 626 147 685 216 665 175 b 457 104 586 118 530 104 b 188 326 280 104 190 178 l 39 326 b 149 67 40 213 77 126 b 454 -22 222 7 324 -22 b 737 57 575 -22 669 4 b 839 274 805 110 839 182 b 765 457 839 350 814 412 b 521 561 715 502 634 537 z "},"š":{"ha":668,"x_min":0,"x_max":0,"o":"m 586 1017 l 453 1017 l 333 893 l 213 1017 l 81 1017 l 240 817 l 426 817 z m 319 428 b 218 465 273 437 239 449 b 186 529 197 480 186 501 b 222 600 186 560 198 583 b 325 625 246 617 281 625 b 449 595 381 625 422 615 b 493 493 475 575 490 541 l 628 493 b 325 733 623 653 522 733 b 122 677 239 733 171 715 b 49 525 73 640 49 589 b 276 311 49 410 125 339 l 350 297 b 469 258 407 287 447 274 b 503 192 492 243 503 220 b 344 92 503 125 450 92 b 217 122 286 92 244 102 b 168 228 190 143 174 178 l 29 228 b 343 -18 39 64 144 -18 b 564 40 438 -18 511 1 b 643 201 617 78 643 132 b 585 340 643 261 624 307 b 394 415 546 374 482 399 z "},"Ţ":{"ha":857,"x_min":0,"x_max":0,"o":"m 504 856 l 832 856 l 832 989 l 25 989 l 25 856 l 353 856 l 353 0 l 385 0 l 335 -64 l 335 -117 b 374 -115 343 -116 356 -115 b 453 -171 426 -115 453 -134 b 365 -232 453 -212 424 -232 b 285 -226 338 -232 311 -230 l 285 -294 b 374 -303 313 -300 342 -303 b 522 -267 439 -303 489 -291 b 571 -169 554 -244 571 -211 b 535 -91 571 -138 559 -112 b 439 -60 511 -70 479 -60 l 425 -60 l 478 0 l 504 0 z "},"ţ":{"ha":451,"x_min":0,"x_max":0,"o":"m 274 -60 l 322 -4 l 333 -4 b 418 0 359 -4 388 -3 l 418 111 l 356 111 b 292 126 326 111 305 116 b 274 172 280 135 274 151 l 274 603 l 418 603 l 418 717 l 274 717 l 274 922 l 135 922 l 135 717 l 19 717 l 19 603 l 135 603 l 135 160 b 239 7 135 77 169 26 l 183 -64 l 183 -117 b 222 -115 192 -116 205 -115 b 301 -171 275 -115 301 -134 b 214 -232 301 -212 272 -232 b 133 -226 186 -232 159 -230 l 133 -294 b 222 -303 161 -300 191 -303 b 370 -267 288 -303 337 -291 b 419 -169 403 -244 419 -211 b 383 -91 419 -138 407 -112 b 288 -60 359 -70 327 -60 z "},"Ť":{"ha":857,"x_min":0,"x_max":0,"o":"m 682 1249 l 549 1249 l 429 1124 l 308 1249 l 176 1249 l 336 1049 l 522 1049 z m 25 989 l 25 856 l 353 856 l 353 0 l 504 0 l 504 856 l 832 856 l 832 989 z "},"ť":{"ha":451,"x_min":0,"x_max":0,"o":"m 365 989 l 317 758 l 417 758 l 517 989 z m 135 922 l 135 717 l 19 717 l 19 603 l 135 603 l 135 160 b 183 35 135 102 151 61 b 333 -4 216 9 266 -4 b 418 0 359 -4 388 -3 l 418 111 l 356 111 b 292 126 326 111 305 116 b 274 172 280 135 274 151 l 274 603 l 418 603 l 418 717 l 274 717 l 274 922 z "},"Ŧ":{"ha":857,"x_min":0,"x_max":0,"o":"m 832 989 l 25 989 l 25 856 l 353 856 l 353 544 l 165 544 l 165 446 l 353 446 l 353 0 l 504 0 l 504 446 l 692 446 l 692 544 l 504 544 l 504 856 l 832 856 z "},"ŧ":{"ha":451,"x_min":0,"x_max":0,"o":"m 418 717 l 274 717 l 274 922 l 135 922 l 135 717 l 19 717 l 19 603 l 135 603 l 135 419 l 21 419 l 21 321 l 135 321 l 135 160 b 183 35 135 102 151 61 b 333 -4 216 9 266 -4 b 418 0 359 -4 388 -3 l 418 111 l 356 111 b 292 126 326 111 305 116 b 274 172 280 135 274 151 l 274 321 l 417 321 l 417 419 l 274 419 l 274 603 l 418 603 z "},"Ũ":{"ha":944,"x_min":0,"x_max":0,"o":"m 335 1049 b 374 1113 335 1091 348 1113 b 456 1086 390 1113 418 1104 b 581 1049 511 1061 553 1049 b 711 1225 668 1049 711 1107 l 607 1225 b 568 1161 607 1182 594 1161 b 482 1189 550 1161 522 1170 b 361 1225 431 1213 391 1225 b 231 1049 274 1225 231 1166 z m 472 -21 b 767 81 598 -21 696 13 b 872 369 837 149 872 245 l 872 989 l 724 989 l 724 368 b 659 175 724 283 702 219 b 472 110 616 131 554 110 b 285 175 391 110 328 131 b 221 368 242 219 221 283 l 221 989 l 72 989 l 72 369 b 178 81 72 245 107 149 b 472 -21 248 13 346 -21 z "},"ũ":{"ha":767,"x_min":0,"x_max":0,"o":"m 278 882 b 360 856 294 882 322 873 b 485 818 415 831 457 818 b 615 994 572 818 615 877 l 511 994 b 472 931 511 952 498 931 b 386 958 455 931 426 940 b 265 994 335 982 295 994 b 135 818 178 994 135 936 l 239 818 b 278 882 239 861 252 882 z m 549 313 b 497 160 549 248 531 197 b 368 106 462 124 419 106 b 217 256 267 106 217 156 l 217 717 l 78 717 l 78 236 b 144 50 78 156 100 94 b 329 -17 189 6 250 -17 b 554 107 425 -17 500 25 l 554 0 l 688 0 l 688 717 l 549 717 z "},"Ū":{"ha":944,"x_min":0,"x_max":0,"o":"m 682 1049 l 682 1154 l 263 1154 l 263 1049 z m 472 -21 b 767 81 598 -21 696 13 b 872 369 837 149 872 245 l 872 989 l 724 989 l 724 368 b 659 175 724 283 702 219 b 472 110 616 131 554 110 b 285 175 391 110 328 131 b 221 368 242 219 221 283 l 221 989 l 72 989 l 72 369 b 178 81 72 245 107 149 b 472 -21 248 13 346 -21 z "},"ū":{"ha":767,"x_min":0,"x_max":0,"o":"m 167 924 l 167 818 l 586 818 l 586 924 z m 549 313 b 497 160 549 248 531 197 b 368 106 462 124 419 106 b 217 256 267 106 217 156 l 217 717 l 78 717 l 78 236 b 144 50 78 156 100 94 b 329 -17 189 6 250 -17 b 554 107 425 -17 500 25 l 554 0 l 688 0 l 688 717 l 549 717 z "},"Ŭ":{"ha":944,"x_min":0,"x_max":0,"o":"m 625 1097 b 694 1249 664 1134 687 1185 l 583 1249 b 548 1170 580 1215 568 1189 b 472 1142 528 1151 503 1142 b 361 1249 406 1142 369 1177 l 250 1249 b 318 1097 254 1187 276 1136 b 472 1042 358 1060 409 1042 b 625 1097 534 1042 585 1060 z m 472 -21 b 767 81 598 -21 696 13 b 872 369 837 149 872 245 l 872 989 l 724 989 l 724 368 b 659 175 724 283 702 219 b 472 110 616 131 554 110 b 285 175 391 110 328 131 b 221 368 242 219 221 283 l 221 989 l 72 989 l 72 369 b 178 81 72 245 107 149 b 472 -21 248 13 346 -21 z "},"ŭ":{"ha":767,"x_min":0,"x_max":0,"o":"m 529 867 b 599 1018 568 904 591 954 l 488 1018 b 452 940 484 985 472 959 b 376 911 432 921 407 911 b 265 1018 310 911 273 947 l 154 1018 b 222 867 158 956 181 906 b 376 811 262 830 313 811 b 529 867 438 811 489 830 z m 549 313 b 497 160 549 248 531 197 b 368 106 462 124 419 106 b 217 256 267 106 217 156 l 217 717 l 78 717 l 78 236 b 144 50 78 156 100 94 b 329 -17 189 6 250 -17 b 554 107 425 -17 500 25 l 554 0 l 688 0 l 688 717 l 549 717 z "},"Ů":{"ha":944,"x_min":0,"x_max":0,"o":"m 606 949 b 658 1075 641 982 658 1024 b 605 1203 658 1127 641 1170 b 472 1254 569 1237 525 1254 b 340 1203 419 1254 375 1237 b 286 1075 304 1170 286 1127 b 340 949 286 1024 304 982 b 472 897 375 914 419 897 b 606 949 526 897 570 914 z m 410 1014 b 383 1076 393 1032 384 1053 b 408 1138 382 1098 391 1119 b 472 1163 426 1156 447 1164 b 534 1138 496 1163 517 1154 b 560 1075 551 1121 560 1100 b 506 996 563 1037 544 1011 b 410 1014 467 981 435 987 z m 472 -21 b 767 81 598 -21 696 13 b 872 369 837 149 872 245 l 872 989 l 724 989 l 724 368 b 659 175 724 283 702 219 b 472 110 616 131 554 110 b 285 175 391 110 328 131 b 221 368 242 219 221 283 l 221 989 l 72 989 l 72 369 b 178 81 72 245 107 149 b 472 -21 248 13 346 -21 z "},"ů":{"ha":767,"x_min":0,"x_max":0,"o":"m 510 863 b 563 990 545 896 563 938 b 509 1117 563 1041 545 1084 b 376 1168 473 1151 429 1168 b 244 1117 324 1168 279 1151 b 190 990 208 1084 190 1041 b 244 863 190 938 208 896 b 376 811 279 828 323 811 b 510 863 430 811 475 828 z m 439 1053 b 464 990 456 1036 464 1015 b 439 928 464 965 456 944 b 376 903 421 911 400 903 b 315 928 352 903 332 911 b 289 990 298 944 289 965 b 314 1053 289 1015 297 1036 b 376 1076 331 1069 351 1076 b 439 1053 401 1076 422 1069 z m 549 313 b 497 160 549 248 531 197 b 368 106 462 124 419 106 b 217 256 267 106 217 156 l 217 717 l 78 717 l 78 236 b 144 50 78 156 100 94 b 329 -17 189 6 250 -17 b 554 107 425 -17 500 25 l 554 0 l 688 0 l 688 717 l 549 717 z "},"Ű":{"ha":944,"x_min":0,"x_max":0,"o":"m 400 1049 l 576 1249 l 407 1249 l 288 1049 z m 650 1049 l 826 1249 l 657 1249 l 538 1049 z m 472 -21 b 767 81 598 -21 696 13 b 872 369 837 149 872 245 l 872 989 l 724 989 l 724 368 b 659 175 724 283 702 219 b 472 110 616 131 554 110 b 285 175 391 110 328 131 b 221 368 242 219 221 283 l 221 989 l 72 989 l 72 369 b 178 81 72 245 107 149 b 472 -21 248 13 346 -21 z "},"ű":{"ha":767,"x_min":0,"x_max":0,"o":"m 325 1018 l 206 818 l 318 818 l 494 1018 z m 744 1018 l 575 1018 l 456 818 l 568 818 z m 549 313 b 497 160 549 248 531 197 b 368 106 462 124 419 106 b 217 256 267 106 217 156 l 217 717 l 78 717 l 78 236 b 144 50 78 156 100 94 b 329 -17 189 6 250 -17 b 554 107 425 -17 500 25 l 554 0 l 688 0 l 688 717 l 549 717 z "},"Ų":{"ha":944,"x_min":0,"x_max":0,"o":"m 724 368 b 659 175 724 283 702 219 b 472 110 616 131 554 110 b 285 175 391 110 328 131 b 221 368 242 219 221 283 l 221 989 l 72 989 l 72 369 b 175 84 72 247 106 152 b 463 -21 244 16 339 -19 b 365 -158 398 -58 365 -104 b 412 -254 365 -199 381 -231 b 531 -289 443 -277 482 -289 b 626 -275 572 -289 604 -284 l 626 -178 b 554 -190 605 -186 581 -190 b 485 -135 508 -190 485 -172 b 626 0 485 -91 532 -46 l 625 0 b 809 131 706 24 767 68 b 872 369 851 194 872 273 l 872 989 l 724 989 z "},"ų":{"ha":767,"x_min":0,"x_max":0,"o":"m 688 717 l 549 717 l 549 313 b 497 160 549 248 531 197 b 368 106 462 124 419 106 b 217 256 267 106 217 156 l 217 717 l 78 717 l 78 236 b 144 50 78 156 100 94 b 329 -17 189 6 250 -17 b 554 107 425 -17 500 25 l 554 0 l 569 0 b 465 -67 525 -16 490 -38 b 426 -158 439 -97 426 -127 b 473 -254 426 -199 442 -231 b 592 -289 504 -277 544 -289 b 688 -275 633 -289 665 -284 l 688 -178 b 615 -190 666 -186 642 -190 b 546 -135 569 -190 546 -172 b 688 0 546 -91 593 -46 z "},"Ŵ":{"ha":1342,"x_min":0,"x_max":0,"o":"m 792 1049 l 924 1049 l 764 1249 l 578 1249 l 418 1049 l 551 1049 l 671 1174 z m 1051 540 b 960 175 1010 378 979 256 b 869 543 906 395 876 518 l 750 989 l 592 989 l 472 543 b 382 175 466 518 436 395 b 290 540 363 256 332 378 l 169 989 l 15 989 l 293 0 l 460 0 l 585 463 b 671 806 609 552 638 667 b 757 463 704 667 733 552 l 882 0 l 1049 0 l 1326 989 l 1172 989 z "},"ŵ":{"ha":1110,"x_min":0,"x_max":0,"o":"m 676 818 l 808 818 l 649 1018 l 463 1018 l 303 818 l 436 818 l 556 942 z m 863 418 b 789 164 825 289 800 205 b 715 418 778 205 753 289 l 625 717 l 486 717 l 394 418 b 322 163 363 314 339 229 b 247 418 297 252 272 338 l 156 717 l 6 717 l 243 0 l 390 0 l 488 315 b 554 546 501 361 524 438 b 622 315 575 472 597 395 l 721 0 l 867 0 l 1104 717 l 956 717 z "},"Ŷ":{"ha":929,"x_min":0,"x_max":0,"o":"m 585 1049 l 717 1049 l 557 1249 l 371 1249 l 211 1049 l 344 1049 l 464 1174 z m 621 782 b 468 528 566 695 515 610 b 448 562 463 537 456 548 b 419 611 440 575 430 592 b 388 663 407 631 397 648 b 314 781 353 717 329 756 l 183 989 l 15 989 l 392 394 l 392 0 l 539 0 l 539 394 l 914 989 l 749 989 z "},"ŷ":{"ha":692,"x_min":0,"x_max":0,"o":"m 468 818 l 600 818 l 440 1018 l 254 1018 l 94 818 l 228 818 l 347 942 z m 456 471 b 347 128 419 360 383 245 b 240 471 320 219 285 334 l 157 717 l 6 717 l 271 -19 b 260 -47 268 -26 265 -35 b 251 -74 256 -59 253 -68 b 126 -160 230 -131 188 -160 l 57 -160 l 57 -272 b 129 -276 80 -275 104 -276 b 299 -235 202 -276 259 -262 b 394 -90 338 -207 370 -159 l 686 717 l 539 717 z "},"Ÿ":{"ha":929,"x_min":0,"x_max":0,"o":"m 265 1197 l 265 1049 l 407 1049 l 407 1197 z m 521 1197 l 521 1049 l 663 1049 l 663 1197 z m 621 782 b 468 528 566 695 515 610 b 448 562 463 537 456 548 b 419 611 440 575 430 592 b 388 663 407 631 397 648 b 314 781 353 717 329 756 l 183 989 l 15 989 l 392 394 l 392 0 l 539 0 l 539 394 l 914 989 l 749 989 z "},"Ź":{"ha":850,"x_min":0,"x_max":0,"o":"m 492 1249 l 371 1049 l 490 1049 l 665 1249 z m 504 133 b 219 131 398 133 303 132 b 396 349 304 233 363 306 l 806 863 l 806 989 l 57 989 l 57 856 l 335 856 b 618 858 440 856 535 856 b 443 640 513 729 455 656 l 35 126 l 35 0 l 815 0 l 815 133 z "},"ź":{"ha":683,"x_min":0,"x_max":0,"o":"m 408 1018 l 288 818 l 407 818 l 582 1018 z m 371 114 b 221 113 293 114 243 113 b 313 226 249 145 279 183 l 621 619 l 621 717 l 57 717 l 57 603 l 296 603 b 446 604 374 603 424 603 b 354 490 418 572 388 534 l 46 97 l 46 0 l 638 0 l 638 114 z "},"Ż":{"ha":850,"x_min":0,"x_max":0,"o":"m 357 1197 l 357 1049 l 501 1049 l 501 1197 z m 504 133 b 219 131 398 133 303 132 b 396 349 304 233 363 306 l 806 863 l 806 989 l 57 989 l 57 856 l 335 856 b 618 858 440 856 535 856 b 443 640 513 729 455 656 l 35 126 l 35 0 l 815 0 l 815 133 z "},"ż":{"ha":683,"x_min":0,"x_max":0,"o":"m 269 967 l 269 818 l 414 818 l 414 967 z m 371 114 b 221 113 293 114 243 113 b 313 226 249 145 279 183 l 621 619 l 621 717 l 57 717 l 57 603 l 296 603 b 446 604 374 603 424 603 b 354 490 418 572 388 534 l 46 97 l 46 0 l 638 0 l 638 114 z "},"Ž":{"ha":850,"x_min":0,"x_max":0,"o":"m 683 1249 l 550 1249 l 431 1124 l 310 1249 l 178 1249 l 338 1049 l 524 1049 z m 504 133 b 219 131 398 133 303 132 b 396 349 304 233 363 306 l 806 863 l 806 989 l 57 989 l 57 856 l 335 856 b 618 858 440 856 535 856 b 443 640 513 729 455 656 l 35 126 l 35 0 l 815 0 l 815 133 z "},"ž":{"ha":683,"x_min":0,"x_max":0,"o":"m 596 1017 l 463 1017 l 343 893 l 222 1017 l 90 1017 l 250 817 l 436 817 z m 371 114 b 221 113 293 114 243 113 b 313 226 249 145 279 183 l 621 619 l 621 717 l 57 717 l 57 603 l 296 603 b 446 604 374 603 424 603 b 354 490 418 572 388 534 l 46 97 l 46 0 l 638 0 l 638 114 z "},"Ə":{"ha":1011,"x_min":0,"x_max":0,"o":"m 499 1011 b 217 918 385 1011 291 980 b 68 674 141 856 91 775 l 218 674 b 319 825 238 738 271 789 b 497 879 368 861 427 879 b 722 792 593 879 667 850 b 813 538 776 733 806 649 l 44 538 l 44 494 b 167 125 44 344 85 221 b 504 -22 248 27 361 -22 b 842 119 644 -22 756 25 b 967 493 925 214 967 338 b 840 869 967 650 925 776 b 499 1011 756 964 642 1011 z m 503 108 b 290 194 415 108 344 137 b 199 424 237 252 206 328 l 811 424 b 716 190 801 322 769 244 b 503 108 663 135 592 108 z "},"ƒ":{"ha":661,"x_min":0,"x_max":0,"o":"m 543 994 b 388 943 473 994 421 977 b 321 776 354 909 332 853 l 288 554 l 144 554 l 144 442 l 271 442 l 196 -67 b 165 -147 190 -105 180 -131 b 92 -171 149 -163 125 -171 b 33 -167 77 -171 57 -169 l 33 -283 b 117 -287 61 -286 89 -287 b 273 -237 187 -287 239 -271 b 340 -69 307 -203 329 -147 l 417 442 l 568 442 l 568 554 l 433 554 l 465 774 b 497 854 471 812 481 838 b 569 878 512 870 536 878 b 628 872 590 878 609 876 l 628 989 b 543 994 606 993 577 994 z "},"Ǵ":{"ha":1049,"x_min":0,"x_max":0,"o":"m 583 1271 l 463 1071 l 582 1071 l 757 1271 z m 546 393 l 838 393 b 744 190 835 311 804 243 b 526 110 685 137 613 110 b 288 214 427 110 348 144 b 199 494 228 282 199 376 b 288 775 199 613 228 706 b 524 879 346 844 425 879 b 713 821 598 879 661 860 b 813 663 766 782 799 729 l 965 663 b 824 917 950 768 902 853 b 522 1011 744 980 644 1011 b 175 869 377 1011 261 964 b 44 494 88 776 44 651 b 174 121 44 340 88 215 b 514 -22 258 25 371 -22 b 836 132 655 -22 762 29 l 863 0 l 976 0 l 976 519 l 546 519 z "},"ǵ":{"ha":822,"x_min":0,"x_max":0,"o":"m 468 1018 l 347 818 l 467 818 l 642 1018 z m 610 615 b 372 733 556 694 477 733 b 135 632 273 733 194 700 b 44 363 75 563 44 474 b 135 93 44 251 75 162 b 374 -8 194 25 274 -8 b 604 103 473 -8 550 29 l 604 24 b 403 -176 604 -110 537 -176 b 224 -50 294 -176 235 -134 l 85 -50 b 178 -225 92 -124 123 -182 b 401 -289 234 -268 308 -289 b 654 -205 511 -289 595 -261 b 743 26 713 -149 743 -72 l 743 717 l 610 717 z m 399 111 b 246 178 335 111 284 134 b 189 363 208 223 189 285 b 246 546 189 439 208 500 b 399 614 284 591 335 614 b 552 547 463 614 515 591 b 608 363 590 502 608 440 b 552 178 608 285 590 223 b 399 111 515 134 463 111 z "},"Ǻ":{"ha":981,"x_min":0,"x_max":0,"o":"m 964 0 l 596 931 b 672 1075 647 965 672 1013 b 643 1173 672 1111 663 1144 b 564 1238 624 1202 597 1224 l 719 1415 l 546 1415 l 447 1251 b 340 1190 403 1243 367 1223 b 299 1075 312 1158 299 1119 b 378 928 299 1013 325 964 l 15 0 l 169 0 l 265 257 l 710 257 l 807 0 z m 485 1163 b 548 1138 510 1163 531 1154 b 574 1075 565 1121 574 1100 b 548 1013 574 1050 565 1029 b 485 989 531 997 510 989 b 422 1013 460 989 439 997 b 397 1075 406 1029 397 1050 b 423 1138 397 1100 406 1121 b 485 1163 440 1154 461 1163 z m 333 440 b 486 846 371 540 422 675 b 640 440 540 698 591 563 l 661 386 l 313 386 z "},"ǻ":{"ha":747,"x_min":0,"x_max":0,"o":"m 438 1453 l 318 1253 l 436 1253 l 611 1453 z m 506 863 b 558 990 541 896 558 938 b 505 1117 558 1041 541 1084 b 372 1168 469 1151 425 1168 b 240 1117 319 1168 275 1151 b 186 990 204 1084 186 1041 b 240 863 186 938 204 896 b 372 811 275 828 319 811 b 506 863 426 811 470 828 z m 435 1053 b 460 990 451 1036 460 1015 b 435 928 460 965 451 944 b 372 903 417 911 396 903 b 311 928 348 903 328 911 b 285 990 294 944 285 965 b 310 1053 285 1015 293 1036 b 372 1076 326 1069 347 1076 b 435 1053 397 1076 418 1069 z m 694 107 b 656 143 669 107 656 119 l 656 522 b 372 733 656 663 561 733 b 68 493 180 733 78 653 l 206 493 b 249 594 209 541 224 575 b 372 622 274 613 315 622 b 485 598 425 622 463 614 b 519 519 508 582 519 556 b 494 458 519 493 511 472 b 413 429 477 443 450 434 l 307 418 b 38 196 127 400 38 325 b 106 40 38 129 60 77 b 293 -17 152 2 214 -17 b 526 97 400 -17 478 21 b 566 20 531 62 544 36 b 665 -4 588 4 621 -4 b 733 0 690 -4 713 -3 l 733 107 z m 314 92 b 215 120 270 92 237 101 b 181 200 192 139 181 166 b 215 280 181 234 192 261 b 331 318 238 299 277 312 l 431 329 b 519 358 472 334 502 344 l 519 283 b 461 142 519 222 500 175 b 314 92 422 108 373 92 z "},"Ǽ":{"ha":1443,"x_min":0,"x_max":0,"o":"m 1042 1249 l 921 1049 l 1040 1049 l 1215 1249 z m 1408 989 l 536 989 l 15 0 l 175 0 l 315 268 l 749 268 l 749 0 l 1404 0 l 1404 133 l 896 133 l 896 446 l 1356 446 l 1356 576 l 896 576 l 896 856 l 1408 856 z m 624 860 l 749 860 l 749 397 l 382 397 z "},"ǽ":{"ha":1213,"x_min":0,"x_max":0,"o":"m 678 1018 l 557 818 l 676 818 l 851 1018 z m 1167 353 b 1081 626 1167 464 1138 555 b 843 733 1023 698 944 733 b 615 638 750 733 674 701 b 372 733 575 701 494 733 b 68 493 180 733 78 653 l 206 493 b 249 594 209 541 224 575 b 372 622 274 613 315 622 b 485 598 425 622 463 614 b 519 519 508 582 519 556 b 494 458 519 493 511 472 b 413 429 477 443 450 434 l 307 418 b 38 196 127 400 38 325 b 107 40 38 129 61 77 b 299 -17 153 2 217 -17 b 583 121 422 -17 517 29 b 846 -17 643 29 730 -17 b 1044 47 925 -17 991 4 b 1150 219 1097 89 1132 146 l 1018 219 b 849 100 991 140 935 100 b 713 153 791 100 746 118 b 653 313 679 189 659 242 l 1167 313 z m 843 617 b 972 564 896 617 939 599 b 1031 422 1004 529 1024 481 l 654 422 b 716 567 663 485 683 533 b 843 617 749 600 791 617 z m 314 92 b 215 120 270 92 237 101 b 181 200 192 139 181 166 b 215 280 181 234 192 261 b 331 318 238 299 277 312 l 431 329 b 519 358 472 334 502 344 l 519 283 b 461 142 519 222 500 175 b 314 92 422 108 373 92 z "},"Ǿ":{"ha":1054,"x_min":0,"x_max":0,"o":"m 588 1271 l 467 1071 l 586 1071 l 761 1271 z m 950 1051 l 828 914 b 528 1011 746 979 646 1011 b 178 869 381 1011 265 964 b 44 494 89 773 44 648 b 151 150 44 358 80 244 l 24 7 l 103 -64 l 226 75 b 528 -22 308 10 408 -22 b 878 121 672 -22 789 25 b 1010 494 966 216 1010 341 b 903 839 1010 631 974 745 l 1029 981 z m 199 494 b 289 775 199 611 229 705 b 528 878 349 844 429 878 b 733 807 609 878 678 854 l 253 265 b 199 494 217 329 199 406 z m 856 494 b 767 215 856 376 826 283 b 528 111 707 146 628 111 b 321 182 445 111 376 135 l 801 724 b 856 494 838 660 856 583 z "},"ǿ":{"ha":797,"x_min":0,"x_max":0,"o":"m 465 1018 l 344 818 l 464 818 l 639 1018 z m 697 774 l 608 672 b 400 733 548 713 479 733 b 143 632 294 733 208 700 b 44 358 77 563 44 472 b 121 111 44 258 70 176 l 29 6 l 101 -58 l 190 44 b 400 -17 252 4 322 -17 b 657 86 506 -17 591 18 b 754 358 722 154 754 244 b 678 606 754 458 729 541 l 768 710 z m 186 358 b 243 549 186 440 205 503 b 400 617 281 594 333 617 b 526 578 450 617 492 604 l 213 217 b 186 358 195 256 186 303 z m 613 358 b 556 167 613 276 594 212 b 400 100 519 122 467 100 b 274 139 350 100 308 113 l 586 500 b 613 358 604 461 613 414 z "},"Ș":{"ha":871,"x_min":0,"x_max":0,"o":"m 435 579 b 265 643 352 597 296 618 b 219 746 235 666 219 700 b 271 849 219 790 237 825 b 419 885 305 873 355 885 b 601 840 503 885 563 870 b 664 699 638 809 659 763 l 811 699 b 710 928 809 796 776 872 b 418 1011 645 983 548 1011 b 163 938 311 1011 225 987 b 68 743 100 890 68 825 b 146 551 68 662 94 598 b 376 451 198 505 275 472 l 461 433 b 636 370 545 415 604 394 b 685 269 669 347 685 313 b 626 147 685 216 665 175 b 457 104 586 118 530 104 b 188 326 280 104 190 178 l 39 326 b 149 67 40 213 77 126 b 454 -22 222 7 324 -22 b 737 57 575 -22 669 4 b 839 274 805 110 839 182 b 765 457 839 350 814 412 b 521 561 715 502 634 537 z m 458 -208 l 458 -235 b 404 -283 458 -264 440 -281 l 385 -285 l 385 -349 l 407 -347 b 504 -317 451 -345 484 -335 b 535 -231 525 -298 535 -269 l 535 -82 l 385 -82 l 385 -208 z "},"ș":{"ha":668,"x_min":0,"x_max":0,"o":"m 319 428 b 218 465 273 437 239 449 b 186 529 197 480 186 501 b 222 600 186 560 198 583 b 325 625 246 617 281 625 b 449 595 381 625 422 615 b 493 493 475 575 490 541 l 628 493 b 325 733 623 653 522 733 b 122 677 239 733 171 715 b 49 525 73 640 49 589 b 276 311 49 410 125 339 l 350 297 b 469 258 407 287 447 274 b 503 192 492 243 503 220 b 344 92 503 125 450 92 b 217 122 286 92 244 102 b 168 228 190 143 174 178 l 29 228 b 343 -18 39 64 144 -18 b 564 40 438 -18 511 1 b 643 201 617 78 643 132 b 585 340 643 261 624 307 b 394 415 546 374 482 399 z m 344 -246 l 344 -271 b 290 -321 344 -301 326 -318 l 271 -322 l 271 -386 l 293 -385 b 390 -354 338 -383 370 -373 b 421 -268 411 -336 421 -307 l 421 -119 l 271 -119 l 271 -246 z "},"Ț":{"ha":857,"x_min":0,"x_max":0,"o":"m 25 856 l 353 856 l 353 0 l 504 0 l 504 856 l 832 856 l 832 989 l 25 989 z m 429 -186 l 429 -212 b 375 -261 429 -242 411 -258 l 356 -262 l 356 -326 l 378 -325 b 475 -294 422 -323 455 -313 b 506 -208 495 -276 506 -247 l 506 -60 l 356 -60 l 356 -186 z "},"ț":{"ha":451,"x_min":0,"x_max":0,"o":"m 418 717 l 274 717 l 274 922 l 135 922 l 135 717 l 19 717 l 19 603 l 135 603 l 135 160 b 183 35 135 102 151 61 b 333 -4 216 9 266 -4 b 418 0 359 -4 388 -3 l 418 111 l 356 111 b 292 126 326 111 305 116 b 274 172 280 135 274 151 l 274 603 l 418 603 z m 276 -228 l 276 -253 b 222 -303 276 -283 258 -300 l 203 -304 l 203 -368 l 225 -367 b 322 -336 269 -365 302 -355 b 353 -250 343 -318 353 -289 l 353 -101 l 203 -101 l 203 -228 z "},"ȷ":{"ha":294,"x_min":0,"x_max":0,"o":"m 32 -276 b 217 -112 155 -276 217 -222 l 217 717 l 78 717 l 78 -99 b 10 -160 78 -139 55 -160 l -31 -160 l -31 -275 b 32 -276 -21 -276 0 -276 z "},"ə":{"ha":771,"x_min":0,"x_max":0,"o":"m 382 733 b 174 669 300 733 231 712 b 60 497 116 627 78 569 l 199 497 b 267 585 213 534 235 563 b 381 617 298 606 336 617 b 524 563 441 617 489 599 b 588 404 560 528 581 475 l 46 404 l 46 364 b 138 90 46 252 76 161 b 386 -17 198 19 281 -17 b 633 86 488 -17 570 18 b 726 358 695 154 726 244 b 632 632 726 472 695 563 b 382 733 568 700 485 733 z m 386 100 b 251 153 331 100 286 118 b 190 294 217 188 197 235 l 585 294 b 520 150 576 231 555 183 b 386 100 485 117 441 100 z "},"ʰ":{"ha":649,"x_min":0,"x_max":0,"o":"m 376 1001 b 185 896 293 1001 229 966 l 185 1224 l 53 1224 l 53 364 l 185 364 l 185 714 b 228 841 185 768 199 810 b 336 888 258 872 294 888 b 464 760 421 888 464 845 l 464 364 l 596 364 l 596 776 b 538 942 596 848 577 903 b 376 1001 500 982 446 1001 z "},"ʳ":{"ha":444,"x_min":0,"x_max":0,"o":"m 372 999 b 181 878 281 999 218 958 l 181 989 l 53 989 l 53 364 l 185 364 l 185 692 b 234 827 185 751 201 796 b 374 874 267 858 313 874 l 408 874 l 408 997 b 372 999 404 998 392 999 z "},"ˆ":{"ha":556,"x_min":0,"x_max":0,"o":"m 371 1018 l 185 1018 l 25 818 l 158 818 l 278 942 l 399 818 l 531 818 z "},"ˇ":{"ha":556,"x_min":0,"x_max":0,"o":"m 278 893 l 158 1017 l 25 1017 l 185 817 l 371 817 l 531 1017 l 399 1017 z "},"ˉ":{"ha":556,"x_min":0,"x_max":0,"o":"m 488 818 l 488 924 l 68 924 l 68 818 z "},"˘":{"ha":556,"x_min":0,"x_max":0,"o":"m 431 867 b 500 1018 469 904 493 954 l 389 1018 b 353 940 385 985 373 959 b 278 911 334 921 308 911 b 167 1018 211 911 174 947 l 56 1018 b 124 867 59 956 82 906 b 278 811 163 830 215 811 b 431 867 340 811 391 830 z "},"˙":{"ha":556,"x_min":0,"x_max":0,"o":"m 350 818 l 350 967 l 207 967 l 207 818 z "},"˚":{"ha":556,"x_min":0,"x_max":0,"o":"m 411 863 b 464 990 446 896 464 938 b 410 1117 464 1041 446 1084 b 278 1168 375 1151 331 1168 b 145 1117 225 1168 181 1151 b 92 990 109 1084 92 1041 b 146 863 92 938 110 896 b 278 811 180 828 224 811 b 411 863 331 811 376 828 z m 217 928 b 190 990 199 944 190 965 b 215 1053 190 1015 199 1036 b 278 1076 232 1069 253 1076 b 340 1053 303 1076 324 1069 b 365 990 357 1036 365 1015 b 340 928 365 965 357 944 b 278 903 323 911 302 903 b 217 928 254 903 233 911 z "},"˛":{"ha":556,"x_min":0,"x_max":0,"o":"m 313 -289 b 408 -275 354 -289 386 -284 l 408 -178 b 336 -190 388 -186 364 -190 b 267 -135 290 -190 267 -172 b 408 0 267 -91 314 -46 l 290 0 b 185 -67 246 -16 211 -38 b 147 -158 160 -97 147 -127 b 194 -254 147 -199 163 -231 b 313 -289 225 -277 264 -289 z "},"˜":{"ha":556,"x_min":0,"x_max":0,"o":"m 142 818 b 181 882 142 861 155 882 b 263 856 197 882 225 873 b 388 818 318 831 360 818 b 518 994 475 818 518 877 l 414 994 b 375 931 414 952 401 931 b 289 958 357 931 329 940 b 168 994 238 982 198 994 b 38 818 81 994 38 936 z "},"˝":{"ha":556,"x_min":0,"x_max":0,"o":"m 121 818 l 299 1018 l 129 1018 l 8 818 z m 371 818 l 547 1018 l 379 1018 l 258 818 z "},"ˢ":{"ha":606,"x_min":0,"x_max":0,"o":"m 308 347 b 504 398 392 347 457 364 b 575 540 551 432 575 479 b 523 666 575 595 558 637 b 360 726 488 695 434 715 l 288 736 b 175 824 213 748 175 777 b 297 904 175 877 216 904 b 399 878 343 904 376 896 b 435 793 421 861 433 833 l 561 793 b 299 1001 557 932 470 1001 b 110 953 217 1001 154 985 b 44 817 66 920 44 875 b 242 631 44 715 110 653 l 314 619 b 415 588 363 611 397 600 b 443 529 434 575 443 555 b 311 446 443 474 399 446 b 201 472 259 446 222 454 b 161 561 179 489 166 519 l 31 561 b 105 399 35 488 60 434 b 308 347 150 365 218 347 z "},"̀":{"ha":0,"x_min":0,"x_max":0,"o":"m 147 818 l 26 1018 l -147 1018 l 28 818 z "},"́":{"ha":0,"x_min":0,"x_max":0,"o":"m -28 818 l 147 1018 l -26 1018 l -147 818 z "},"̂":{"ha":0,"x_min":0,"x_max":0,"o":"m 93 1018 l -93 1018 l -253 818 l -119 818 l 0 942 l 121 818 l 253 818 z "},"̃":{"ha":0,"x_min":0,"x_max":0,"o":"m -136 818 b -97 882 -136 861 -123 882 b -15 856 -81 882 -53 873 b 110 818 40 831 82 818 b 240 994 197 818 240 877 l 136 994 b 97 931 136 952 123 931 b 11 958 80 931 51 940 b -110 994 -40 982 -80 994 b -240 818 -197 994 -240 936 z "},"̄":{"ha":0,"x_min":0,"x_max":0,"o":"m 210 818 l 210 924 l -210 924 l -210 818 z "},"̆":{"ha":0,"x_min":0,"x_max":0,"o":"m 153 867 b 222 1018 192 904 215 954 l 111 1018 b 76 940 107 985 96 959 b 0 911 56 921 31 911 b -111 1018 -67 911 -104 947 l -222 1018 b -154 867 -219 956 -196 906 b 0 811 -114 830 -63 811 b 153 867 62 811 113 830 z "},"̇":{"ha":0,"x_min":0,"x_max":0,"o":"m 72 818 l 72 967 l -72 967 l -72 818 z "},"̈":{"ha":0,"x_min":0,"x_max":0,"o":"m -57 818 l -57 967 l -199 967 l -199 818 z m 199 818 l 199 967 l 57 967 l 57 818 z "},"̊":{"ha":0,"x_min":0,"x_max":0,"o":"m 133 863 b 186 990 169 896 186 938 b 133 1117 186 1041 168 1084 b 0 1168 97 1151 53 1168 b -133 1117 -53 1168 -97 1151 b -186 990 -168 1084 -186 1041 b -133 863 -186 938 -169 896 b 0 811 -98 828 -54 811 b 133 863 54 811 98 828 z m -62 928 b -87 990 -79 944 -87 965 b -62 1053 -87 1015 -79 1036 b 0 1076 -46 1069 -25 1076 b 63 1053 25 1076 46 1069 b 88 990 79 1036 88 1015 b 63 928 88 965 79 944 b 0 903 45 911 24 903 b -62 928 -24 903 -45 911 z "},"̋":{"ha":0,"x_min":0,"x_max":0,"o":"m -157 818 l 19 1018 l -150 1018 l -269 818 z m 93 818 l 269 1018 l 100 1018 l -19 818 z "},"̌":{"ha":0,"x_min":0,"x_max":0,"o":"m -253 893 l -374 1017 l -506 1017 l -346 817 l -160 817 l 0 1017 l -133 1017 z "},"̒":{"ha":0,"x_min":0,"x_max":0,"o":"m 75 1021 l 75 1085 l 53 1083 b -44 1053 8 1081 -24 1071 b -75 967 -65 1034 -75 1006 l -75 818 l 75 818 l 75 944 l 1 944 l 1 969 b 56 1019 1 1000 19 1017 z "},"̓":{"ha":0,"x_min":0,"x_max":0,"o":"m -75 953 l -1 953 l -1 926 b -56 876 -1 896 -19 879 l -75 876 l -75 813 l -53 814 b 44 844 -8 816 24 826 b 75 931 65 863 75 892 l 75 1079 l -75 1079 z "},"̣":{"ha":0,"x_min":0,"x_max":0,"o":"m 72 -250 l 72 -101 l -72 -101 l -72 -250 z "},"̤":{"ha":0,"x_min":0,"x_max":0,"o":"m -57 -250 l -57 -101 l -199 -101 l -199 -250 z m 199 -250 l 199 -101 l 57 -101 l 57 -250 z "},"̥":{"ha":0,"x_min":0,"x_max":0,"o":"m 132 -404 b 185 -278 167 -371 185 -329 b 132 -151 185 -227 167 -185 b 0 -101 98 -118 54 -101 b -132 -151 -54 -101 -98 -118 b -185 -278 -167 -185 -185 -227 b -132 -404 -185 -329 -167 -371 b 0 -454 -98 -437 -54 -454 b 132 -404 53 -454 97 -437 z m -62 -340 b -87 -278 -79 -324 -87 -303 b -62 -217 -87 -253 -79 -232 b 0 -192 -46 -200 -25 -192 b 63 -217 25 -192 46 -200 b 88 -278 79 -232 88 -253 b 63 -340 88 -303 79 -324 b 0 -364 46 -356 25 -364 b -62 -340 -25 -364 -46 -356 z "},"̦":{"ha":0,"x_min":0,"x_max":0,"o":"m -75 -228 l -1 -228 l -1 -253 b -56 -303 -1 -283 -19 -300 l -75 -304 l -75 -368 l -53 -367 b 44 -336 -8 -365 24 -355 b 75 -250 65 -318 75 -289 l 75 -101 l -75 -101 z "},"̧":{"ha":0,"x_min":0,"x_max":0,"o":"m -3 -60 l 56 7 l -37 7 l -93 -64 l -93 -117 b -54 -115 -85 -116 -72 -115 b 25 -171 -1 -115 25 -134 b -62 -232 25 -212 -4 -232 b -143 -226 -90 -232 -117 -230 l -143 -294 b -54 -303 -115 -300 -86 -303 b 94 -267 12 -303 61 -291 b 143 -169 127 -244 143 -211 b 107 -91 143 -138 131 -112 b 11 -60 83 -70 51 -60 z "},"̨":{"ha":0,"x_min":0,"x_max":0,"o":"m 35 -289 b 131 -275 76 -289 108 -284 l 131 -178 b 58 -190 110 -186 86 -190 b -11 -135 12 -190 -11 -172 b 131 0 -11 -91 36 -46 l 13 0 b -92 -67 -32 -16 -67 -38 b -131 -158 -118 -97 -131 -127 b -84 -254 -131 -199 -115 -231 b 35 -289 -53 -277 -13 -289 z "},"̮":{"ha":0,"x_min":0,"x_max":0,"o":"m 153 -253 b 222 -101 192 -216 215 -165 l 111 -101 b 76 -180 107 -135 96 -161 b 0 -208 56 -199 31 -208 b -111 -101 -67 -208 -104 -173 l -222 -101 b -154 -253 -219 -163 -196 -214 b 0 -308 -114 -290 -63 -308 b 153 -253 62 -308 113 -290 z "},"̱":{"ha":0,"x_min":0,"x_max":0,"o":"m 210 -207 l 210 -101 l -210 -101 l -210 -207 z "},"̵":{"ha":0,"x_min":0,"x_max":0,"o":"m 207 331 l 207 429 l -207 429 l -207 331 z "},"̷":{"ha":0,"x_min":0,"x_max":0,"o":"m 371 708 l 299 772 l -371 4 l -299 -60 z "},"̸":{"ha":0,"x_min":0,"x_max":0,"o":"m 503 969 l 424 1040 l -503 -4 l -424 -75 z "},"Δ":{"ha":924,"x_min":0,"x_max":0,"o":"m 374 989 l 35 129 l 35 0 l 889 0 l 889 129 l 544 989 z m 458 846 b 613 440 512 698 563 563 l 733 132 l 188 132 l 307 440 b 458 846 341 530 392 665 z "},"Ω":{"ha":1068,"x_min":0,"x_max":0,"o":"m 465 0 l 465 117 b 272 290 381 160 317 218 b 206 531 228 361 206 442 b 294 788 206 643 235 728 b 536 878 353 848 433 878 b 774 789 638 878 717 848 b 860 531 831 730 860 644 b 795 288 860 440 838 359 b 604 117 752 217 688 160 l 604 0 l 1024 0 l 1024 131 l 797 131 l 797 133 b 955 309 866 180 918 238 b 1010 543 991 380 1010 458 b 881 883 1010 687 967 800 b 535 1008 794 967 679 1008 b 188 883 391 1008 275 967 b 56 543 100 800 56 687 b 111 310 56 459 74 381 b 271 133 148 238 201 180 l 271 131 l 44 131 l 44 0 z "},"μ":{"ha":767,"x_min":0,"x_max":0,"o":"m 549 313 b 497 160 549 248 531 197 b 368 106 462 124 419 106 b 218 256 268 106 218 156 l 218 717 l 78 717 l 78 -272 l 217 -272 l 217 18 b 332 -17 249 -5 288 -17 b 554 106 426 -17 500 24 l 554 0 l 689 0 l 689 717 l 549 717 z "},"π":{"ha":813,"x_min":0,"x_max":0,"o":"m 779 717 l 19 717 l 19 603 l 135 603 l 135 0 l 274 0 l 274 603 l 525 603 l 525 157 b 564 33 525 100 538 58 b 688 -4 590 8 631 -4 b 764 0 711 -4 736 -3 l 764 111 l 715 111 b 675 124 696 111 682 116 b 664 168 668 133 664 148 l 664 603 l 779 603 z "},"ᵈ":{"ha":714,"x_min":0,"x_max":0,"o":"m 529 899 b 331 1001 483 967 417 1001 b 124 913 244 1001 175 972 b 47 675 73 853 47 774 b 124 438 47 576 73 497 b 331 350 175 379 244 350 b 533 460 420 350 488 387 l 533 364 l 661 364 l 661 1224 l 529 1224 z m 231 514 b 183 671 199 549 183 601 b 231 833 183 739 199 793 b 357 892 262 872 304 892 b 485 835 411 892 453 873 b 532 675 516 797 532 744 b 485 517 532 606 516 554 b 357 460 452 479 410 460 b 231 514 303 460 261 478 z "},"ᵗ":{"ha":426,"x_min":0,"x_max":0,"o":"m 392 989 l 265 989 l 265 1168 l 133 1168 l 133 989 l 35 989 l 35 885 l 133 885 l 133 511 b 177 399 133 461 148 424 b 315 361 206 374 252 361 b 392 367 344 361 369 363 l 392 469 l 338 469 b 281 483 311 469 292 474 b 265 526 271 491 265 506 l 265 885 l 392 885 z "},"Ẁ":{"ha":1342,"x_min":0,"x_max":0,"o":"m 606 1249 l 432 1249 l 607 1049 l 726 1049 z m 1051 540 b 960 175 1010 378 979 256 b 869 543 906 395 876 518 l 750 989 l 592 989 l 472 543 b 382 175 466 518 436 395 b 290 540 363 256 332 378 l 169 989 l 15 989 l 293 0 l 460 0 l 585 463 b 671 806 609 552 638 667 b 757 463 704 667 733 552 l 882 0 l 1049 0 l 1326 989 l 1172 989 z "},"ẁ":{"ha":1110,"x_min":0,"x_max":0,"o":"m 497 1018 l 324 1018 l 499 818 l 618 818 z m 863 418 b 789 164 825 289 800 205 b 715 418 778 205 753 289 l 625 717 l 486 717 l 394 418 b 322 163 363 314 339 229 b 247 418 297 252 272 338 l 156 717 l 6 717 l 243 0 l 390 0 l 488 315 b 554 546 501 361 524 438 b 622 315 575 472 597 395 l 721 0 l 867 0 l 1104 717 l 956 717 z "},"Ẃ":{"ha":1342,"x_min":0,"x_max":0,"o":"m 732 1249 l 611 1049 l 731 1049 l 906 1249 z m 1051 540 b 960 175 1010 378 979 256 b 869 543 906 395 876 518 l 750 989 l 592 989 l 472 543 b 382 175 466 518 436 395 b 290 540 363 256 332 378 l 169 989 l 15 989 l 293 0 l 460 0 l 585 463 b 671 806 609 552 638 667 b 757 463 704 667 733 552 l 882 0 l 1049 0 l 1326 989 l 1172 989 z "},"ẃ":{"ha":1110,"x_min":0,"x_max":0,"o":"m 621 1018 l 500 818 l 619 818 l 794 1018 z m 863 418 b 789 164 825 289 800 205 b 715 418 778 205 753 289 l 625 717 l 486 717 l 394 418 b 322 163 363 314 339 229 b 247 418 297 252 272 338 l 156 717 l 6 717 l 243 0 l 390 0 l 488 315 b 554 546 501 361 524 438 b 622 315 575 472 597 395 l 721 0 l 867 0 l 1104 717 l 956 717 z "},"Ẅ":{"ha":1342,"x_min":0,"x_max":0,"o":"m 471 1197 l 471 1049 l 613 1049 l 613 1197 z m 726 1197 l 726 1049 l 868 1049 l 868 1197 z m 1051 540 b 960 175 1010 378 979 256 b 869 543 906 395 876 518 l 750 989 l 592 989 l 472 543 b 382 175 466 518 436 395 b 290 540 363 256 332 378 l 169 989 l 15 989 l 293 0 l 460 0 l 585 463 b 671 806 609 552 638 667 b 757 463 704 667 733 552 l 882 0 l 1049 0 l 1326 989 l 1172 989 z "},"ẅ":{"ha":1110,"x_min":0,"x_max":0,"o":"m 356 967 l 356 818 l 497 818 l 497 967 z m 611 967 l 611 818 l 753 818 l 753 967 z m 863 418 b 789 164 825 289 800 205 b 715 418 778 205 753 289 l 625 717 l 486 717 l 394 418 b 322 163 363 314 339 229 b 247 418 297 252 272 338 l 156 717 l 6 717 l 243 0 l 390 0 l 488 315 b 554 546 501 361 524 438 b 622 315 575 472 597 395 l 721 0 l 867 0 l 1104 717 l 956 717 z "},"ẞ":{"ha":935,"x_min":0,"x_max":0,"o":"m 857 876 l 857 988 b 503 1010 747 1002 629 1010 b 181 910 361 1010 254 977 b 72 619 109 844 72 747 l 72 0 l 219 0 l 219 622 b 285 817 219 709 241 774 b 504 882 329 860 402 882 b 683 875 568 882 628 880 l 431 574 l 431 458 b 518 463 458 461 488 463 b 693 418 594 463 652 448 b 754 292 734 388 754 346 b 694 161 754 235 734 192 b 519 115 655 131 596 115 b 353 132 462 115 406 121 l 353 6 b 529 -12 407 -6 466 -12 b 803 69 646 -12 737 15 b 903 292 870 124 903 198 b 824 490 903 371 877 437 b 607 586 772 542 700 574 z "},"Ỳ":{"ha":929,"x_min":0,"x_max":0,"o":"m 400 1249 l 226 1249 l 401 1049 l 521 1049 z m 621 782 b 468 528 566 695 515 610 b 448 562 463 537 456 548 b 419 611 440 575 430 592 b 388 663 407 631 397 648 b 314 781 353 717 329 756 l 183 989 l 15 989 l 392 394 l 392 0 l 539 0 l 539 394 l 914 989 l 749 989 z "},"ỳ":{"ha":692,"x_min":0,"x_max":0,"o":"m 289 1018 l 115 1018 l 290 818 l 410 818 z m 456 471 b 347 128 419 360 383 245 b 240 471 320 219 285 334 l 157 717 l 6 717 l 271 -19 b 260 -47 268 -26 265 -35 b 251 -74 256 -59 253 -68 b 126 -160 230 -131 188 -160 l 57 -160 l 57 -272 b 129 -276 80 -275 104 -276 b 299 -235 202 -276 259 -262 b 394 -90 338 -207 370 -159 l 686 717 l 539 717 z "}," ":{"ha":294,"x_min":0,"x_max":0,"o":""},"‑":{"ha":510,"x_min":0,"x_max":0,"o":"m 458 331 l 458 451 l 51 451 l 51 331 z "},"–":{"ha":735,"x_min":0,"x_max":0,"o":"m 683 331 l 683 451 l 51 451 l 51 331 z "},"—":{"ha":1342,"x_min":0,"x_max":0,"o":"m 1290 331 l 1290 451 l 51 451 l 51 331 z "},"‘":{"ha":278,"x_min":0,"x_max":0,"o":"m 219 907 l 219 990 l 201 989 b 58 806 106 982 58 921 l 58 633 l 219 633 l 219 792 l 150 792 l 150 814 b 204 906 150 871 168 902 z "},"’":{"ha":278,"x_min":0,"x_max":0,"o":"m 58 831 l 128 831 l 128 808 b 74 717 128 751 110 720 l 58 715 l 58 632 l 76 633 b 219 817 172 640 219 701 l 219 989 l 58 989 z "},"‚":{"ha":278,"x_min":0,"x_max":0,"o":"m 58 0 l 128 0 l 128 -22 b 74 -114 128 -78 110 -108 l 58 -114 l 58 -197 l 76 -197 b 219 -14 172 -191 219 -130 l 219 158 l 58 158 z "},"“":{"ha":496,"x_min":0,"x_max":0,"o":"m 58 633 l 219 633 l 219 792 l 150 792 l 150 814 b 204 904 150 869 168 900 l 219 906 l 219 989 l 201 988 b 58 804 106 981 58 920 z m 438 906 l 438 989 l 419 988 b 276 804 324 981 276 920 l 276 633 l 438 633 l 438 792 l 368 792 l 368 814 b 422 904 368 869 386 900 z "},"”":{"ha":496,"x_min":0,"x_max":0,"o":"m 128 831 l 128 808 b 74 717 128 753 110 722 l 58 717 l 58 633 l 76 633 b 219 817 172 640 219 701 l 219 989 l 58 989 l 58 831 z m 276 831 l 346 831 l 346 808 b 292 717 346 751 328 720 l 276 717 l 276 633 l 294 633 b 438 817 390 640 438 701 l 438 989 l 276 989 z "},"„":{"ha":496,"x_min":0,"x_max":0,"o":"m 128 0 l 128 -22 b 74 -114 128 -78 110 -108 l 58 -114 l 58 -197 l 76 -197 b 219 -14 172 -191 219 -130 l 219 158 l 58 158 l 58 0 z m 276 0 l 346 0 l 346 -22 b 292 -114 346 -80 328 -110 l 276 -114 l 276 -197 l 294 -197 b 438 -14 390 -191 438 -130 l 438 158 l 276 158 z "},"†":{"ha":807,"x_min":0,"x_max":0,"o":"m 479 717 l 479 989 l 328 989 l 328 717 l 25 717 l 25 586 l 328 586 l 328 -203 l 479 -203 l 479 586 l 782 586 l 782 717 z "},"‡":{"ha":807,"x_min":0,"x_max":0,"o":"m 782 717 l 479 717 l 479 989 l 328 989 l 328 717 l 25 717 l 25 586 l 328 586 l 328 200 l 25 200 l 25 69 l 328 69 l 328 -203 l 479 -203 l 479 69 l 782 69 l 782 200 l 479 200 l 479 586 l 782 586 z "},"•":{"ha":464,"x_min":0,"x_max":0,"o":"m 378 253 l 378 539 l 86 539 l 86 253 z "},"…":{"ha":940,"x_min":0,"x_max":0,"o":"m 226 0 l 226 165 l 58 165 l 58 0 z m 560 0 l 560 165 l 392 165 l 392 0 z m 882 0 l 882 165 l 714 165 l 714 0 z "},"‰":{"ha":1772,"x_min":0,"x_max":0,"o":"m 442 482 b 501 701 481 534 501 607 b 441 923 501 797 481 871 b 265 1001 401 975 342 1001 b 89 923 188 1001 130 975 b 28 701 48 871 28 797 b 89 482 28 609 48 536 b 265 403 130 429 188 403 b 442 482 342 403 401 429 z m 415 0 l 943 989 l 828 989 l 300 0 z m 149 701 b 265 904 149 837 188 904 b 382 701 343 904 382 837 b 265 500 382 567 343 500 b 149 701 188 500 149 567 z m 1154 67 b 1214 286 1194 119 1214 192 b 1153 508 1214 381 1194 455 b 978 586 1113 560 1055 586 b 801 508 901 586 842 560 b 740 286 761 455 740 381 b 801 67 740 194 761 120 b 978 -12 841 14 900 -12 b 1154 67 1056 -12 1114 14 z m 1685 67 b 1744 286 1725 119 1744 192 b 1683 508 1744 381 1724 455 b 1507 586 1643 560 1584 586 b 1331 508 1430 586 1371 560 b 1269 286 1290 455 1269 381 b 1331 67 1269 194 1290 120 b 1507 -12 1370 14 1429 -12 b 1685 67 1586 -12 1645 14 z m 978 85 b 860 286 899 85 860 152 b 978 489 860 421 899 489 b 1094 286 1056 489 1094 421 b 978 85 1094 152 1056 85 z m 1390 286 b 1507 489 1390 421 1429 489 b 1624 286 1585 489 1624 421 b 1507 85 1624 152 1585 85 b 1390 286 1429 85 1390 152 z "},"‹":{"ha":408,"x_min":0,"x_max":0,"o":"m 86 436 l 86 283 l 322 90 l 322 239 l 174 360 l 322 481 l 322 629 z "},"›":{"ha":408,"x_min":0,"x_max":0,"o":"m 86 481 l 235 360 l 86 239 l 86 90 l 322 283 l 322 436 l 86 629 z "},"‽":{"ha":719,"x_min":0,"x_max":0,"o":"m 365 1011 b 120 928 260 1011 178 983 b 32 683 62 872 33 791 l 174 683 b 226 840 177 756 195 809 b 367 886 257 871 304 886 b 532 742 477 886 532 838 b 515 678 532 719 526 698 b 500 651 510 668 505 659 b 478 626 495 644 488 635 b 458 606 469 616 462 609 l 426 578 l 431 646 l 418 786 l 301 786 l 286 646 l 292 278 l 415 278 b 433 393 415 333 421 372 b 536 503 446 421 481 457 b 647 620 586 543 623 582 b 682 749 670 659 682 701 b 598 943 682 833 654 898 b 365 1011 542 988 464 1011 z m 436 0 l 436 165 l 268 165 l 268 0 z "},"⁄":{"ha":421,"x_min":0,"x_max":0,"o":"m 3 0 l 531 989 l 418 989 l -110 0 z "},"⁰":{"ha":529,"x_min":0,"x_max":0,"o":"m 442 800 b 501 1019 481 852 501 925 b 441 1241 501 1115 481 1189 b 265 1319 401 1293 342 1319 b 89 1241 188 1319 130 1293 b 28 1019 48 1189 28 1115 b 89 800 28 927 48 854 b 265 721 130 747 188 721 b 442 800 342 721 401 747 z m 149 1019 b 265 1222 149 1155 188 1222 b 382 1019 343 1222 382 1155 b 265 818 382 885 343 818 b 149 1019 188 818 149 885 z "},"⁴":{"ha":524,"x_min":0,"x_max":0,"o":"m 422 964 l 422 1307 l 303 1307 l 24 979 l 24 867 l 304 867 l 304 733 l 422 733 l 422 867 l 503 867 l 503 964 z m 308 964 l 124 964 l 308 1179 z "},"⁵":{"ha":492,"x_min":0,"x_max":0,"o":"m 272 1119 b 160 1086 226 1119 188 1108 l 182 1210 l 440 1210 l 440 1307 l 92 1307 l 35 972 l 146 972 b 247 1032 163 1012 197 1032 b 326 1001 280 1032 306 1022 b 356 921 346 980 356 953 b 326 844 356 889 346 864 b 247 814 306 824 280 814 b 175 836 219 814 194 821 b 138 894 156 851 143 870 l 26 894 b 97 768 33 842 56 800 b 247 721 138 737 188 721 b 405 776 311 721 364 739 b 467 921 446 812 467 861 b 414 1063 467 978 449 1026 b 272 1119 379 1101 331 1119 z "},"⁶":{"ha":508,"x_min":0,"x_max":0,"o":"m 282 1119 b 140 1060 225 1119 177 1100 b 268 1228 147 1172 189 1228 b 364 1161 319 1228 351 1206 l 475 1161 b 408 1277 468 1210 445 1249 b 268 1319 371 1305 325 1319 b 92 1240 191 1319 133 1293 b 32 1008 52 1186 32 1109 b 125 763 32 892 63 810 b 264 721 162 735 208 721 b 422 776 329 721 381 739 b 483 921 463 812 483 861 b 427 1063 483 977 465 1025 b 282 1119 390 1100 341 1119 z m 264 814 b 187 843 232 814 207 824 b 157 918 167 863 157 888 b 188 995 157 949 167 974 b 264 1026 208 1016 233 1026 b 342 996 296 1026 322 1016 b 372 918 362 975 372 950 b 342 843 372 888 362 863 b 264 814 322 824 296 814 z "},"⁷":{"ha":447,"x_min":0,"x_max":0,"o":"m 21 1210 l 311 1210 b 167 994 251 1150 203 1079 b 111 733 131 910 112 823 l 235 733 b 281 1005 236 841 251 931 b 426 1210 311 1078 360 1147 l 426 1307 l 21 1307 z "},"⁸":{"ha":508,"x_min":0,"x_max":0,"o":"m 385 1038 b 454 1161 431 1065 454 1106 b 401 1276 454 1209 436 1248 b 254 1319 365 1305 316 1319 b 107 1276 192 1319 143 1305 b 53 1161 71 1248 53 1209 b 124 1038 53 1107 76 1066 b 26 893 59 1009 26 961 b 88 768 26 841 47 800 b 254 721 128 737 184 721 b 421 768 325 721 380 737 b 482 893 462 800 482 841 b 385 1038 482 963 450 1012 z m 325 1214 b 351 1154 343 1199 351 1179 b 325 1094 351 1129 343 1109 b 254 1072 307 1080 284 1072 b 183 1094 225 1072 201 1080 b 158 1154 166 1109 157 1129 b 185 1214 158 1179 167 1199 b 254 1235 202 1228 225 1235 b 325 1214 283 1235 306 1228 z m 169 838 b 140 904 150 854 140 876 b 171 971 140 932 150 954 b 254 996 190 988 218 996 b 339 971 290 996 319 988 b 368 904 358 954 368 932 b 339 838 368 876 358 854 b 254 813 319 821 291 813 b 169 838 217 813 189 821 z "},"⁹":{"ha":508,"x_min":0,"x_max":0,"o":"m 383 1276 b 244 1319 345 1305 299 1319 b 86 1265 180 1319 127 1301 b 25 1119 45 1228 25 1180 b 81 978 25 1063 44 1016 b 226 921 119 940 167 921 b 368 982 285 921 332 941 b 246 813 362 869 321 813 b 144 879 192 813 158 835 l 33 879 b 101 763 41 830 63 791 b 246 721 138 735 187 721 b 417 801 321 721 378 748 b 476 1032 457 855 476 932 b 383 1276 476 1150 445 1231 z m 244 1014 b 166 1044 212 1014 186 1024 b 136 1122 146 1065 136 1091 b 166 1197 136 1153 146 1178 b 244 1226 186 1217 212 1226 b 322 1197 276 1226 302 1217 b 351 1122 341 1178 351 1153 b 321 1045 351 1092 341 1066 b 244 1014 300 1024 275 1014 z "},"⁺":{"ha":419,"x_min":0,"x_max":0,"o":"m 260 1065 l 260 1200 l 158 1200 l 158 1065 l 26 1065 l 26 972 l 158 972 l 158 839 l 260 839 l 260 972 l 393 972 l 393 1065 z "},"⁻":{"ha":419,"x_min":0,"x_max":0,"o":"m 393 972 l 393 1065 l 26 1065 l 26 972 z "},"⁽":{"ha":229,"x_min":0,"x_max":0,"o":"m 229 625 b 146 1019 174 758 146 890 b 229 1417 146 1160 174 1293 l 121 1417 b 58 1228 91 1350 70 1287 b 39 1019 45 1166 39 1096 b 58 814 39 944 45 876 b 121 625 70 755 91 692 z "},"⁾":{"ha":229,"x_min":0,"x_max":0,"o":"m 108 625 b 172 814 140 696 161 759 b 190 1019 184 871 190 940 b 172 1228 190 1101 184 1170 b 108 1417 161 1282 140 1345 l 0 1417 b 83 1019 56 1293 83 1160 b 0 625 83 890 56 758 z "},"ⁿ":{"ha":649,"x_min":0,"x_max":0,"o":"m 376 1001 b 181 889 290 1001 225 964 l 181 989 l 53 989 l 53 364 l 185 364 l 185 714 b 228 841 185 768 199 810 b 336 888 258 872 294 888 b 464 760 421 888 464 845 l 464 364 l 596 364 l 596 776 b 538 942 596 848 577 903 b 376 1001 500 982 446 1001 z "},"₀":{"ha":529,"x_min":0,"x_max":0,"o":"m 442 -206 b 501 14 481 -154 501 -81 b 441 235 501 109 481 183 b 265 314 401 288 342 314 b 89 235 188 314 130 288 b 28 14 48 183 28 109 b 89 -206 28 -79 48 -152 b 265 -285 130 -258 188 -285 b 442 -206 342 -285 401 -258 z m 149 14 b 265 217 149 149 188 217 b 382 14 343 217 382 149 b 265 -187 382 -120 343 -187 b 149 14 188 -187 149 -120 z "},"₁":{"ha":310,"x_min":0,"x_max":0,"o":"m 178 301 b 122 228 165 266 146 242 b 21 208 98 215 64 208 l 21 126 l 157 126 l 157 -272 l 275 -272 l 275 301 z "},"₂":{"ha":471,"x_min":0,"x_max":0,"o":"m 143 -175 b 240 -75 151 -131 184 -98 l 285 -56 b 408 28 341 -31 382 -4 b 446 142 433 59 446 97 b 390 266 446 193 427 234 b 238 314 353 298 302 314 b 81 260 170 314 118 296 b 24 117 45 225 25 177 l 136 117 b 161 190 136 148 144 173 b 235 217 178 208 202 217 b 332 136 300 217 332 190 b 238 33 332 94 300 60 l 197 17 b 63 -82 135 -9 90 -42 b 17 -228 35 -122 19 -170 l 15 -272 l 450 -272 l 450 -175 z "},"₃":{"ha":492,"x_min":0,"x_max":0,"o":"m 375 33 b 454 158 428 62 454 104 b 399 272 454 206 436 243 b 247 314 362 300 311 314 b 94 268 181 314 130 299 b 33 138 57 238 37 194 l 147 138 b 247 221 151 193 184 221 b 317 201 277 221 300 214 b 342 147 333 188 342 170 b 243 69 342 95 309 69 l 200 69 l 200 -17 l 240 -17 b 351 -101 314 -17 351 -45 b 323 -167 351 -129 342 -151 b 246 -190 304 -182 278 -190 b 128 -81 168 -190 129 -154 l 15 -81 b 75 -231 15 -145 35 -196 b 246 -285 115 -267 172 -285 b 408 -235 313 -285 367 -268 b 468 -106 448 -203 468 -159 b 375 33 468 -36 437 10 z "},"₄":{"ha":524,"x_min":0,"x_max":0,"o":"m 422 -42 l 422 301 l 303 301 l 24 -26 l 24 -139 l 304 -139 l 304 -272 l 422 -272 l 422 -139 l 503 -139 l 503 -42 z m 308 -42 l 124 -42 l 308 174 z "},"₅":{"ha":492,"x_min":0,"x_max":0,"o":"m 272 114 b 160 81 226 114 188 103 l 182 204 l 440 204 l 440 301 l 92 301 l 35 -33 l 146 -33 b 247 26 163 6 197 26 b 326 -5 280 26 306 16 b 356 -85 346 -26 356 -52 b 326 -162 356 -116 346 -142 b 247 -192 306 -182 280 -192 b 175 -169 219 -192 194 -184 b 138 -111 156 -155 143 -135 l 26 -111 b 97 -237 33 -164 56 -206 b 247 -285 138 -269 188 -285 b 405 -230 311 -285 364 -266 b 467 -85 446 -193 467 -145 b 414 58 467 -27 449 20 b 272 114 379 95 331 114 z "},"₆":{"ha":508,"x_min":0,"x_max":0,"o":"m 282 114 b 140 54 225 114 177 94 b 268 222 147 166 189 222 b 364 156 319 222 351 200 l 475 156 b 408 272 468 205 445 243 b 268 314 371 300 325 314 b 92 234 191 314 133 287 b 32 3 52 181 32 104 b 125 -243 32 -114 63 -196 b 264 -285 162 -271 208 -285 b 422 -230 329 -285 381 -266 b 483 -85 463 -193 483 -145 b 427 57 483 -28 465 19 b 282 114 390 95 341 114 z m 264 -192 b 187 -162 232 -192 207 -182 b 157 -87 167 -143 157 -118 b 188 -10 157 -57 167 -31 b 264 21 208 10 233 21 b 342 -10 296 21 322 11 b 372 -87 362 -30 372 -56 b 342 -162 372 -118 362 -143 b 264 -192 322 -182 296 -192 z "},"₇":{"ha":447,"x_min":0,"x_max":0,"o":"m 21 204 l 311 204 b 167 -11 251 145 203 73 b 111 -272 131 -95 112 -182 l 235 -272 b 281 -1 236 -165 251 -74 b 426 204 311 73 360 141 l 426 301 l 21 301 z "},"₈":{"ha":508,"x_min":0,"x_max":0,"o":"m 385 32 b 454 156 431 60 454 101 b 401 271 454 204 436 242 b 254 314 365 300 316 314 b 107 271 192 314 143 300 b 53 156 71 242 53 204 b 124 32 53 102 76 61 b 26 -112 59 3 26 -45 b 88 -237 26 -164 47 -206 b 254 -285 128 -269 184 -285 b 421 -237 325 -285 380 -269 b 482 -112 462 -206 482 -164 b 385 32 482 -42 450 6 z m 325 208 b 351 149 343 194 351 174 b 325 89 351 124 343 104 b 254 67 307 74 284 67 b 183 89 225 67 201 74 b 158 149 166 104 157 124 b 185 208 158 174 167 194 b 254 229 202 222 225 229 b 325 208 283 229 306 222 z m 169 -168 b 140 -101 150 -151 140 -129 b 171 -35 140 -74 150 -51 b 254 -10 190 -18 218 -10 b 339 -35 290 -10 319 -18 b 368 -101 358 -51 368 -74 b 339 -168 368 -129 358 -151 b 254 -193 319 -185 291 -193 b 169 -168 217 -193 189 -185 z "},"₉":{"ha":508,"x_min":0,"x_max":0,"o":"m 383 271 b 244 314 345 300 299 314 b 86 259 180 314 127 296 b 25 114 45 222 25 174 b 81 -28 25 57 44 10 b 226 -85 119 -66 167 -85 b 368 -24 285 -85 332 -64 b 246 -193 362 -137 321 -193 b 144 -126 192 -193 158 -171 l 33 -126 b 101 -242 41 -175 63 -214 b 246 -285 138 -271 187 -285 b 417 -204 321 -285 378 -258 b 476 26 457 -150 476 -74 b 383 271 476 144 445 225 z m 244 8 b 166 39 212 8 186 19 b 136 117 146 59 136 85 b 166 192 136 147 146 172 b 244 221 186 211 212 221 b 322 192 276 221 302 211 b 351 117 341 172 351 147 b 321 40 351 86 341 60 b 244 8 300 19 275 8 z "},"₊":{"ha":419,"x_min":0,"x_max":0,"o":"m 260 60 l 260 194 l 158 194 l 158 60 l 26 60 l 26 -33 l 158 -33 l 158 -167 l 260 -167 l 260 -33 l 393 -33 l 393 60 z "},"₋":{"ha":419,"x_min":0,"x_max":0,"o":"m 393 -33 l 393 60 l 26 60 l 26 -33 z "},"₌":{"ha":419,"x_min":0,"x_max":0,"o":"m 393 50 l 393 138 l 26 138 l 26 50 z m 393 -110 l 393 -22 l 26 -22 l 26 -110 z "},"₍":{"ha":229,"x_min":0,"x_max":0,"o":"m 229 -382 b 146 13 174 -250 146 -118 b 229 410 146 154 174 287 l 121 410 b 58 221 91 341 70 278 b 39 13 45 159 39 89 b 58 -193 39 -62 45 -131 b 121 -382 70 -252 91 -315 z "},"₎":{"ha":229,"x_min":0,"x_max":0,"o":"m 108 -383 b 172 -194 140 -312 161 -249 b 190 11 184 -137 190 -69 b 172 219 190 93 184 162 b 108 408 161 274 140 337 l 0 408 b 83 11 56 284 83 152 b 0 -383 83 -119 56 -250 z "},"ₙ":{"ha":649,"x_min":0,"x_max":0,"o":"m 376 365 b 181 253 290 365 225 328 l 181 353 l 53 353 l 53 -272 l 185 -272 l 185 78 b 228 205 185 131 199 174 b 336 251 258 236 294 251 b 464 124 421 251 464 209 l 464 -272 l 596 -272 l 596 140 b 538 306 596 212 577 267 b 376 365 500 346 446 365 z "},"€":{"ha":971,"x_min":0,"x_max":0,"o":"m 786 338 b 533 108 760 185 676 108 b 269 357 390 108 302 191 l 567 357 l 567 454 l 258 454 b 257 497 257 461 257 475 b 258 558 257 530 257 550 l 567 558 l 567 656 l 274 656 b 529 881 308 806 393 881 b 778 679 655 881 738 813 l 929 679 b 794 922 907 782 862 863 b 531 1011 727 981 639 1011 b 263 917 424 1011 335 980 b 119 656 191 855 144 768 l 0 656 l 0 558 l 107 558 b 104 496 105 521 104 500 b 106 454 104 475 105 461 l 0 454 l 0 357 l 115 357 b 258 78 137 238 184 144 b 533 -22 331 11 423 -22 b 799 74 640 -22 728 10 b 932 338 870 139 914 226 z "},"₸":{"ha":857,"x_min":0,"x_max":0,"o":"m 25 856 l 832 856 l 832 989 l 25 989 z m 353 592 l 353 0 l 504 0 l 504 592 l 832 592 l 832 725 l 25 725 l 25 592 z "},"₹":{"ha":868,"x_min":0,"x_max":0,"o":"m 86 989 l 86 875 l 371 875 b 575 753 488 875 556 834 l 86 753 l 86 657 l 575 657 b 371 535 555 575 487 535 l 86 535 l 86 433 l 536 0 l 735 0 l 296 419 l 389 419 b 620 482 481 419 559 440 b 729 657 682 524 718 582 l 825 657 l 825 753 l 729 753 b 660 893 719 810 696 857 l 825 893 l 825 989 z "},"₺":{"ha":810,"x_min":0,"x_max":0,"o":"m 617 517 b 517 236 617 398 583 305 b 242 133 450 168 358 133 l 242 507 l 504 625 l 504 725 l 242 607 l 242 710 l 504 828 l 504 928 l 242 810 l 242 989 l 93 989 l 93 742 l 0 700 l 0 600 l 93 642 l 93 539 l 0 497 l 0 397 l 93 439 l 93 0 l 242 0 b 628 142 403 0 531 47 b 771 517 723 236 771 361 z "},"₼":{"ha":1007,"x_min":0,"x_max":0,"o":"m 574 740 l 574 989 l 429 989 l 429 740 l 417 740 b 72 399 187 740 72 626 l 72 0 l 218 0 l 218 406 b 269 563 218 476 235 528 b 426 614 303 597 355 614 l 429 614 l 429 129 l 574 129 l 574 614 b 737 563 648 614 702 597 b 789 406 772 528 789 476 l 789 0 l 935 0 l 935 399 b 582 740 935 626 817 740 z "},"₿":{"ha":894,"x_min":0,"x_max":0,"o":"m 863 281 b 819 423 863 334 848 382 b 692 517 791 464 748 495 b 822 732 779 564 822 636 b 756 905 822 801 800 859 b 565 986 712 951 649 978 l 565 1150 l 463 1150 l 463 989 l 361 989 l 361 1150 l 258 1150 l 258 989 l 86 989 l 86 0 l 258 0 l 258 -161 l 361 -161 l 361 0 l 463 0 l 463 -161 l 565 -161 l 565 1 b 786 82 662 6 735 33 b 863 281 837 131 863 197 z m 503 861 b 631 824 558 861 601 849 b 676 719 661 799 676 764 b 503 565 676 617 619 565 l 235 565 l 235 861 z m 235 128 l 235 442 l 524 442 b 713 283 650 442 713 389 b 664 168 713 233 696 195 b 524 128 631 141 585 128 z "},"℅":{"ha":1379,"x_min":0,"x_max":0,"o":"m 310 404 b 491 467 382 404 442 425 b 578 636 540 508 569 565 l 460 636 b 408 542 452 596 435 565 b 310 507 381 519 349 507 b 194 558 260 507 221 524 b 153 703 166 593 153 641 b 194 849 153 765 166 813 b 310 901 221 884 260 901 b 407 869 349 901 381 891 b 457 779 433 847 450 817 l 578 779 b 490 943 568 849 538 903 b 310 1003 442 983 382 1003 b 103 922 222 1003 153 976 b 28 703 53 869 28 795 b 106 486 28 613 54 541 b 310 404 157 431 225 404 z m 479 0 l 1007 989 l 892 989 l 364 0 z m 1271 69 b 1351 286 1325 123 1351 195 b 1272 504 1351 376 1325 449 b 1061 586 1218 559 1147 586 b 853 504 975 586 906 559 b 772 286 799 450 772 377 b 853 69 772 195 799 123 b 1061 -12 906 15 975 -12 b 1271 69 1146 -12 1216 15 z m 1061 92 b 942 144 1011 92 971 109 b 897 286 912 180 897 227 b 942 429 897 346 912 394 b 1061 482 971 464 1011 482 b 1182 429 1112 482 1152 464 b 1226 286 1212 394 1226 346 b 1182 144 1226 227 1212 180 b 1061 92 1152 109 1112 92 z "},"ℓ":{"ha":613,"x_min":0,"x_max":0,"o":"m 354 99 b 296 124 330 99 311 107 b 274 190 281 140 274 163 l 274 328 b 478 505 363 369 431 428 b 550 774 526 582 550 672 b 354 1011 550 932 485 1011 b 191 947 283 1011 228 990 b 135 764 153 903 135 843 l 135 390 b 25 372 100 381 64 375 l 42 271 b 135 283 74 274 105 278 l 135 183 b 188 39 135 123 152 75 b 333 -15 223 3 271 -15 b 510 42 403 -15 462 4 l 471 139 b 354 99 438 112 400 99 z m 274 767 b 357 896 274 853 301 896 b 432 769 407 896 432 854 b 274 450 432 627 379 520 z "},"№":{"ha":1546,"x_min":0,"x_max":0,"o":"m 1249 1003 b 1067 930 1174 1003 1113 978 b 997 738 1020 881 997 817 b 1067 545 997 658 1020 594 b 1249 472 1113 497 1174 472 b 1428 545 1323 472 1383 497 b 1497 738 1474 594 1497 658 b 1428 930 1497 817 1474 881 b 1249 1003 1383 978 1323 1003 z m 750 689 b 756 190 750 468 752 301 b 563 510 709 273 645 379 l 257 989 l 86 989 l 86 0 l 231 0 l 231 300 b 225 797 231 521 229 687 b 418 479 265 724 329 618 l 722 0 l 893 0 l 893 989 l 750 989 z m 1249 586 b 1154 626 1209 586 1177 600 b 1119 738 1131 653 1119 690 b 1154 849 1119 784 1131 821 b 1249 890 1177 876 1209 890 b 1341 849 1288 890 1318 876 b 1375 738 1364 821 1375 784 b 1341 626 1375 690 1364 653 b 1249 586 1318 600 1288 586 z "},"℗":{"ha":1139,"x_min":0,"x_max":0,"o":"m 197 863 b 47 494 97 763 47 640 b 197 128 47 348 97 226 b 569 -22 295 28 419 -22 b 943 128 719 -22 843 28 b 1092 494 1042 227 1092 349 b 943 863 1092 639 1042 762 b 569 1013 843 963 719 1013 b 197 863 419 1013 295 963 z m 569 81 b 275 200 451 81 353 120 b 158 494 197 280 158 378 b 275 790 158 613 197 712 b 569 908 353 869 451 908 b 865 790 689 908 788 869 b 981 494 942 711 981 612 b 865 200 981 378 942 280 b 569 81 788 120 689 81 z m 382 782 l 382 207 l 492 207 l 492 406 l 619 406 b 772 456 683 406 734 422 b 828 593 809 490 828 536 b 772 731 828 650 809 696 b 619 782 734 765 683 782 z m 492 504 l 492 682 l 618 682 b 718 593 685 682 718 652 b 692 528 718 565 709 544 b 618 504 674 512 650 504 z "},"™":{"ha":764,"x_min":0,"x_max":0,"o":"m 144 925 l 144 635 l 214 635 l 214 925 l 325 925 l 325 989 l 33 989 l 33 925 z m 575 810 b 550 733 565 779 556 754 b 525 804 542 761 533 785 l 456 989 l 368 989 l 368 635 l 436 635 l 436 749 b 435 864 436 807 436 845 b 440 851 436 861 437 857 b 444 838 442 845 444 840 l 521 635 l 578 635 l 654 838 l 663 861 b 661 749 662 844 661 806 l 661 635 l 731 635 l 731 989 l 643 989 z "},"Ω":{"ha":1068,"x_min":0,"x_max":0,"o":"m 465 0 l 465 117 b 272 290 381 160 317 218 b 206 531 228 361 206 442 b 294 788 206 643 235 728 b 536 878 353 848 433 878 b 774 789 638 878 717 848 b 860 531 831 730 860 644 b 795 288 860 440 838 359 b 604 117 752 217 688 160 l 604 0 l 1024 0 l 1024 131 l 797 131 l 797 133 b 955 309 866 180 918 238 b 1010 543 991 380 1010 458 b 881 883 1010 687 967 800 b 535 1008 794 967 679 1008 b 188 883 391 1008 275 967 b 56 543 100 800 56 687 b 111 310 56 459 74 381 b 271 133 148 238 201 180 l 271 131 l 44 131 l 44 0 z "},"℮":{"ha":1265,"x_min":0,"x_max":0,"o":"m 224 865 b 69 494 121 766 69 643 b 225 126 69 344 121 222 b 633 -18 329 30 465 -18 b 906 38 737 -18 828 0 b 1085 179 984 75 1044 122 l 983 179 b 830 63 944 131 892 92 b 633 19 767 34 702 19 b 300 153 502 19 391 64 b 278 218 285 167 278 188 l 278 463 b 297 481 278 475 284 481 l 1194 481 b 1043 858 1194 631 1144 756 b 633 1011 941 960 805 1011 b 224 865 461 1011 325 963 z m 633 972 b 963 836 760 972 870 927 b 985 775 977 822 985 802 l 985 531 b 965 513 985 519 978 513 l 297 513 b 278 531 284 513 278 519 l 278 775 b 300 836 278 802 285 822 b 633 972 391 927 502 972 z "},"⅓":{"ha":1085,"x_min":0,"x_max":0,"o":"m 275 415 l 275 989 l 178 989 b 122 916 165 954 146 929 b 21 896 98 903 64 896 l 21 814 l 157 814 l 157 415 z m 156 0 l 268 0 l 796 989 l 683 989 z m 968 306 b 1047 431 1021 334 1047 376 b 992 544 1047 478 1029 516 b 840 586 955 572 904 586 b 687 540 775 586 723 571 b 626 410 650 510 630 466 l 740 410 b 840 493 745 465 778 493 b 910 474 870 493 893 487 b 935 419 926 461 935 443 b 836 342 935 368 902 342 l 793 342 l 793 256 l 833 256 b 946 171 908 256 946 227 b 917 106 946 143 936 121 b 839 82 897 90 871 82 b 721 192 761 82 722 119 l 608 192 b 668 41 608 127 628 77 b 839 -12 708 5 765 -12 b 1001 37 906 -12 960 4 b 1061 167 1041 70 1061 113 b 968 306 1061 236 1030 282 z "},"⅔":{"ha":1272,"x_min":0,"x_max":0,"o":"m 143 513 b 240 613 151 556 184 589 l 285 632 b 408 715 341 656 382 684 b 446 829 433 747 446 785 b 390 953 446 880 427 922 b 238 1001 353 985 302 1001 b 81 948 170 1001 118 984 b 24 804 45 912 25 864 l 136 804 b 161 878 136 836 144 860 b 235 904 178 895 202 904 b 332 824 300 904 332 877 b 238 721 332 782 300 748 l 197 704 b 63 606 135 678 90 645 b 17 460 35 566 19 517 l 15 415 l 450 415 l 450 513 z m 350 0 l 464 0 l 992 989 l 878 989 z m 1154 306 b 1235 431 1208 333 1235 375 b 1179 544 1235 478 1216 516 b 1028 586 1142 572 1092 586 b 874 540 962 586 911 571 b 814 410 837 510 817 466 l 926 410 b 1026 493 932 465 965 493 b 1097 474 1056 493 1079 487 b 1122 419 1114 461 1122 443 b 1022 342 1122 368 1089 342 l 981 342 l 981 256 l 1019 256 b 1132 171 1094 256 1132 227 b 1103 106 1132 143 1122 121 b 1025 82 1083 90 1057 82 b 908 192 947 82 908 119 l 796 192 b 856 41 796 127 816 77 b 1026 -12 895 5 952 -12 b 1188 37 1094 -12 1148 4 b 1249 167 1228 70 1249 113 b 1154 306 1249 237 1217 283 z "},"⅕":{"ha":1069,"x_min":0,"x_max":0,"o":"m 275 415 l 275 989 l 178 989 b 122 916 165 954 146 929 b 21 896 98 903 64 896 l 21 814 l 157 814 l 157 415 z m 154 0 l 268 0 l 796 989 l 682 989 z m 850 386 b 738 353 807 386 770 375 l 761 476 l 1018 476 l 1018 574 l 671 574 l 613 239 l 724 239 b 825 299 741 279 775 299 b 903 267 857 299 884 288 b 933 188 923 247 933 220 b 903 110 933 156 923 130 b 825 81 884 91 857 81 b 717 161 765 81 729 107 l 604 161 b 674 35 611 108 634 66 b 825 -12 713 3 764 -12 b 983 42 889 -12 941 6 b 1044 188 1024 79 1044 127 b 992 330 1044 245 1027 292 b 850 386 956 367 909 386 z "},"⅖":{"ha":1238,"x_min":0,"x_max":0,"o":"m 143 513 b 240 613 151 556 184 589 l 285 632 b 408 715 341 656 382 684 b 446 829 433 747 446 785 b 390 953 446 880 427 922 b 238 1001 353 985 302 1001 b 81 948 170 1001 118 984 b 24 804 45 912 25 864 l 136 804 b 161 878 136 836 144 860 b 235 904 178 895 202 904 b 332 824 300 904 332 877 b 238 721 332 782 300 748 l 197 704 b 63 606 135 678 90 645 b 17 460 35 566 19 517 l 15 415 l 450 415 l 450 513 z m 328 0 l 442 0 l 969 989 l 856 989 z m 1022 386 b 910 353 980 386 942 375 l 933 476 l 1190 476 l 1190 574 l 843 574 l 785 239 l 896 239 b 997 299 913 279 947 299 b 1076 267 1030 299 1056 288 b 1106 188 1096 247 1106 220 b 1076 110 1106 156 1096 130 b 997 81 1057 91 1031 81 b 889 161 936 81 900 107 l 776 161 b 846 35 783 108 806 66 b 997 -12 886 3 936 -12 b 1155 42 1061 -12 1114 6 b 1217 188 1196 79 1217 127 b 1164 331 1217 246 1199 294 b 1022 386 1129 368 1081 386 z "},"⅗":{"ha":1204,"x_min":0,"x_max":0,"o":"m 468 582 b 375 721 468 651 437 698 b 454 846 428 750 454 791 b 399 959 454 893 436 931 b 247 1001 362 987 311 1001 b 94 956 181 1001 130 986 b 33 825 57 925 37 881 l 147 825 b 247 908 151 881 184 908 b 317 889 277 908 300 902 b 342 835 333 876 342 858 b 243 757 342 783 309 757 l 200 757 l 200 671 l 240 671 b 351 586 314 671 351 643 b 323 521 351 558 342 537 b 246 497 304 505 278 497 b 128 607 168 497 129 534 l 15 607 b 75 456 15 542 35 492 b 246 403 115 421 172 403 b 408 452 313 403 367 419 b 468 582 448 485 468 528 z m 294 0 l 407 0 l 935 989 l 822 989 z m 988 386 b 875 353 944 386 906 375 l 899 476 l 1156 476 l 1156 574 l 807 574 l 750 239 l 860 239 b 963 299 877 279 912 299 b 1041 267 995 299 1021 288 b 1071 188 1061 247 1071 220 b 1041 110 1071 156 1061 130 b 963 81 1021 91 995 81 b 854 161 902 81 866 107 l 742 161 b 811 35 748 108 771 66 b 963 -12 851 3 901 -12 b 1120 42 1026 -12 1079 6 b 1182 188 1161 79 1182 127 b 1129 330 1182 245 1164 292 b 988 386 1094 367 1047 386 z "},"⅘":{"ha":1231,"x_min":0,"x_max":0,"o":"m 422 549 l 503 549 l 503 646 l 422 646 l 422 989 l 303 989 l 24 661 l 24 549 l 304 549 l 304 415 l 422 415 z m 322 0 l 435 0 l 963 989 l 850 989 z m 308 646 l 124 646 l 308 861 z m 1015 386 b 903 353 972 386 934 375 l 926 476 l 1183 476 l 1183 574 l 835 574 l 778 239 l 888 239 b 990 299 905 279 939 299 b 1069 267 1023 299 1049 288 b 1099 188 1089 247 1099 220 b 1069 110 1099 156 1089 130 b 990 81 1049 91 1023 81 b 882 161 930 81 894 107 l 769 161 b 839 35 776 108 799 66 b 990 -12 879 3 929 -12 b 1148 42 1054 -12 1107 6 b 1210 188 1189 79 1210 127 b 1157 330 1210 245 1192 292 b 1015 386 1122 367 1075 386 z "},"⅙":{"ha":1064,"x_min":0,"x_max":0,"o":"m 275 415 l 275 989 l 178 989 b 122 916 165 954 146 929 b 21 896 98 903 64 896 l 21 814 l 157 814 l 157 415 z m 150 0 l 263 0 l 790 989 l 678 989 z m 838 386 b 696 326 777 386 730 366 b 824 494 702 438 745 494 b 919 428 875 494 906 472 l 1031 428 b 964 544 1023 477 1001 516 b 824 586 927 572 880 586 b 647 506 746 586 687 559 b 588 275 607 453 588 376 b 681 29 588 158 619 76 b 819 -12 718 1 764 -12 b 978 42 884 -12 937 6 b 1039 188 1019 79 1039 127 b 983 329 1039 244 1020 291 b 838 386 945 367 897 386 z m 819 81 b 742 110 788 81 762 90 b 713 185 722 129 713 154 b 743 262 713 215 723 241 b 819 293 763 283 789 293 b 898 263 852 293 878 283 b 928 185 918 242 928 216 b 898 110 928 154 918 129 b 819 81 878 90 852 81 z "},"⅚":{"ha":1199,"x_min":0,"x_max":0,"o":"m 467 603 b 414 745 467 660 449 708 b 272 801 379 783 331 801 b 160 768 226 801 188 790 l 182 892 l 440 892 l 440 989 l 92 989 l 35 654 l 146 654 b 247 714 163 694 197 714 b 326 683 280 714 306 703 b 356 603 346 662 356 635 b 326 526 356 571 346 546 b 247 496 306 506 280 496 b 175 518 219 496 194 503 b 138 576 156 533 143 552 l 26 576 b 97 450 33 524 56 481 b 247 403 138 419 188 403 b 405 458 311 403 364 421 b 467 603 446 494 467 543 z m 285 0 l 397 0 l 925 989 l 813 989 z m 972 386 b 831 326 912 386 865 366 b 958 494 837 438 880 494 b 1054 428 1010 494 1042 472 l 1165 428 b 1099 544 1158 477 1136 516 b 958 586 1062 572 1015 586 b 782 506 881 586 822 559 b 722 275 742 453 722 376 b 815 29 722 158 753 76 b 954 -12 853 1 900 -12 b 1113 42 1019 -12 1072 6 b 1174 188 1153 79 1174 127 b 1117 329 1174 244 1155 291 b 972 386 1080 367 1031 386 z m 954 81 b 877 110 923 81 897 90 b 847 185 857 129 847 154 b 878 262 847 215 857 241 b 954 293 898 283 924 293 b 1033 263 987 293 1013 283 b 1063 185 1053 242 1063 216 b 1033 110 1063 154 1053 129 b 954 81 1013 90 987 81 z "},"⅛":{"ha":1090,"x_min":0,"x_max":0,"o":"m 275 415 l 275 989 l 178 989 b 122 916 165 954 146 929 b 21 896 98 903 64 896 l 21 814 l 157 814 l 157 415 z m 156 0 l 268 0 l 796 989 l 683 989 z m 968 304 b 1038 428 1014 334 1038 375 b 983 543 1038 476 1019 514 b 836 586 947 572 898 586 b 689 543 774 586 725 572 b 635 428 653 514 635 476 b 706 304 635 374 658 333 b 608 160 641 275 608 227 b 669 35 608 108 629 66 b 836 -12 710 3 766 -12 b 1003 35 906 -12 962 3 b 1064 160 1044 66 1064 108 b 968 304 1064 227 1032 275 z m 907 481 b 933 421 925 466 933 446 b 907 361 933 396 925 376 b 836 339 889 346 866 339 b 765 361 806 339 783 346 b 740 421 748 376 739 396 b 767 481 740 446 749 466 b 838 501 785 494 809 501 b 907 481 866 501 889 494 z m 751 104 b 722 171 732 121 722 143 b 752 238 722 199 732 221 b 836 263 772 254 800 263 b 920 238 872 263 900 254 b 950 171 940 221 950 199 b 921 104 950 143 940 121 b 836 79 901 88 873 79 b 751 104 799 79 771 88 z "},"⅜":{"ha":1231,"x_min":0,"x_max":0,"o":"m 468 582 b 375 721 468 651 437 698 b 454 846 428 750 454 791 b 399 959 454 893 436 931 b 247 1001 362 987 311 1001 b 94 956 181 1001 130 986 b 33 825 57 925 37 881 l 147 825 b 247 908 151 881 184 908 b 317 889 277 908 300 902 b 342 835 333 876 342 858 b 243 757 342 783 309 757 l 200 757 l 200 671 l 240 671 b 351 586 314 671 351 643 b 323 521 351 558 342 537 b 246 497 304 505 278 497 b 128 607 168 497 129 534 l 15 607 b 75 456 15 542 35 492 b 246 403 115 421 172 403 b 408 452 313 403 367 419 b 468 582 448 485 468 528 z m 296 0 l 408 0 l 936 989 l 824 989 z m 1108 304 b 1178 428 1155 334 1178 375 b 1124 543 1178 476 1160 514 b 976 586 1088 572 1038 586 b 829 543 914 586 865 572 b 775 428 793 514 775 476 b 846 304 775 374 799 333 b 749 160 781 275 749 227 b 810 35 749 108 769 66 b 976 -12 850 3 906 -12 b 1143 35 1047 -12 1102 3 b 1204 160 1184 66 1204 108 b 1108 304 1204 227 1172 275 z m 1047 481 b 1074 421 1065 466 1074 446 b 1047 361 1074 396 1065 376 b 976 339 1030 346 1006 339 b 906 361 947 339 923 346 b 880 421 888 376 879 396 b 907 481 880 446 889 466 b 976 501 925 494 948 501 b 1047 481 1005 501 1029 494 z m 892 104 b 863 171 872 121 863 143 b 892 238 863 199 872 221 b 976 263 912 254 940 263 b 1060 238 1013 263 1041 254 b 1090 171 1080 221 1090 199 b 1061 104 1090 143 1081 121 b 976 79 1042 88 1013 79 b 892 104 939 79 911 88 z "},"⅝":{"ha":1226,"x_min":0,"x_max":0,"o":"m 467 603 b 414 745 467 660 449 708 b 272 801 379 783 331 801 b 160 768 226 801 188 790 l 182 892 l 440 892 l 440 989 l 92 989 l 35 654 l 146 654 b 247 714 163 694 197 714 b 326 683 280 714 306 703 b 356 603 346 662 356 635 b 326 526 356 571 346 546 b 247 496 306 506 280 496 b 175 518 219 496 194 503 b 138 576 156 533 143 552 l 26 576 b 97 450 33 524 56 481 b 247 403 138 419 188 403 b 405 458 311 403 364 421 b 467 603 446 494 467 543 z m 292 0 l 404 0 l 932 989 l 819 989 z m 1103 304 b 1172 428 1149 332 1172 373 b 1119 543 1172 476 1154 514 b 972 586 1083 572 1034 586 b 825 543 910 586 861 572 b 771 428 789 514 771 476 b 842 304 771 374 794 333 b 744 160 777 275 744 227 b 806 35 744 108 765 66 b 972 -12 846 3 902 -12 b 1139 35 1043 -12 1098 3 b 1200 160 1180 66 1200 108 b 1103 304 1200 227 1168 275 z m 1043 481 b 1069 421 1061 466 1069 446 b 1043 361 1069 396 1061 376 b 972 339 1025 346 1002 339 b 901 361 943 339 919 346 b 876 421 884 376 875 396 b 903 481 876 446 885 466 b 974 501 921 494 945 501 b 1043 481 1002 501 1025 494 z m 888 104 b 858 171 868 121 858 143 b 888 238 858 199 868 221 b 972 263 908 254 936 263 b 1056 238 1008 263 1036 254 b 1086 171 1076 221 1086 199 b 1057 104 1086 143 1076 121 b 972 79 1038 88 1009 79 b 888 104 935 79 907 88 z "},"⅞":{"ha":1078,"x_min":0,"x_max":0,"o":"m 235 415 b 281 687 236 523 251 613 b 426 892 311 760 360 829 l 426 989 l 21 989 l 21 892 l 311 892 b 167 676 251 832 203 761 b 111 415 131 592 112 505 z m 142 0 l 254 0 l 782 989 l 669 989 z m 954 304 b 1024 428 1000 332 1024 373 b 970 543 1024 476 1006 514 b 824 586 934 572 886 586 b 676 543 762 586 713 572 b 622 428 640 514 622 476 b 693 304 622 374 646 333 b 596 160 628 275 596 227 b 657 35 596 108 616 66 b 824 -12 698 3 753 -12 b 990 35 894 -12 950 3 b 1051 160 1031 66 1051 108 b 954 304 1051 230 1019 278 z m 894 481 b 921 421 912 466 921 446 b 894 361 921 396 912 376 b 824 339 877 346 853 339 b 753 361 794 339 770 346 b 727 421 735 376 727 396 b 754 481 728 446 737 466 b 824 501 772 494 795 501 b 894 481 853 501 877 494 z m 739 104 b 710 171 719 121 710 143 b 740 238 710 199 720 221 b 824 263 760 254 788 263 b 908 238 860 263 888 254 b 938 171 928 221 938 199 b 908 104 938 143 928 121 b 824 79 889 88 861 79 b 739 104 787 79 758 88 z "},"←":{"ha":1328,"x_min":0,"x_max":0,"o":"m 382 561 b 536 760 419 607 470 674 l 710 989 l 532 989 l 158 494 l 532 0 l 710 0 l 536 229 b 382 429 464 325 413 391 l 1169 429 l 1169 561 z "},"↑":{"ha":1328,"x_min":0,"x_max":0,"o":"m 169 638 l 169 464 l 399 638 b 590 786 468 689 532 739 l 590 0 l 735 0 l 735 788 b 929 638 783 749 848 699 l 1158 464 l 1158 638 l 664 1011 z "},"→":{"ha":1328,"x_min":0,"x_max":0,"o":"m 618 989 l 792 760 b 946 561 857 674 909 607 l 158 561 l 158 429 l 946 429 b 792 229 915 391 864 325 l 618 0 l 796 0 l 1169 494 l 796 989 z "},"↓":{"ha":1328,"x_min":0,"x_max":0,"o":"m 929 351 b 735 201 848 290 783 240 l 735 989 l 590 989 l 590 203 b 399 351 532 250 468 300 l 169 525 l 169 351 l 664 -22 l 1158 351 l 1158 525 z "},"↔":{"ha":1328,"x_min":0,"x_max":0,"o":"m 797 989 l 965 760 b 1113 561 1056 637 1105 570 l 215 561 b 289 660 233 583 257 616 b 328 713 298 672 311 689 b 363 760 344 736 356 751 l 531 989 l 360 989 l 0 494 l 361 0 l 531 0 l 363 228 b 213 431 313 297 263 365 l 1115 431 b 965 228 1064 365 1014 297 l 797 0 l 968 0 l 1328 494 l 968 989 z "},"↕":{"ha":1328,"x_min":0,"x_max":0,"o":"m 735 985 b 929 835 783 946 848 896 l 1158 661 l 1158 835 l 664 1208 l 169 835 l 169 661 l 399 835 b 590 983 468 887 532 936 l 590 6 b 399 154 532 53 468 102 l 169 328 l 169 154 l 664 -219 l 1158 154 l 1158 328 l 929 154 b 735 4 848 93 783 43 z "},"↖":{"ha":1328,"x_min":0,"x_max":0,"o":"m 1119 792 l 994 924 l 214 924 l 214 169 l 354 40 l 354 421 b 353 689 354 560 354 649 l 1015 46 l 1113 151 l 449 794 b 718 792 528 793 618 792 z "},"↗":{"ha":1328,"x_min":0,"x_max":0,"o":"m 208 792 l 610 792 b 879 794 710 792 800 793 l 215 151 l 313 46 l 975 689 b 974 421 974 649 974 560 l 974 40 l 1114 169 l 1114 924 l 333 924 z "},"↘":{"ha":1328,"x_min":0,"x_max":0,"o":"m 974 565 b 975 296 974 425 974 336 l 313 940 l 215 835 l 879 192 b 610 194 800 194 710 194 l 208 194 l 333 63 l 1114 63 l 1114 815 l 974 946 z "},"↙":{"ha":1328,"x_min":0,"x_max":0,"o":"m 718 181 b 449 179 578 181 488 180 l 1113 821 l 1015 926 l 353 283 b 354 553 354 323 354 413 l 354 932 l 214 803 l 214 49 l 994 49 l 1119 181 z "},"∂":{"ha":883,"x_min":0,"x_max":0,"o":"m 525 1011 b 309 940 444 1011 372 987 b 171 740 247 892 200 825 l 317 740 b 399 849 336 787 363 823 b 511 889 434 876 471 889 b 637 840 569 889 610 873 b 676 688 663 808 676 757 b 660 517 676 633 671 576 b 577 613 644 557 616 589 b 439 647 538 636 492 647 b 171 532 335 647 246 609 b 57 251 95 455 57 362 b 138 53 57 167 84 101 b 347 -22 192 3 262 -22 b 563 44 425 -22 497 0 b 753 308 645 102 708 190 b 819 692 797 427 819 555 b 743 927 819 793 794 871 b 525 1011 692 983 619 1011 z m 354 104 b 247 146 309 104 273 118 b 207 257 220 174 207 211 b 279 444 207 328 231 391 b 446 525 326 498 382 525 b 551 484 490 525 525 511 b 590 372 577 457 590 419 b 521 186 590 303 567 241 b 354 104 475 131 419 104 z "},"∆":{"ha":924,"x_min":0,"x_max":0,"o":"m 374 989 l 35 129 l 35 0 l 889 0 l 889 129 l 544 989 z m 458 846 b 613 440 512 698 563 563 l 733 132 l 188 132 l 307 440 b 458 846 341 530 392 665 z "},"∏":{"ha":979,"x_min":0,"x_max":0,"o":"m 86 -272 l 235 -272 l 235 856 l 744 856 l 744 -272 l 893 -272 l 893 989 l 86 989 z "},"∑":{"ha":818,"x_min":0,"x_max":0,"o":"m 506 -140 b 222 -143 400 -140 306 -141 b 324 -18 280 -72 313 -30 b 399 75 370 40 395 71 l 592 319 l 592 397 l 399 642 b 287 780 364 684 327 730 b 222 860 247 829 225 856 b 506 857 306 858 400 857 l 769 857 l 769 989 l 35 989 l 35 864 l 440 358 l 35 -147 l 35 -272 l 783 -272 l 783 -140 z "},"−":{"ha":735,"x_min":0,"x_max":0,"o":"m 683 433 l 683 556 l 51 556 l 51 433 z "},"∕":{"ha":735,"x_min":0,"x_max":0,"o":"m 196 0 l 683 989 l 539 989 l 51 0 z "},"∙":{"ha":732,"x_min":0,"x_max":0,"o":"m 467 394 l 467 594 l 265 594 l 265 394 z "},"√":{"ha":994,"x_min":0,"x_max":0,"o":"m 561 200 b 456 -122 512 54 477 -54 b 403 38 444 -87 427 -34 b 350 199 379 109 361 163 l 271 425 l 19 425 l 19 294 l 169 294 l 372 -272 l 542 -272 l 979 989 l 831 989 z "},"∞":{"ha":1118,"x_min":0,"x_max":0,"o":"m 815 767 b 560 604 718 767 633 713 b 303 767 485 713 399 767 b 119 692 226 767 165 742 b 51 494 74 642 51 576 b 119 297 51 413 74 347 b 303 222 165 247 226 222 b 560 383 400 222 486 276 b 815 222 632 276 717 222 b 999 297 892 222 953 247 b 1067 494 1044 347 1067 413 b 999 692 1067 576 1044 642 b 815 767 953 742 892 767 z m 306 335 b 214 378 269 335 238 349 b 178 494 190 408 178 446 b 214 610 178 543 190 581 b 306 654 238 640 269 654 b 497 494 369 654 433 601 b 306 335 435 388 371 335 z m 813 335 b 622 494 747 335 683 388 b 813 654 684 601 748 654 b 904 610 850 654 880 640 b 940 494 928 581 940 543 b 904 378 940 446 928 408 b 813 335 880 349 850 335 z "},"∫":{"ha":554,"x_min":0,"x_max":0,"o":"m 131 -278 b 346 -67 274 -278 346 -207 l 346 783 b 440 878 346 846 377 878 b 503 874 460 878 481 876 l 503 989 b 422 994 472 993 445 994 b 207 783 279 994 207 924 l 207 -67 b 114 -161 207 -130 176 -161 b 51 -157 94 -161 73 -160 l 51 -272 b 131 -278 82 -276 108 -278 z "},"≈":{"ha":735,"x_min":0,"x_max":0,"o":"m 160 518 b 238 593 168 568 194 593 b 350 563 265 593 303 583 b 500 524 410 537 460 524 b 627 576 552 524 594 541 b 683 718 660 612 679 659 l 575 718 b 497 643 567 668 541 643 b 389 674 475 643 439 653 b 235 713 325 700 274 713 b 108 660 183 713 141 695 b 51 518 75 625 56 577 z m 160 254 b 238 329 168 304 194 329 b 350 299 265 329 303 319 b 500 260 414 273 464 260 b 627 313 552 260 594 277 b 683 454 660 348 679 395 l 575 454 b 497 379 567 404 541 379 b 389 410 475 379 439 389 b 235 449 325 436 274 449 b 108 396 183 449 141 431 b 51 254 75 361 56 313 z "},"≠":{"ha":735,"x_min":0,"x_max":0,"o":"m 683 678 l 490 678 l 533 797 l 433 832 l 376 678 l 51 678 l 51 567 l 336 567 l 283 422 l 51 422 l 51 311 l 242 311 l 199 193 l 300 158 l 356 311 l 683 311 l 683 422 l 396 422 l 449 567 l 683 567 z "},"≤":{"ha":735,"x_min":0,"x_max":0,"o":"m 683 829 l 51 582 l 51 446 l 683 200 l 683 335 l 514 403 b 197 514 401 444 295 481 b 514 626 288 544 394 581 l 683 693 z m 683 0 l 683 117 l 51 117 l 51 0 z "},"≥":{"ha":735,"x_min":0,"x_max":0,"o":"m 51 693 l 221 626 b 536 514 331 585 436 547 b 221 403 429 479 324 442 l 51 335 l 51 200 l 683 446 l 683 582 l 51 829 z m 683 0 l 683 117 l 51 117 l 51 0 z "},"①":{"ha":1328,"x_min":0,"x_max":0,"o":"m 193 951 b 0 494 64 826 0 674 b 193 39 0 314 64 162 b 664 -149 321 -86 478 -149 b 1136 39 849 -149 1006 -86 b 1328 494 1264 163 1328 315 b 1136 951 1328 674 1264 826 b 664 1138 1006 1075 849 1138 b 193 951 479 1138 322 1075 z m 283 122 b 129 494 181 224 129 348 b 283 867 129 641 181 765 b 664 1018 385 968 512 1018 b 1044 867 816 1018 943 968 b 1199 494 1147 765 1199 641 b 1044 122 1199 347 1147 223 b 664 -29 943 21 816 -29 b 283 122 512 -29 385 21 z m 646 811 b 582 731 627 770 606 744 b 474 708 558 718 522 710 l 474 618 b 625 636 544 618 594 624 l 625 179 l 751 179 l 751 811 z "},"②":{"ha":1328,"x_min":0,"x_max":0,"o":"m 193 951 b 0 494 64 826 0 674 b 193 39 0 314 64 162 b 664 -149 321 -86 478 -149 b 1136 39 849 -149 1006 -86 b 1328 494 1264 163 1328 315 b 1136 951 1328 674 1264 826 b 664 1138 1006 1075 849 1138 b 193 951 479 1138 322 1075 z m 283 122 b 129 494 181 224 129 348 b 283 867 129 641 181 765 b 664 1018 385 968 512 1018 b 1044 867 816 1018 943 968 b 1199 494 1147 765 1199 641 b 1044 122 1199 347 1147 223 b 664 -29 943 21 816 -29 b 283 122 512 -29 385 21 z m 718 447 b 852 540 779 475 824 506 b 894 664 880 573 894 615 b 833 801 894 719 874 765 b 665 854 793 836 737 854 b 493 796 590 854 533 835 b 431 638 453 757 432 704 l 554 638 b 582 717 554 672 563 698 b 663 746 600 736 627 746 b 768 658 733 746 768 717 b 665 544 768 610 734 572 l 621 526 b 472 417 552 498 503 461 b 422 257 442 373 425 320 l 421 208 l 899 208 l 899 317 l 563 317 b 593 378 567 342 577 362 b 667 425 609 395 633 410 z "},"③":{"ha":1328,"x_min":0,"x_max":0,"o":"m 193 951 b 0 494 64 826 0 674 b 193 39 0 314 64 162 b 664 -149 321 -86 478 -149 b 1136 39 849 -149 1006 -86 b 1328 494 1264 163 1328 315 b 1136 951 1328 674 1264 826 b 664 1138 1006 1075 849 1138 b 193 951 479 1138 322 1075 z m 283 122 b 129 494 181 224 129 348 b 283 867 129 641 181 765 b 664 1018 385 968 512 1018 b 1044 867 816 1018 943 968 b 1199 494 1147 765 1199 641 b 1044 122 1199 347 1147 223 b 664 -29 943 21 816 -29 b 283 122 512 -29 385 21 z m 808 517 b 872 573 835 530 856 548 b 896 653 888 597 896 624 b 835 778 896 706 875 747 b 668 825 794 809 738 825 b 499 775 596 825 540 808 b 433 631 459 742 437 694 l 558 631 b 667 722 562 692 598 722 b 744 701 699 722 725 715 b 774 642 764 686 774 667 b 663 556 774 584 737 556 l 617 556 l 617 461 l 660 461 b 783 368 742 461 783 430 b 751 297 783 338 773 314 b 665 271 730 279 701 271 b 538 392 580 271 538 311 l 413 392 b 480 225 413 319 436 264 b 667 167 524 186 586 167 b 845 220 742 167 801 184 b 911 363 889 256 911 303 b 808 517 911 440 877 492 z "},"④":{"ha":1328,"x_min":0,"x_max":0,"o":"m 193 951 b 0 494 64 826 0 674 b 193 39 0 314 64 162 b 664 -149 321 -86 478 -149 b 1136 39 849 -149 1006 -86 b 1328 494 1264 163 1328 315 b 1136 951 1328 674 1264 826 b 664 1138 1006 1075 849 1138 b 193 951 479 1138 322 1075 z m 283 122 b 129 494 181 224 129 348 b 283 867 129 641 181 765 b 664 1018 385 968 512 1018 b 1044 867 816 1018 943 968 b 1199 494 1147 765 1199 641 b 1044 122 1199 347 1147 223 b 664 -29 943 21 816 -29 b 283 122 512 -29 385 21 z m 676 822 l 369 463 l 369 338 l 679 338 l 679 190 l 808 190 l 808 338 l 896 338 l 896 444 l 808 444 l 808 822 z m 683 444 l 479 444 l 683 683 z "},"⑤":{"ha":1328,"x_min":0,"x_max":0,"o":"m 193 951 b 0 494 64 826 0 674 b 193 39 0 314 64 162 b 664 -149 321 -86 478 -149 b 1136 39 849 -149 1006 -86 b 1328 494 1264 163 1328 315 b 1136 951 1328 674 1264 826 b 664 1138 1006 1075 849 1138 b 193 951 479 1138 322 1075 z m 283 122 b 129 494 181 224 129 348 b 283 867 129 641 181 765 b 664 1018 385 968 512 1018 b 1044 867 816 1018 943 968 b 1199 494 1147 765 1199 641 b 1044 122 1199 347 1147 223 b 664 -29 943 21 816 -29 b 283 122 512 -29 385 21 z m 690 601 b 568 565 641 601 600 589 l 593 700 l 876 700 l 876 808 l 493 808 l 429 440 l 551 440 b 664 504 569 483 606 504 b 751 471 700 504 729 493 b 783 383 772 449 783 419 b 751 299 783 349 772 321 b 664 265 729 276 700 265 b 543 356 597 265 557 295 l 421 356 b 497 216 427 297 453 251 b 664 164 542 181 597 164 b 836 224 733 164 791 184 b 904 383 881 263 904 317 b 846 540 904 446 885 498 b 690 601 807 581 755 601 z "},"⑥":{"ha":1328,"x_min":0,"x_max":0,"o":"m 193 951 b 0 494 64 826 0 674 b 193 39 0 314 64 162 b 664 -149 321 -86 478 -149 b 1136 39 849 -149 1006 -86 b 1328 494 1264 163 1328 315 b 1136 951 1328 674 1264 826 b 664 1138 1006 1075 849 1138 b 193 951 479 1138 322 1075 z m 283 122 b 129 494 181 224 129 348 b 283 867 129 641 181 765 b 664 1018 385 968 512 1018 b 1044 867 816 1018 943 968 b 1199 494 1147 765 1199 641 b 1044 122 1199 347 1147 223 b 664 -29 943 21 816 -29 b 283 122 512 -29 385 21 z m 683 604 b 528 538 619 604 567 582 b 568 681 532 603 546 651 b 667 725 590 710 623 725 b 774 650 724 725 760 700 l 896 650 b 823 778 888 705 863 747 b 668 825 783 809 731 825 b 474 737 583 825 518 796 b 408 482 430 678 408 593 b 511 213 408 354 443 264 b 664 167 552 182 603 167 b 838 226 735 167 793 187 b 906 386 883 266 906 319 b 844 542 906 446 885 498 b 683 604 804 583 750 604 z m 579 301 b 546 383 557 323 546 350 b 579 468 546 417 557 445 b 664 501 600 490 629 501 b 750 468 699 501 728 490 b 783 383 772 445 783 417 b 750 301 783 350 772 323 b 664 268 728 279 699 268 b 579 301 628 268 600 279 z "},"⑦":{"ha":1328,"x_min":0,"x_max":0,"o":"m 193 951 b 0 494 64 826 0 674 b 193 39 0 314 64 162 b 664 -149 321 -86 478 -149 b 1136 39 849 -149 1006 -86 b 1328 494 1264 163 1328 315 b 1136 951 1328 674 1264 826 b 664 1138 1006 1075 849 1138 b 193 951 479 1138 322 1075 z m 283 122 b 129 494 181 224 129 348 b 283 867 129 641 181 765 b 664 1018 385 968 512 1018 b 1044 867 816 1018 943 968 b 1199 494 1147 765 1199 641 b 1044 122 1199 347 1147 223 b 664 -29 943 21 816 -29 b 283 122 512 -29 385 21 z m 767 686 b 608 452 700 622 647 544 b 547 163 568 360 548 263 l 685 163 b 734 460 685 280 701 379 b 893 686 767 541 820 617 l 893 794 l 449 794 l 449 686 z "},"⑧":{"ha":1328,"x_min":0,"x_max":0,"o":"m 193 951 b 0 494 64 826 0 674 b 193 39 0 314 64 162 b 664 -149 321 -86 478 -149 b 1136 39 849 -149 1006 -86 b 1328 494 1264 163 1328 315 b 1136 951 1328 674 1264 826 b 664 1138 1006 1075 849 1138 b 193 951 479 1138 322 1075 z m 283 122 b 129 494 181 224 129 348 b 283 867 129 641 181 765 b 664 1018 385 968 512 1018 b 1044 867 816 1018 943 968 b 1199 494 1147 765 1199 641 b 1044 122 1199 347 1147 223 b 664 -29 943 21 816 -29 b 283 122 512 -29 385 21 z m 808 514 b 885 650 859 545 885 591 b 826 777 885 703 865 745 b 664 825 786 809 732 825 b 501 778 595 825 541 809 b 442 650 462 746 442 704 b 519 514 442 592 468 546 b 414 356 449 482 414 430 b 481 219 414 299 436 253 b 664 167 526 184 587 167 b 847 219 741 167 802 184 b 914 356 891 253 914 299 b 808 514 914 430 879 482 z m 742 707 b 771 643 761 691 771 670 b 742 577 771 615 761 593 b 664 553 722 561 696 553 b 586 577 631 553 606 561 b 557 643 567 593 557 615 b 622 724 552 683 574 710 b 742 707 670 739 710 733 z m 571 294 b 539 368 550 313 539 338 b 572 442 539 399 550 423 b 664 469 594 460 625 469 b 756 442 703 469 733 460 b 789 368 778 423 789 399 b 757 294 789 338 778 313 b 664 267 736 276 705 267 b 571 294 623 267 592 276 z "},"⑨":{"ha":1328,"x_min":0,"x_max":0,"o":"m 193 951 b 0 494 64 826 0 674 b 193 39 0 314 64 162 b 664 -149 321 -86 478 -149 b 1136 39 849 -149 1006 -86 b 1328 494 1264 163 1328 315 b 1136 951 1328 674 1264 826 b 664 1138 1006 1075 849 1138 b 193 951 479 1138 322 1075 z m 283 122 b 129 494 181 224 129 348 b 283 867 129 641 181 765 b 664 1018 385 968 512 1018 b 1044 867 816 1018 943 968 b 1199 494 1147 765 1199 641 b 1044 122 1199 347 1147 223 b 664 -29 943 21 816 -29 b 283 122 512 -29 385 21 z m 819 778 b 668 825 779 809 728 825 b 494 765 597 825 539 805 b 426 604 449 724 426 671 b 488 450 426 544 447 493 b 649 386 527 407 581 386 b 803 453 713 386 764 408 b 763 311 798 388 785 341 b 669 267 741 281 710 267 b 557 340 610 267 573 291 l 435 340 b 510 213 444 286 469 243 b 669 167 552 182 605 167 b 858 254 752 167 815 196 b 922 508 901 313 922 397 b 819 778 922 636 888 726 z m 668 489 b 581 523 632 489 603 500 b 547 608 558 546 547 574 b 581 690 547 642 558 669 b 668 722 603 712 632 722 b 753 690 703 722 731 712 b 785 608 774 669 785 642 b 753 523 785 574 774 546 b 668 489 731 500 703 489 z "},"⓪":{"ha":1328,"x_min":0,"x_max":0,"o":"m 1136 39 b 1328 494 1264 163 1328 315 b 1136 951 1328 674 1264 826 b 664 1138 1006 1075 849 1138 b 193 951 479 1138 322 1075 b 0 494 64 826 0 674 b 193 39 0 314 64 162 b 664 -149 321 -86 478 -149 b 1136 39 849 -149 1006 -86 z m 283 122 b 129 494 181 224 129 348 b 283 867 129 641 181 765 b 664 1018 385 968 512 1018 b 1044 867 816 1018 943 968 b 1199 494 1147 765 1199 641 b 1044 122 1199 347 1147 223 b 664 -29 943 21 816 -29 b 283 122 512 -29 385 21 z m 860 254 b 925 494 903 312 925 392 b 858 738 925 599 903 680 b 664 825 814 796 749 825 b 469 738 579 825 514 796 b 403 494 425 680 403 599 b 469 254 403 392 425 312 b 664 167 512 196 577 167 b 860 254 750 167 815 196 z m 536 494 b 664 717 536 643 579 717 b 792 494 749 717 792 643 b 664 274 792 347 749 274 b 536 494 579 274 536 347 z "},"⓿":{"ha":1328,"x_min":0,"x_max":0,"o":"m 1000 -64 b 1240 171 1101 -7 1181 71 b 1328 494 1299 270 1328 378 b 1240 819 1328 613 1299 721 b 1000 1053 1182 918 1102 995 b 664 1138 899 1109 787 1138 b 328 1053 541 1138 429 1109 b 88 819 226 995 146 918 b 0 494 29 721 0 613 b 88 171 0 378 29 270 b 328 -64 147 71 227 -7 b 664 -149 429 -120 541 -149 b 1000 -64 787 -149 899 -120 z m 474 253 b 406 494 428 307 406 388 b 472 737 406 599 428 680 b 664 822 517 794 581 822 b 856 737 747 822 811 794 b 922 494 900 680 922 599 b 856 253 922 389 900 308 b 664 168 810 196 746 168 b 474 253 581 168 518 196 z m 796 494 b 664 719 796 644 752 719 b 532 494 576 719 532 644 b 664 271 532 345 576 271 b 796 494 752 271 796 345 z "},"■":{"ha":1328,"x_min":0,"x_max":0,"o":"m 1294 -122 l 1294 1111 l 33 1111 l 33 -122 z "},"□":{"ha":1328,"x_min":0,"x_max":0,"o":"m 1294 -122 l 1294 1111 l 33 1111 l 33 -122 z m 163 994 l 1165 994 l 1165 -6 l 163 -6 z "},"◊":{"ha":806,"x_min":0,"x_max":0,"o":"m 328 989 l 32 494 l 328 0 l 478 0 l 774 494 l 478 989 z m 189 494 l 403 856 l 617 494 l 403 133 z "},"○":{"ha":1328,"x_min":0,"x_max":0,"o":"m 1136 39 b 1328 494 1264 163 1328 315 b 1136 951 1328 674 1264 826 b 664 1138 1006 1075 849 1138 b 193 951 479 1138 322 1075 b 0 494 64 826 0 674 b 193 39 0 314 64 162 b 664 -149 321 -86 478 -149 b 1136 39 849 -149 1006 -86 z m 283 122 b 129 494 181 224 129 348 b 283 867 129 641 181 765 b 664 1018 385 968 512 1018 b 1044 867 816 1018 943 968 b 1199 494 1147 765 1199 641 b 1044 122 1199 347 1147 223 b 664 -29 943 21 816 -29 b 283 122 512 -29 385 21 z "}}}
